  0
SECTION
  2
HEADER
  9
$ACADVER
  1
AC1015
  9
$ACADMAINTVER
 70
     6
  9
$DWGCODEPAGE
  3
ANSI_1252
  9
$INSBASE
 10
0.0
 20
0.0
 30
0.0
  9
$EXTMIN
 10
0.0
 20
0.0
 30
0.0
  9
$EXTMAX
 10
44.0
 20
34.0
 30
0.0
  9
$LIMMIN
 10
0.0
 20
0.0
  9
$LIMMAX
 10
44.0
 20
34.0
  9
$ORTHOMODE
 70
     0
  9
$REGENMODE
 70
     1
  9
$FILLMODE
 70
     1
  9
$QTEXTMODE
 70
     0
  9
$MIRRTEXT
 70
     1
  9
$LTSCALE
 40
1.0
  9
$ATTMODE
 70
     1
  9
$TEXTSIZE
 40
0.1377952756
  9
$TRACEWID
 40
0.05
  9
$TEXTSTYLE
  7
Standard
  9
$CLAYER
  8
0
  9
$CELTYPE
  6
ByLayer
  9
$CECOLOR
 62
   256
  9
$CELTSCALE
 40
1.0
  9
$DISPSILH
 70
     0
  9
$DIMSCALE
 40
1.0
  9
$DIMASZ
 40
0.14
  9
$DIMEXO
 40
0.0393700787
  9
$DIMDLI
 40
0.38
  9
$DIMRND
 40
0.0
  9
$DIMDLE
 40
0.0
  9
$DIMEXE
 40
0.0393700787
  9
$DIMTP
 40
0.0
  9
$DIMTM
 40
0.0
  9
$DIMTXT
 40
0.1377952756
  9
$DIMCEN
 40
0.09
  9
$DIMTSZ
 40
0.0
  9
$DIMTOL
 70
     0
  9
$DIMLIM
 70
     0
  9
$DIMTIH
 70
     1
  9
$DIMTOH
 70
     1
  9
$DIMSE1
 70
     0
  9
$DIMSE2
 70
     0
  9
$DIMTAD
 70
     1
  9
$DIMZIN
 70
     1
  9
$DIMBLK
  1

  9
$DIMASO
 70
     1
  9
$DIMSHO
 70
     1
  9
$DIMPOST
  1

  9
$DIMAPOST
  1

  9
$DIMALT
 70
     0
  9
$DIMALTD
 70
     2
  9
$DIMALTF
 40
25.4
  9
$DIMLFAC
 40
1.0
  9
$DIMTOFL
 70
     0
  9
$DIMTVP
 40
0.0
  9
$DIMTIX
 70
     0
  9
$DIMSOXD
 70
     0
  9
$DIMSAH
 70
     0
  9
$DIMBLK1
  1

  9
$DIMBLK2
  1

  9
$DIMSTYLE
  2
Standard
  9
$DIMCLRD
 70
     0
  9
$DIMCLRE
 70
     0
  9
$DIMCLRT
 70
     0
  9
$DIMTFAC
 40
1.0
  9
$DIMGAP
 40
0.06
  9
$DIMJUST
 70
     0
  9
$DIMSD1
 70
     0
  9
$DIMSD2
 70
     0
  9
$DIMTOLJ
 70
     1
  9
$DIMTZIN
 70
     1
  9
$DIMALTZ
 70
     0
  9
$DIMALTTZ
 70
     0
  9
$DIMUPT
 70
     0
  9
$DIMDEC
 70
     4
  9
$DIMTDEC
 70
     4
  9
$DIMALTU
 70
     2
  9
$DIMALTTD
 70
     2
  9
$DIMTXSTY
  7
Standard
  9
$DIMAUNIT
 70
     0
  9
$DIMADEC
 70
     0
  9
$DIMALTRND
 40
0.0
  9
$DIMAZIN
 70
     0
  9
$DIMDSEP
 70
    46
  9
$DIMATFIT
 70
     3
  9
$DIMFRAC
 70
     0
  9
$DIMLDRBLK
  1

  9
$DIMLUNIT
 70
     2
  9
$DIMLWD
 70
    -2
  9
$DIMLWE
 70
    -2
  9
$DIMTMOVE
 70
     0
  9
$LUNITS
 70
     2
  9
$LUPREC
 70
     4
  9
$SKETCHINC
 40
0.1
  9
$FILLETRAD
 40
0.0
  9
$AUNITS
 70
     0
  9
$AUPREC
 70
     0
  9
$MENU
  1
.
  9
$ELEVATION
 40
0.0
  9
$PELEVATION
 40
0.0
  9
$THICKNESS
 40
0.0
  9
$LIMCHECK
 70
     0
  9
$CHAMFERA
 40
0.0
  9
$CHAMFERB
 40
0.0
  9
$CHAMFERC
 40
0.0
  9
$CHAMFERD
 40
0.0
  9
$SKPOLY
 70
     0
  9
$TDCREATE
 40
2460354.646347569
  9
$TDUCREATE
 40
2460354.854680903
  9
$TDUPDATE
 40
2460354.646347952
  9
$TDUUPDATE
 40
2460354.854681285
  9
$TDINDWG
 40
0.0000000116
  9
$TDUSRTIMER
 40
0.0000000116
  9
$USRTIMER
 70
     1
  9
$ANGBASE
 50
0.0
  9
$ANGDIR
 70
     0
  9
$PDMODE
 70
     0
  9
$PDSIZE
 40
-1.0
  9
$PLINEWID
 40
0.0
  9
$SPLFRAME
 70
     0
  9
$SPLINETYPE
 70
     6
  9
$SPLINESEGS
 70
     8
  9
$HANDSEED
  5
2C0
  9
$SURFTAB1
 70
     6
  9
$SURFTAB2
 70
     6
  9
$SURFTYPE
 70
     6
  9
$SURFU
 70
     6
  9
$SURFV
 70
     6
  9
$UCSBASE
  2

  9
$UCSNAME
  2

  9
$UCSORG
 10
0.0
 20
0.0
 30
0.0
  9
$UCSXDIR
 10
1.0
 20
0.0
 30
0.0
  9
$UCSYDIR
 10
0.0
 20
1.0
 30
0.0
  9
$UCSORTHOREF
  2

  9
$UCSORTHOVIEW
 70
     0
  9
$UCSORGTOP
 10
0.0
 20
0.0
 30
0.0
  9
$UCSORGBOTTOM
 10
0.0
 20
0.0
 30
0.0
  9
$UCSORGLEFT
 10
0.0
 20
0.0
 30
0.0
  9
$UCSORGRIGHT
 10
0.0
 20
0.0
 30
0.0
  9
$UCSORGFRONT
 10
0.0
 20
0.0
 30
0.0
  9
$UCSORGBACK
 10
0.0
 20
0.0
 30
0.0
  9
$PUCSBASE
  2

  9
$PUCSNAME
  2

  9
$PUCSORG
 10
0.0
 20
0.0
 30
0.0
  9
$PUCSXDIR
 10
1.0
 20
0.0
 30
0.0
  9
$PUCSYDIR
 10
0.0
 20
1.0
 30
0.0
  9
$PUCSORTHOREF
  2

  9
$PUCSORTHOVIEW
 70
     0
  9
$PUCSORGTOP
 10
0.0
 20
0.0
 30
0.0
  9
$PUCSORGBOTTOM
 10
0.0
 20
0.0
 30
0.0
  9
$PUCSORGLEFT
 10
0.0
 20
0.0
 30
0.0
  9
$PUCSORGRIGHT
 10
0.0
 20
0.0
 30
0.0
  9
$PUCSORGFRONT
 10
0.0
 20
0.0
 30
0.0
  9
$PUCSORGBACK
 10
0.0
 20
0.0
 30
0.0
  9
$USERI1
 70
     0
  9
$USERI2
 70
     0
  9
$USERI3
 70
     0
  9
$USERI4
 70
     0
  9
$USERI5
 70
     0
  9
$USERR1
 40
0.0
  9
$USERR2
 40
0.0
  9
$USERR3
 40
0.0
  9
$USERR4
 40
0.0
  9
$USERR5
 40
0.0
  9
$WORLDVIEW
 70
     1
  9
$SHADEDGE
 70
     3
  9
$SHADEDIF
 70
    70
  9
$TILEMODE
 70
     1
  9
$MAXACTVP
 70
    64
  9
$PINSBASE
 10
0.0
 20
0.0
 30
0.0
  9
$PLIMCHECK
 70
     0
  9
$PEXTMIN
 10
1.0000000000E+20
 20
1.0000000000E+20
 30
1.0000000000E+20
  9
$PEXTMAX
 10
-1.0000000000E+20
 20
-1.0000000000E+20
 30
-1.0000000000E+20
  9
$PLIMMIN
 10
0.0
 20
0.0
  9
$PLIMMAX
 10
12.0
 20
9.0
  9
$UNITMODE
 70
     0
  9
$VISRETAIN
 70
     1
  9
$PLINEGEN
 70
     0
  9
$PSLTSCALE
 70
     1
  9
$TREEDEPTH
 70
  3020
  9
$CMLSTYLE
  2
Standard
  9
$CMLJUST
 70
     0
  9
$CMLSCALE
 40
1.0
  9
$PROXYGRAPHICS
 70
     1
  9
$MEASUREMENT
 70
     0
  9
$CELWEIGHT
370
    -1
  9
$ENDCAPS
280
     0
  9
$JOINSTYLE
280
     0
  9
$LWDISPLAY
290
     1
  9
$INSUNITS
 70
     1
  9
$HYPERLINKBASE
  1

  9
$STYLESHEET
  1

  9
$XEDIT
290
     1
  9
$CEPSNTYPE
380
     0
  9
$PSTYLEMODE
290
     1
  9
$FINGERPRINTGUID
  2
{ddc575bc-4cab-44c4-ace2-adb7307d087f}
  9
$VERSIONGUID
  2
{FAEB1C32-E019-11D5-929B-00C0DF256EC4}
  9
$EXTNAMES
290
     1
  9
$PSVPSCALE
 40
0.0
  9
$OLESTARTUP
290
     0
  0
ENDSEC
  0
SECTION
  2
CLASSES
  0
CLASS
  1
ACDBDICTIONARYWDFLT
  2
AcDbDictionaryWithDefault
  3
ObjectDBX Classes
 90
        0
280
     0
281
     0
  0
CLASS
  1
VISUALSTYLE
  2
AcDbVisualStyle
  3
ObjectDBX Classes
 90
     4095
280
     0
281
     0
  0
CLASS
  1
MATERIAL
  2
AcDbMaterial
  3
ObjectDBX Classes
 90
     1153
280
     0
281
     0
  0
CLASS
  1
SCALE
  2
AcDbScale
  3
ObjectDBX Classes
 90
     1153
280
     0
281
     0
  0
CLASS
  1
TABLESTYLE
  2
AcDbTableStyle
  3
ObjectDBX Classes
 90
     4095
280
     0
281
     0
  0
CLASS
  1
MLEADERSTYLE
  2
AcDbMLeaderStyle
  3
ACDB_MLEADERSTYLE_CLASS
 90
     4095
280
     0
281
     0
  0
CLASS
  1
SUN
  2
AcDbSun
  3
SCENEOE
 90
     1153
280
     0
281
     0
  0
CLASS
  1
ACDBPLACEHOLDER
  2
AcDbPlaceHolder
  3
ObjectDBX Classes
 90
        0
280
     0
281
     0
  0
CLASS
  1
LAYOUT
  2
AcDbLayout
  3
ObjectDBX Classes
 90
        0
280
     0
281
     0
  0
ENDSEC
  0
SECTION
  2
TABLES
  0
TABLE
  2
VPORT
  5
8
330
0
100
AcDbSymbolTable
 70
     1
  0
VPORT
  5
29
330
8
100
AcDbSymbolTableRecord
100
AcDbViewportTableRecord
  2
*Active
 70
     0
 10
0.0
 20
0.0
 11
1.0
 21
1.0
 12
22.0
 22
17.0
 13
0.0
 23
0.0
 14
0.5
 24
0.5
 15
0.5
 25
0.5
 16
0.0
 26
0.0
 36
1.0
 17
0.0
 27
0.0
 37
0.0
 40
34.0
 41
1.2941176471
 42
50.0
 43
0.0
 44
0.0
 50
0.0
 51
0.0
 71
     0
 72
  2000
 73
     1
 74
     3
 75
     0
 76
     0
 77
     0
 78
     0
281
     0
 65
     1
110
0.0
120
0.0
130
0.0
111
1.0
121
0.0
131
0.0
112
0.0
122
1.0
132
0.0
 79
     0
146
0.0
  0
ENDTAB
  0
TABLE
  2
LTYPE
  5
5
330
0
100
AcDbSymbolTable
 70
     6
  0
LTYPE
  5
14
330
5
100
AcDbSymbolTableRecord
100
AcDbLinetypeTableRecord
  2
ByBlock
 70
     0
  3

 72
    65
 73
     0
 40
0.0
  0
LTYPE
  5
15
330
5
100
AcDbSymbolTableRecord
100
AcDbLinetypeTableRecord
  2
ByLayer
 70
     0
  3

 72
    65
 73
     0
 40
0.0
  0
LTYPE
  5
16
330
5
100
AcDbSymbolTableRecord
100
AcDbLinetypeTableRecord
  2
Continuous
 70
     0
  3
Solid line
 72
    65
 73
     0
 40
0.0
  0
LTYPE
  5
5E
330
5
100
AcDbSymbolTableRecord
100
AcDbLinetypeTableRecord
  2
HIDDEN
 70
     0
  3
Hidden __ __ __ __ __ __ __ __ __ __ __ __ __ __
 72
    65
 73
     2
 40
0.075
 49
0.05
 74
     0
 49
-0.025
 74
     0
  0
LTYPE
  5
5F
330
5
100
AcDbSymbolTableRecord
100
AcDbLinetypeTableRecord
  2
PHANTOM
 70
     0
  3
Phantom ______  __  __  ______  __  __  ______
 72
    65
 73
     6
 40
0.5
 49
0.25
 74
     0
 49
-0.05
 74
     0
 49
0.05
 74
     0
 49
-0.05
 74
     0
 49
0.05
 74
     0
 49
-0.05
 74
     0
  0
LTYPE
  5
60
330
5
100
AcDbSymbolTableRecord
100
AcDbLinetypeTableRecord
  2
CENTER
 70
     0
  3
Center ____ _ ____ _ ____ _ ____ _ ____ _ ____
 72
    65
 73
     4
 40
0.4
 49
0.25
 74
     0
 49
-0.05
 74
     0
 49
0.05
 74
     0
 49
-0.05
 74
     0
  0
LTYPE
  5
61
330
5
100
AcDbSymbolTableRecord
100
AcDbLinetypeTableRecord
  2
CENTERX2
 70
     0
  3
Center (2x) ________  __  ________  __  _____
 72
    65
 73
     4
 40
0.8
 49
0.5
 74
     0
 49
-0.1
 74
     0
 49
0.1
 74
     0
 49
-0.1
 74
     0
  0
LTYPE
  5
62
330
5
100
AcDbSymbolTableRecord
100
AcDbLinetypeTableRecord
  2
DOT2
 70
     0
  3
Dot (.5x) ........................................
 72
    65
 73
     2
 40
0.025
 49
0.0
 74
     0
 49
-0.025
 74
     0
  0
ENDTAB
  0
TABLE
  2
LAYER
  5
2
330
0
100
AcDbSymbolTable
 70
     4
  0
LAYER
  5
10
330
2
100
AcDbSymbolTableRecord
100
AcDbLayerTableRecord
  2
0
 70
     0
 62
     7
  6
Continuous
370
    -3
390
F
  0
LAYER
  5
63
330
2
100
AcDbSymbolTableRecord
100
AcDbLayerTableRecord
  2
SLD-0
 70
     0
 62
   179
  6
Continuous
370
    -3
390
F
  0
LAYER
  5
64
330
2
100
AcDbSymbolTableRecord
100
AcDbLayerTableRecord
  2
LAYER_1
 70
     0
 62
     1
  6
Continuous
370
    -3
390
F
  0
LAYER
  5
65
330
2
100
AcDbSymbolTableRecord
100
AcDbLayerTableRecord
  2
CLIPPED-EAR-FATFACE-24AND5
 70
     0
 62
    30
  6
Continuous
370
    -3
390
F
  0
ENDTAB
  0
TABLE
  2
STYLE
  5
3
330
0
100
AcDbSymbolTable
 70
     1
  0
STYLE
  5
11
330
3
100
AcDbSymbolTableRecord
100
AcDbTextStyleTableRecord
  2
Standard
 70
     0
 40
0.0
 41
1.0
 50
0.0
 71
     0
 42
0.1377952756
  3
txt
  4

  0
ENDTAB
  0
TABLE
  2
VIEW
  5
6
330
0
100
AcDbSymbolTable
 70
     0
  0
ENDTAB
  0
TABLE
  2
UCS
  5
7
330
0
100
AcDbSymbolTable
 70
     0
  0
ENDTAB
  0
TABLE
  2
APPID
  5
9
330
0
100
AcDbSymbolTable
 70
     1
  0
APPID
  5
12
330
9
100
AcDbSymbolTableRecord
100
AcDbRegAppTableRecord
  2
ACAD
 70
     0
  0
ENDTAB
  0
TABLE
  2
DIMSTYLE
  5
A
330
0
100
AcDbSymbolTable
 70
     1
100
AcDbDimStyleTable
  0
DIMSTYLE
105
27
330
A
100
AcDbSymbolTableRecord
100
AcDbDimStyleTableRecord
  2
Standard
 70
     0
178
     0
340
11
  0
ENDTAB
  0
TABLE
  2
BLOCK_RECORD
  5
1
330
0
100
AcDbSymbolTable
 70
     1
  0
BLOCK_RECORD
  5
1F
330
1
100
AcDbSymbolTableRecord
100
AcDbBlockTableRecord
  2
*Model_Space
340
22
  0
BLOCK_RECORD
  5
1B
330
1
100
AcDbSymbolTableRecord
100
AcDbBlockTableRecord
  2
*Paper_Space
340
1E
  0
BLOCK_RECORD
  5
23
330
1
100
AcDbSymbolTableRecord
100
AcDbBlockTableRecord
  2
*Paper_Space0
340
26
  0
ENDTAB
  0
ENDSEC
  0
SECTION
  2
BLOCKS
  0
BLOCK
  5
20
330
1F
100
AcDbEntity
  8
0
100
AcDbBlockBegin
  2
*Model_Space
 70
     0
 10
0.0
 20
0.0
 30
0.0
  3
*Model_Space
  1

  0
ENDBLK
  5
21
330
1F
100
AcDbEntity
  8
0
100
AcDbBlockEnd
  0
BLOCK
  5
1C
330
1B
100
AcDbEntity
 67
     1
  8
0
100
AcDbBlockBegin
  2
*Paper_Space
 70
     0
 10
0.0
 20
0.0
 30
0.0
  3
*Paper_Space
  1

  0
ENDBLK
  5
1D
330
1B
100
AcDbEntity
 67
     1
  8
0
100
AcDbBlockEnd
  0
BLOCK
  5
24
330
23
100
AcDbEntity
  8
0
100
AcDbBlockBegin
  2
*Paper_Space0
 70
     0
 10
0.0
 20
0.0
 30
0.0
  3
*Paper_Space0
  1

  0
ENDBLK
  5
25
330
23
100
AcDbEntity
  8
0
100
AcDbBlockEnd
  0
ENDSEC
  0
SECTION
  2
ENTITIES
  0
LINE
  5
66
330
1F
100
AcDbEntity
  8
LAYER_1
100
AcDbLine
 10
-20.0
 20
-5.0
 30
0.0
 11
25.0
 21
-5.0
 31
0.0
  0
LINE
  5
67
330
1F
100
AcDbEntity
  8
LAYER_1
100
AcDbLine
 10
25.0
 20
-5.0
 30
0.0
 11
25.0
 21
30.0
 31
0.0
  0
LINE
  5
68
330
1F
100
AcDbEntity
  8
LAYER_1
100
AcDbLine
 10
25.0
 20
30.0
 30
0.0
 11
0.0
 21
30.0
 31
0.0
  0
LINE
  5
69
330
1F
100
AcDbEntity
  8
LAYER_1
100
AcDbLine
 10
0.0
 20
30.0
 30
0.0
 11
0.0
 21
17.22
 31
0.0
  0
LINE
  5
6A
330
1F
100
AcDbEntity
  8
LAYER_1
100
AcDbLine
 10
0.0
 20
17.22
 30
0.0
 11
0.0
 21
30.0
 31
0.0
  0
LINE
  5
6B
330
1F
100
AcDbEntity
  8
LAYER_1
100
AcDbLine
 10
0.0
 20
30.0
 30
0.0
 11
-20.0
 21
30.0
 31
0.0
  0
LINE
  5
6C
330
1F
100
AcDbEntity
  8
LAYER_1
100
AcDbLine
 10
-20.0
 20
30.0
 30
0.0
 11
-20.0
 21
-5.0
 31
0.0
  0
LINE
  5
6D
330
1F
100
AcDbEntity
  8
CLIPPED-EAR-FATFACE-24AND5
100
AcDbLine
 10
19.1343339007
 20
11.1837669525
 30
0.0
 11
19.1367705744
 21
11.2713531632
 31
0.0
  0
LINE
  5
6E
330
1F
100
AcDbEntity
  8
CLIPPED-EAR-FATFACE-24AND5
100
AcDbLine
 10
19.1367705744
 20
11.2713531632
 30
0.0
 11
19.1375827749
 21
11.3589454983
 31
0.0
  0
LINE
  5
6F
330
1F
100
AcDbEntity
  8
CLIPPED-EAR-FATFACE-24AND5
100
AcDbLine
 10
19.1375827749
 20
11.3589454983
 30
0.0
 11
19.1367705744
 21
11.4465378334
 31
0.0
  0
LINE
  5
70
330
1F
100
AcDbEntity
  8
CLIPPED-EAR-FATFACE-24AND5
100
AcDbLine
 10
19.1367705744
 20
11.4465378334
 30
0.0
 11
19.1343339007
 21
11.5341240441
 31
0.0
  0
LINE
  5
71
330
1F
100
AcDbEntity
  8
CLIPPED-EAR-FATFACE-24AND5
100
AcDbLine
 10
19.1343339007
 20
11.5341240441
 30
0.0
 11
19.1327995516
 21
11.5646484093
 31
0.0
  0
LINE
  5
72
330
1F
100
AcDbEntity
  8
CLIPPED-EAR-FATFACE-24AND5
100
AcDbLine
 10
19.1327995516
 20
11.5646484093
 30
0.0
 11
19.1304615477
 21
11.5951624103
 31
0.0
  0
LINE
  5
73
330
1F
100
AcDbEntity
  8
CLIPPED-EAR-FATFACE-24AND5
100
AcDbLine
 10
19.1304615477
 20
11.5951624103
 30
0.0
 11
19.1273202185
 21
11.625661746
 31
0.0
  0
LINE
  5
74
330
1F
100
AcDbEntity
  8
CLIPPED-EAR-FATFACE-24AND5
100
AcDbLine
 10
19.1273202185
 20
11.625661746
 30
0.0
 11
19.1233760068
 21
11.6561421174
 31
0.0
  0
LINE
  5
75
330
1F
100
AcDbEntity
  8
CLIPPED-EAR-FATFACE-24AND5
100
AcDbLine
 10
19.1233760068
 20
11.6561421174
 30
0.0
 11
19.1120564116
 21
11.7275956977
 31
0.0
  0
LINE
  5
76
330
1F
100
AcDbEntity
  8
CLIPPED-EAR-FATFACE-24AND5
100
AcDbLine
 10
19.1120564116
 20
11.7275956977
 30
0.0
 11
19.0984902952
 21
11.7989697087
 31
0.0
  0
LINE
  5
77
330
1F
100
AcDbEntity
  8
CLIPPED-EAR-FATFACE-24AND5
100
AcDbLine
 10
19.0984902952
 20
11.7989697087
 30
0.0
 11
19.0826803867
 21
11.8702497932
 31
0.0
  0
LINE
  5
78
330
1F
100
AcDbEntity
  8
CLIPPED-EAR-FATFACE-24AND5
100
AcDbLine
 10
19.0826803867
 20
11.8702497932
 30
0.0
 11
19.0646298662
 21
11.9414216128
 31
0.0
  0
LINE
  5
79
330
1F
100
AcDbEntity
  8
CLIPPED-EAR-FATFACE-24AND5
100
AcDbLine
 10
19.0646298662
 20
11.9414216128
 30
0.0
 11
19.0448306256
 21
12.0104042467
 31
0.0
  0
LINE
  5
7A
330
1F
100
AcDbEntity
  8
CLIPPED-EAR-FATFACE-24AND5
100
AcDbLine
 10
19.0448306256
 20
12.0104042467
 30
0.0
 11
19.0226636171
 21
12.0792403164
 31
0.0
  0
LINE
  5
7B
330
1F
100
AcDbEntity
  8
CLIPPED-EAR-FATFACE-24AND5
100
AcDbLine
 10
19.0226636171
 20
12.0792403164
 30
0.0
 11
18.9981341606
 21
12.1479133018
 31
0.0
  0
LINE
  5
7C
330
1F
100
AcDbEntity
  8
CLIPPED-EAR-FATFACE-24AND5
100
AcDbLine
 10
18.9981341606
 20
12.1479133018
 30
0.0
 11
18.9712481429
 21
12.2164067221
 31
0.0
  0
LINE
  5
7D
330
1F
100
AcDbEntity
  8
CLIPPED-EAR-FATFACE-24AND5
100
AcDbLine
 10
18.9712481429
 20
12.2164067221
 30
0.0
 11
18.9416583403
 21
12.2855708119
 31
0.0
  0
LINE
  5
7E
330
1F
100
AcDbEntity
  8
CLIPPED-EAR-FATFACE-24AND5
100
AcDbLine
 10
18.9416583403
 20
12.2855708119
 30
0.0
 11
18.9097288879
 21
12.3545230587
 31
0.0
  0
LINE
  5
7F
330
1F
100
AcDbEntity
  8
CLIPPED-EAR-FATFACE-24AND5
100
AcDbLine
 10
18.9097288879
 20
12.3545230587
 30
0.0
 11
18.8754672352
 21
12.423247375
 31
0.0
  0
LINE
  5
80
330
1F
100
AcDbEntity
  8
CLIPPED-EAR-FATFACE-24AND5
100
AcDbLine
 10
18.8754672352
 20
12.423247375
 30
0.0
 11
18.838881376
 21
12.4917277264
 31
0.0
  0
LINE
  5
81
330
1F
100
AcDbEntity
  8
CLIPPED-EAR-FATFACE-24AND5
100
AcDbLine
 10
18.838881376
 20
12.4917277264
 30
0.0
 11
18.7980379203
 21
12.5636890404
 31
0.0
  0
LINE
  5
82
330
1F
100
AcDbEntity
  8
CLIPPED-EAR-FATFACE-24AND5
100
AcDbLine
 10
18.7980379203
 20
12.5636890404
 30
0.0
 11
18.7551187531
 21
12.6354043584
 31
0.0
  0
LINE
  5
83
330
1F
100
AcDbEntity
  8
CLIPPED-EAR-FATFACE-24AND5
100
AcDbLine
 10
18.7551187531
 20
12.6354043584
 30
0.0
 11
18.7101311583
 21
12.7068615097
 31
0.0
  0
LINE
  5
84
330
1F
100
AcDbEntity
  8
CLIPPED-EAR-FATFACE-24AND5
100
AcDbLine
 10
18.7101311583
 20
12.7068615097
 30
0.0
 11
18.6630827705
 21
12.7780483676
 31
0.0
  0
LINE
  5
85
330
1F
100
AcDbEntity
  8
CLIPPED-EAR-FATFACE-24AND5
100
AcDbLine
 10
18.6630827705
 20
12.7780483676
 30
0.0
 11
18.5899696291
 21
12.8860960369
 31
0.0
  0
LINE
  5
86
330
1F
100
AcDbEntity
  8
CLIPPED-EAR-FATFACE-24AND5
100
AcDbLine
 10
18.5899696291
 20
12.8860960369
 30
0.0
 11
18.6492528631
 21
13.1041975676
 31
0.0
  0
LINE
  5
87
330
1F
100
AcDbEntity
  8
CLIPPED-EAR-FATFACE-24AND5
100
AcDbLine
 10
18.6492528631
 20
13.1041975676
 30
0.0
 11
18.7035475723
 21
13.3094079744
 31
0.0
  0
LINE
  5
88
330
1F
100
AcDbEntity
  8
CLIPPED-EAR-FATFACE-24AND5
100
AcDbLine
 10
18.7035475723
 20
13.3094079744
 30
0.0
 11
18.7549155105
 21
13.5147714955
 31
0.0
  0
LINE
  5
89
330
1F
100
AcDbEntity
  8
CLIPPED-EAR-FATFACE-24AND5
100
AcDbLine
 10
18.7549155105
 20
13.5147714955
 30
0.0
 11
18.7969058682
 21
13.6955074941
 31
0.0
  0
LINE
  5
8A
330
1F
100
AcDbEntity
  8
CLIPPED-EAR-FATFACE-24AND5
100
AcDbLine
 10
18.7969058682
 20
13.6955074941
 30
0.0
 11
18.8351118958
 21
13.8764140857
 31
0.0
  0
LINE
  5
8B
330
1F
100
AcDbEntity
  8
CLIPPED-EAR-FATFACE-24AND5
100
AcDbLine
 10
18.8351118958
 20
13.8764140857
 30
0.0
 11
18.8686877674
 21
14.053338819
 31
0.0
  0
LINE
  5
8C
330
1F
100
AcDbEntity
  8
CLIPPED-EAR-FATFACE-24AND5
100
AcDbLine
 10
18.8686877674
 20
14.053338819
 30
0.0
 11
18.898447918
 21
14.2304023351
 31
0.0
  0
LINE
  5
8D
330
1F
100
AcDbEntity
  8
CLIPPED-EAR-FATFACE-24AND5
100
AcDbLine
 10
18.898447918
 20
14.2304023351
 30
0.0
 11
18.9272387778
 21
14.423759462
 31
0.0
  0
LINE
  5
8E
330
1F
100
AcDbEntity
  8
CLIPPED-EAR-FATFACE-24AND5
100
AcDbLine
 10
18.9272387778
 20
14.423759462
 30
0.0
 11
18.9528201747
 21
14.6172082983
 31
0.0
  0
LINE
  5
8F
330
1F
100
AcDbEntity
  8
CLIPPED-EAR-FATFACE-24AND5
100
AcDbLine
 10
18.9528201747
 20
14.6172082983
 30
0.0
 11
18.9549826708
 21
14.6359217875
 31
0.0
  0
LINE
  5
90
330
1F
100
AcDbEntity
  8
CLIPPED-EAR-FATFACE-24AND5
100
AcDbLine
 10
18.9549826708
 20
14.6359217875
 30
0.0
 11
18.9568334495
 21
14.6546420703
 31
0.0
  0
LINE
  5
91
330
1F
100
AcDbEntity
  8
CLIPPED-EAR-FATFACE-24AND5
100
AcDbLine
 10
18.9568334495
 20
14.6546420703
 30
0.0
 11
18.9583724065
 21
14.673368091
 31
0.0
  0
LINE
  5
92
330
1F
100
AcDbEntity
  8
CLIPPED-EAR-FATFACE-24AND5
100
AcDbLine
 10
18.9583724065
 20
14.673368091
 30
0.0
 11
18.9595994548
 21
14.6920987939
 31
0.0
  0
LINE
  5
93
330
1F
100
AcDbEntity
  8
CLIPPED-EAR-FATFACE-24AND5
100
AcDbLine
 10
18.9595994548
 20
14.6920987939
 30
0.0
 11
18.9637469777
 21
14.7678955781
 31
0.0
  0
LINE
  5
94
330
1F
100
AcDbEntity
  8
CLIPPED-EAR-FATFACE-24AND5
100
AcDbLine
 10
18.9637469777
 20
14.7678955781
 30
0.0
 11
18.9675226243
 21
14.8436963133
 31
0.0
  0
LINE
  5
95
330
1F
100
AcDbEntity
  8
CLIPPED-EAR-FATFACE-24AND5
100
AcDbLine
 10
18.9675226243
 20
14.8436963133
 30
0.0
 11
18.9715170005
 21
14.9332849202
 31
0.0
  0
LINE
  5
96
330
1F
100
AcDbEntity
  8
CLIPPED-EAR-FATFACE-24AND5
100
AcDbLine
 10
18.9715170005
 20
14.9332849202
 30
0.0
 11
18.9750154028
 21
15.0228777431
 31
0.0
  0
LINE
  5
97
330
1F
100
AcDbEntity
  8
CLIPPED-EAR-FATFACE-24AND5
100
AcDbLine
 10
18.9750154028
 20
15.0228777431
 30
0.0
 11
18.97821043
 21
15.1171279848
 31
0.0
  0
LINE
  5
98
330
1F
100
AcDbEntity
  8
CLIPPED-EAR-FATFACE-24AND5
100
AcDbLine
 10
18.97821043
 20
15.1171279848
 30
0.0
 11
18.9809572642
 21
15.2113810983
 31
0.0
  0
LINE
  5
99
330
1F
100
AcDbEntity
  8
CLIPPED-EAR-FATFACE-24AND5
100
AcDbLine
 10
18.9809572642
 20
15.2113810983
 30
0.0
 11
18.9835020218
 21
15.3017084322
 31
0.0
  0
LINE
  5
9A
330
1F
100
AcDbEntity
  8
CLIPPED-EAR-FATFACE-24AND5
100
AcDbLine
 10
18.9835020218
 20
15.3017084322
 30
0.0
 11
18.9863012108
 21
15.392034236
 31
0.0
  0
LINE
  5
9B
330
1F
100
AcDbEntity
  8
CLIPPED-EAR-FATFACE-24AND5
100
AcDbLine
 10
18.9863012108
 20
15.392034236
 30
0.0
 11
18.9889812811
 21
15.4694255361
 31
0.0
  0
LINE
  5
9C
330
1F
100
AcDbEntity
  8
CLIPPED-EAR-FATFACE-24AND5
100
AcDbLine
 10
18.9889812811
 20
15.4694255361
 30
0.0
 11
18.9920067052
 21
15.5468142483
 31
0.0
  0
LINE
  5
9D
330
1F
100
AcDbEntity
  8
CLIPPED-EAR-FATFACE-24AND5
100
AcDbLine
 10
18.9920067052
 20
15.5468142483
 30
0.0
 11
18.9948517164
 21
15.6148898652
 31
0.0
  0
LINE
  5
9E
330
1F
100
AcDbEntity
  8
CLIPPED-EAR-FATFACE-24AND5
100
AcDbLine
 10
18.9948517164
 20
15.6148898652
 30
0.0
 11
18.9977604443
 21
15.6829649348
 31
0.0
  0
LINE
  5
9F
330
1F
100
AcDbEntity
  8
CLIPPED-EAR-FATFACE-24AND5
100
AcDbLine
 10
18.9977604443
 20
15.6829649348
 30
0.0
 11
18.9978717412
 21
15.684576199
 31
0.0
  0
LINE
  5
A0
330
1F
100
AcDbEntity
  8
CLIPPED-EAR-FATFACE-24AND5
100
AcDbLine
 10
18.9978717412
 20
15.684576199
 30
0.0
 11
18.9980663517
 21
15.6861858547
 31
0.0
  0
LINE
  5
A1
330
1F
100
AcDbEntity
  8
CLIPPED-EAR-FATFACE-24AND5
100
AcDbLine
 10
18.9980663517
 20
15.6861858547
 30
0.0
 11
18.99834417
 21
15.6877930264
 31
0.0
  0
LINE
  5
A2
330
1F
100
AcDbEntity
  8
CLIPPED-EAR-FATFACE-24AND5
100
AcDbLine
 10
18.99834417
 20
15.6877930264
 30
0.0
 11
18.998705045
 21
15.6893968396
 31
0.0
  0
LINE
  5
A3
330
1F
100
AcDbEntity
  8
CLIPPED-EAR-FATFACE-24AND5
100
AcDbLine
 10
18.998705045
 20
15.6893968396
 30
0.0
 11
18.9991487804
 21
15.6909964222
 31
0.0
  0
LINE
  5
A4
330
1F
100
AcDbEntity
  8
CLIPPED-EAR-FATFACE-24AND5
100
AcDbLine
 10
18.9991487804
 20
15.6909964222
 30
0.0
 11
18.9996751347
 21
15.6925909038
 31
0.0
  0
LINE
  5
A5
330
1F
100
AcDbEntity
  8
CLIPPED-EAR-FATFACE-24AND5
100
AcDbLine
 10
18.9996751347
 20
15.6925909038
 30
0.0
 11
19.0002838217
 21
15.6941794172
 31
0.0
  0
LINE
  5
A6
330
1F
100
AcDbEntity
  8
CLIPPED-EAR-FATFACE-24AND5
100
AcDbLine
 10
19.0002838217
 20
15.6941794172
 30
0.0
 11
19.0009745102
 21
15.6957610983
 31
0.0
  0
LINE
  5
A7
330
1F
100
AcDbEntity
  8
CLIPPED-EAR-FATFACE-24AND5
100
AcDbLine
 10
19.0009745102
 20
15.6957610983
 30
0.0
 11
19.0057310166
 21
15.7066637153
 31
0.0
  0
LINE
  5
A8
330
1F
100
AcDbEntity
  8
CLIPPED-EAR-FATFACE-24AND5
100
AcDbLine
 10
19.0057310166
 20
15.7066637153
 30
0.0
 11
19.0099137044
 21
15.7176140478
 31
0.0
  0
LINE
  5
A9
330
1F
100
AcDbEntity
  8
CLIPPED-EAR-FATFACE-24AND5
100
AcDbLine
 10
19.0099137044
 20
15.7176140478
 30
0.0
 11
19.0135202289
 21
15.7286059575
 31
0.0
  0
LINE
  5
AA
330
1F
100
AcDbEntity
  8
CLIPPED-EAR-FATFACE-24AND5
100
AcDbLine
 10
19.0135202289
 20
15.7286059575
 30
0.0
 11
19.0165485684
 21
15.7396332828
 31
0.0
  0
LINE
  5
AB
330
1F
100
AcDbEntity
  8
CLIPPED-EAR-FATFACE-24AND5
100
AcDbLine
 10
19.0165485684
 20
15.7396332828
 30
0.0
 11
19.0189970255
 21
15.750689842
 31
0.0
  0
LINE
  5
AC
330
1F
100
AcDbEntity
  8
CLIPPED-EAR-FATFACE-24AND5
100
AcDbLine
 10
19.0189970255
 20
15.750689842
 30
0.0
 11
19.0208642275
 21
15.7617694373
 31
0.0
  0
LINE
  5
AD
330
1F
100
AcDbEntity
  8
CLIPPED-EAR-FATFACE-24AND5
100
AcDbLine
 10
19.0208642275
 20
15.7617694373
 30
0.0
 11
19.0221491278
 21
15.7728658579
 31
0.0
  0
LINE
  5
AE
330
1F
100
AcDbEntity
  8
CLIPPED-EAR-FATFACE-24AND5
100
AcDbLine
 10
19.0221491278
 20
15.7728658579
 30
0.0
 11
19.022851006
 21
15.7839728835
 31
0.0
  0
LINE
  5
AF
330
1F
100
AcDbEntity
  8
CLIPPED-EAR-FATFACE-24AND5
100
AcDbLine
 10
19.022851006
 20
15.7839728835
 30
0.0
 11
19.0292953987
 21
15.9739266331
 31
0.0
  0
LINE
  5
B0
330
1F
100
AcDbEntity
  8
CLIPPED-EAR-FATFACE-24AND5
100
AcDbLine
 10
19.0292953987
 20
15.9739266331
 30
0.0
 11
19.0346013973
 21
16.1638875401
 31
0.0
  0
LINE
  5
B1
330
1F
100
AcDbEntity
  8
CLIPPED-EAR-FATFACE-24AND5
100
AcDbLine
 10
19.0346013973
 20
16.1638875401
 30
0.0
 11
19.0380920422
 21
16.3454064242
 31
0.0
  0
LINE
  5
B2
330
1F
100
AcDbEntity
  8
CLIPPED-EAR-FATFACE-24AND5
100
AcDbLine
 10
19.0380920422
 20
16.3454064242
 30
0.0
 11
19.039511687
 21
16.5269310024
 31
0.0
  0
LINE
  5
B3
330
1F
100
AcDbEntity
  8
CLIPPED-EAR-FATFACE-24AND5
100
AcDbLine
 10
19.039511687
 20
16.5269310024
 30
0.0
 11
19.038753065
 21
16.5723273652
 31
0.0
  0
LINE
  5
B4
330
1F
100
AcDbEntity
  8
CLIPPED-EAR-FATFACE-24AND5
100
AcDbLine
 10
19.038753065
 20
16.5723273652
 30
0.0
 11
19.036285338
 21
16.6177113804
 31
0.0
  0
LINE
  5
B5
330
1F
100
AcDbEntity
  8
CLIPPED-EAR-FATFACE-24AND5
100
AcDbLine
 10
19.036285338
 20
16.6177113804
 30
0.0
 11
19.0321092173
 21
16.6630699686
 31
0.0
  0
LINE
  5
B6
330
1F
100
AcDbEntity
  8
CLIPPED-EAR-FATFACE-24AND5
100
AcDbLine
 10
19.0321092173
 20
16.6630699686
 30
0.0
 11
19.0262259063
 21
16.708390058
 31
0.0
  0
LINE
  5
B7
330
1F
100
AcDbEntity
  8
CLIPPED-EAR-FATFACE-24AND5
100
AcDbLine
 10
19.0262259063
 20
16.708390058
 30
0.0
 11
19.0163402081
 21
16.7748634242
 31
0.0
  0
LINE
  5
B8
330
1F
100
AcDbEntity
  8
CLIPPED-EAR-FATFACE-24AND5
100
AcDbLine
 10
19.0163402081
 20
16.7748634242
 30
0.0
 11
16.9075228504
 21
17.232690073
 31
0.0
  0
LINE
  5
B9
330
1F
100
AcDbEntity
  8
CLIPPED-EAR-FATFACE-24AND5
100
AcDbLine
 10
16.8807230981
 20
17.1092464447
 30
0.0
 11
16.8810642344
 21
17.1091570631
 31
0.0
  0
LINE
  5
BA
330
1F
100
AcDbEntity
  8
CLIPPED-EAR-FATFACE-24AND5
100
AcDbLine
 10
16.8810642344
 20
17.1091570631
 30
0.0
 11
16.8813829113
 21
17.1090521752
 31
0.0
  0
LINE
  5
BB
330
1F
100
AcDbEntity
  8
CLIPPED-EAR-FATFACE-24AND5
100
AcDbLine
 10
16.8813829113
 20
17.1090521752
 30
0.0
 11
16.8816756748
 21
17.1089329176
 31
0.0
  0
LINE
  5
BC
330
1F
100
AcDbEntity
  8
CLIPPED-EAR-FATFACE-24AND5
100
AcDbLine
 10
16.8816756748
 20
17.1089329176
 30
0.0
 11
16.881939352
 21
17.108800583
 31
0.0
  0
LINE
  5
BD
330
1F
100
AcDbEntity
  8
CLIPPED-EAR-FATFACE-24AND5
100
AcDbLine
 10
16.881939352
 20
17.108800583
 30
0.0
 11
16.8821710849
 21
17.1086566057
 31
0.0
  0
LINE
  5
BE
330
1F
100
AcDbEntity
  8
CLIPPED-EAR-FATFACE-24AND5
100
AcDbLine
 10
16.8821710849
 20
17.1086566057
 30
0.0
 11
16.8823683619
 21
17.1085025462
 31
0.0
  0
LINE
  5
BF
330
1F
100
AcDbEntity
  8
CLIPPED-EAR-FATFACE-24AND5
100
AcDbLine
 10
16.8823683619
 20
17.1085025462
 30
0.0
 11
16.8825290449
 21
17.1083400741
 31
0.0
  0
LINE
  5
C0
330
1F
100
AcDbEntity
  8
CLIPPED-EAR-FATFACE-24AND5
100
AcDbLine
 10
16.8825290449
 20
17.1083400741
 30
0.0
 11
16.8826513924
 21
17.1081709505
 31
0.0
  0
LINE
  5
C1
330
1F
100
AcDbEntity
  8
CLIPPED-EAR-FATFACE-24AND5
100
AcDbLine
 10
16.8826513924
 20
17.1081709505
 30
0.0
 11
16.8827340782
 21
17.1079970084
 31
0.0
  0
LINE
  5
C2
330
1F
100
AcDbEntity
  8
CLIPPED-EAR-FATFACE-24AND5
100
AcDbLine
 10
16.8827340782
 20
17.1079970084
 30
0.0
 11
16.8827762062
 21
17.107820133
 31
0.0
  0
LINE
  5
C3
330
1F
100
AcDbEntity
  8
CLIPPED-EAR-FATFACE-24AND5
100
AcDbLine
 10
16.8827762062
 20
17.107820133
 30
0.0
 11
16.8844573863
 21
17.0934646484
 31
0.0
  0
LINE
  5
C4
330
1F
100
AcDbEntity
  8
CLIPPED-EAR-FATFACE-24AND5
100
AcDbLine
 10
16.8844573863
 20
17.0934646484
 30
0.0
 11
16.8860018319
 21
17.0791060414
 31
0.0
  0
LINE
  5
C5
330
1F
100
AcDbEntity
  8
CLIPPED-EAR-FATFACE-24AND5
100
AcDbLine
 10
16.8860018319
 20
17.0791060414
 30
0.0
 11
16.8867996339
 21
17.0706810965
 31
0.0
  0
LINE
  5
C6
330
1F
100
AcDbEntity
  8
CLIPPED-EAR-FATFACE-24AND5
100
AcDbLine
 10
16.8867996339
 20
17.0706810965
 30
0.0
 11
16.8874613088
 21
17.0622537551
 31
0.0
  0
LINE
  5
C7
330
1F
100
AcDbEntity
  8
CLIPPED-EAR-FATFACE-24AND5
100
AcDbLine
 10
16.8874613088
 20
17.0622537551
 30
0.0
 11
16.8879868215
 21
17.0538244643
 31
0.0
  0
LINE
  5
C8
330
1F
100
AcDbEntity
  8
CLIPPED-EAR-FATFACE-24AND5
100
AcDbLine
 10
16.8879868215
 20
17.0538244643
 30
0.0
 11
16.8883761442
 21
17.0453936713
 31
0.0
  0
LINE
  5
C9
330
1F
100
AcDbEntity
  8
CLIPPED-EAR-FATFACE-24AND5
100
AcDbLine
 10
16.8883761442
 20
17.0453936713
 30
0.0
 11
16.8889487895
 21
17.0252984257
 31
0.0
  0
LINE
  5
CA
330
1F
100
AcDbEntity
  8
CLIPPED-EAR-FATFACE-24AND5
100
AcDbLine
 10
16.8889487895
 20
17.0252984257
 30
0.0
 11
16.8891357098
 21
17.0052016983
 31
0.0
  0
LINE
  5
CB
330
1F
100
AcDbEntity
  8
CLIPPED-EAR-FATFACE-24AND5
100
AcDbLine
 10
16.8891357098
 20
17.0052016983
 30
0.0
 11
16.8893654758
 21
16.9665371341
 31
0.0
  0
LINE
  5
CC
330
1F
100
AcDbEntity
  8
CLIPPED-EAR-FATFACE-24AND5
100
AcDbLine
 10
16.8893654758
 20
16.9665371341
 30
0.0
 11
16.8900775248
 21
16.9278737639
 31
0.0
  0
LINE
  5
CD
330
1F
100
AcDbEntity
  8
CLIPPED-EAR-FATFACE-24AND5
100
AcDbLine
 10
16.8900775248
 20
16.9278737639
 30
0.0
 11
16.8949195024
 21
16.732483104
 31
0.0
  0
LINE
  5
CE
330
1F
100
AcDbEntity
  8
CLIPPED-EAR-FATFACE-24AND5
100
AcDbLine
 10
16.8949195024
 20
16.732483104
 30
0.0
 11
16.899810883
 21
16.5370926942
 31
0.0
  0
LINE
  5
CF
330
1F
100
AcDbEntity
  8
CLIPPED-EAR-FATFACE-24AND5
100
AcDbLine
 10
16.899810883
 20
16.5370926942
 30
0.0
 11
16.9056216637
 21
16.3088376319
 31
0.0
  0
LINE
  5
D0
330
1F
100
AcDbEntity
  8
CLIPPED-EAR-FATFACE-24AND5
100
AcDbLine
 10
16.9056216637
 20
16.3088376319
 30
0.0
 11
16.9115681213
 21
16.08058328
 31
0.0
  0
LINE
  5
D1
330
1F
100
AcDbEntity
  8
CLIPPED-EAR-FATFACE-24AND5
100
AcDbLine
 10
16.9115681213
 20
16.08058328
 30
0.0
 11
16.9184921979
 21
15.8197985206
 31
0.0
  0
LINE
  5
D2
330
1F
100
AcDbEntity
  8
CLIPPED-EAR-FATFACE-24AND5
100
AcDbLine
 10
16.9184921979
 20
15.8197985206
 30
0.0
 11
16.9255203877
 21
15.5590143274
 31
0.0
  0
LINE
  5
D3
330
1F
100
AcDbEntity
  8
CLIPPED-EAR-FATFACE-24AND5
100
AcDbLine
 10
16.9255203877
 20
15.5590143274
 30
0.0
 11
16.9324518902
 21
15.2999607111
 31
0.0
  0
LINE
  5
D4
330
1F
100
AcDbEntity
  8
CLIPPED-EAR-FATFACE-24AND5
100
AcDbLine
 10
16.9324518902
 20
15.2999607111
 30
0.0
 11
16.9391788464
 21
15.0409059986
 31
0.0
  0
LINE
  5
D5
330
1F
100
AcDbEntity
  8
CLIPPED-EAR-FATFACE-24AND5
100
AcDbLine
 10
16.9391788464
 20
15.0409059986
 30
0.0
 11
16.9447365181
 21
14.8181993514
 31
0.0
  0
LINE
  5
D6
330
1F
100
AcDbEntity
  8
CLIPPED-EAR-FATFACE-24AND5
100
AcDbLine
 10
16.9447365181
 20
14.8181993514
 30
0.0
 11
16.9500185639
 21
14.5954913406
 31
0.0
  0
LINE
  5
D7
330
1F
100
AcDbEntity
  8
CLIPPED-EAR-FATFACE-24AND5
100
AcDbLine
 10
16.9500185639
 20
14.5954913406
 30
0.0
 11
16.9544943501
 21
14.4004678858
 31
0.0
  0
LINE
  5
D8
330
1F
100
AcDbEntity
  8
CLIPPED-EAR-FATFACE-24AND5
100
AcDbLine
 10
16.9544943501
 20
14.4004678858
 30
0.0
 11
16.958911309
 21
14.2054441583
 31
0.0
  0
LINE
  5
D9
330
1F
100
AcDbEntity
  8
CLIPPED-EAR-FATFACE-24AND5
100
AcDbLine
 10
16.958911309
 20
14.2054441583
 30
0.0
 11
16.959022397
 21
14.1946759687
 31
0.0
  0
LINE
  5
DA
330
1F
100
AcDbEntity
  8
CLIPPED-EAR-FATFACE-24AND5
100
AcDbLine
 10
16.959022397
 20
14.1946759687
 30
0.0
 11
16.9588710884
 21
14.1839078786
 31
0.0
  0
LINE
  5
DB
330
1F
100
AcDbEntity
  8
CLIPPED-EAR-FATFACE-24AND5
100
AcDbLine
 10
16.9588710884
 20
14.1839078786
 30
0.0
 11
16.9584574014
 21
14.173141188
 31
0.0
  0
LINE
  5
DC
330
1F
100
AcDbEntity
  8
CLIPPED-EAR-FATFACE-24AND5
100
AcDbLine
 10
16.9584574014
 20
14.173141188
 30
0.0
 11
16.957781386
 21
14.1623771963
 31
0.0
  0
LINE
  5
DD
330
1F
100
AcDbEntity
  8
CLIPPED-EAR-FATFACE-24AND5
100
AcDbLine
 10
16.957781386
 20
14.1623771963
 30
0.0
 11
16.9536266081
 21
14.1069784361
 31
0.0
  0
LINE
  5
DE
330
1F
100
AcDbEntity
  8
CLIPPED-EAR-FATFACE-24AND5
100
AcDbLine
 10
16.9536266081
 20
14.1069784361
 30
0.0
 11
13.683550744
 21
15.2541893046
 31
0.0
  0
LINE
  5
DF
330
1F
100
AcDbEntity
  8
CLIPPED-EAR-FATFACE-24AND5
100
AcDbLine
 10
13.683550744
 20
15.2541893046
 30
0.0
 11
13.0567448391
 21
15.4741935093
 31
0.0
  0
LINE
  5
E0
330
1F
100
AcDbEntity
  8
CLIPPED-EAR-FATFACE-24AND5
100
AcDbLine
 10
13.0567448391
 20
15.4741935093
 30
0.0
 11
12.4301712732
 21
15.6943322096
 31
0.0
  0
LINE
  5
E1
330
1F
100
AcDbEntity
  8
CLIPPED-EAR-FATFACE-24AND5
100
AcDbLine
 10
12.4301712732
 20
15.6943322096
 30
0.0
 11
11.9030520028
 21
15.879771233
 31
0.0
  0
LINE
  5
E2
330
1F
100
AcDbEntity
  8
CLIPPED-EAR-FATFACE-24AND5
100
AcDbLine
 10
11.9030520028
 20
15.879771233
 30
0.0
 11
11.3762586427
 21
16.0653984256
 31
0.0
  0
LINE
  5
E3
330
1F
100
AcDbEntity
  8
CLIPPED-EAR-FATFACE-24AND5
100
AcDbLine
 10
11.3762586427
 20
16.0653984256
 30
0.0
 11
10.8987827055
 21
16.2337875975
 31
0.0
  0
LINE
  5
E4
330
1F
100
AcDbEntity
  8
CLIPPED-EAR-FATFACE-24AND5
100
AcDbLine
 10
10.8987827055
 20
16.2337875975
 30
0.0
 11
10.4213112434
 21
16.4021793468
 31
0.0
  0
LINE
  5
E5
330
1F
100
AcDbEntity
  8
CLIPPED-EAR-FATFACE-24AND5
100
AcDbLine
 10
10.4213112434
 20
16.4021793468
 30
0.0
 11
10.4210041883
 21
16.4022999616
 31
0.0
  0
LINE
  5
E6
330
1F
100
AcDbEntity
  8
CLIPPED-EAR-FATFACE-24AND5
100
AcDbLine
 10
10.4210041883
 20
16.4022999616
 30
0.0
 11
10.4207270931
 21
16.4024345185
 31
0.0
  0
LINE
  5
E7
330
1F
100
AcDbEntity
  8
CLIPPED-EAR-FATFACE-24AND5
100
AcDbLine
 10
10.4207270931
 20
16.4024345185
 30
0.0
 11
10.420483055
 21
16.4025815135
 31
0.0
  0
LINE
  5
E8
330
1F
100
AcDbEntity
  8
CLIPPED-EAR-FATFACE-24AND5
100
AcDbLine
 10
10.420483055
 20
16.4025815135
 30
0.0
 11
10.4202748018
 21
16.4027393034
 31
0.0
  0
LINE
  5
E9
330
1F
100
AcDbEntity
  8
CLIPPED-EAR-FATFACE-24AND5
100
AcDbLine
 10
10.4202748018
 20
16.4027393034
 30
0.0
 11
10.4201046612
 21
16.4029061246
 31
0.0
  0
LINE
  5
EA
330
1F
100
AcDbEntity
  8
CLIPPED-EAR-FATFACE-24AND5
100
AcDbLine
 10
10.4201046612
 20
16.4029061246
 30
0.0
 11
10.4199745352
 21
16.4030801123
 31
0.0
  0
LINE
  5
EB
330
1F
100
AcDbEntity
  8
CLIPPED-EAR-FATFACE-24AND5
100
AcDbLine
 10
10.4199745352
 20
16.4030801123
 30
0.0
 11
10.4198858782
 21
16.4032593218
 31
0.0
  0
LINE
  5
EC
330
1F
100
AcDbEntity
  8
CLIPPED-EAR-FATFACE-24AND5
100
AcDbLine
 10
10.4198858782
 20
16.4032593218
 30
0.0
 11
10.4198396811
 21
16.4034417499
 31
0.0
  0
LINE
  5
ED
330
1F
100
AcDbEntity
  8
CLIPPED-EAR-FATFACE-24AND5
100
AcDbLine
 10
10.4198396811
 20
16.4034417499
 30
0.0
 11
10.4198364605
 21
16.4036253574
 31
0.0
  0
LINE
  5
EE
330
1F
100
AcDbEntity
  8
CLIPPED-EAR-FATFACE-24AND5
100
AcDbLine
 10
10.4198364605
 20
16.4036253574
 30
0.0
 11
10.4198762522
 21
16.4038080921
 31
0.0
  0
LINE
  5
EF
330
1F
100
AcDbEntity
  8
CLIPPED-EAR-FATFACE-24AND5
100
AcDbLine
 10
10.4198762522
 20
16.4038080921
 30
0.0
 11
10.4199586115
 21
16.4039879114
 31
0.0
  0
LINE
  5
F0
330
1F
100
AcDbEntity
  8
CLIPPED-EAR-FATFACE-24AND5
100
AcDbLine
 10
10.4199586115
 20
16.4039879114
 30
0.0
 11
10.4200826178
 21
16.4041628053
 31
0.0
  0
LINE
  5
F1
330
1F
100
AcDbEntity
  8
CLIPPED-EAR-FATFACE-24AND5
100
AcDbLine
 10
10.4200826178
 20
16.4041628053
 30
0.0
 11
10.420246885
 21
16.4043308189
 31
0.0
  0
LINE
  5
F2
330
1F
100
AcDbEntity
  8
CLIPPED-EAR-FATFACE-24AND5
100
AcDbLine
 10
10.420246885
 20
16.4043308189
 30
0.0
 11
10.4204495769
 21
16.4044900742
 31
0.0
  0
LINE
  5
F3
330
1F
100
AcDbEntity
  8
CLIPPED-EAR-FATFACE-24AND5
100
AcDbLine
 10
10.4204495769
 20
16.4044900742
 30
0.0
 11
10.4206884279
 21
16.404638791
 31
0.0
  0
LINE
  5
F4
330
1F
100
AcDbEntity
  8
CLIPPED-EAR-FATFACE-24AND5
100
AcDbLine
 10
10.4206884279
 20
16.404638791
 30
0.0
 11
10.4209607683
 21
16.4047753071
 31
0.0
  0
LINE
  5
F5
330
1F
100
AcDbEntity
  8
CLIPPED-EAR-FATFACE-24AND5
100
AcDbLine
 10
10.4209607683
 20
16.4047753071
 30
0.0
 11
10.4217350423
 21
16.4051013156
 31
0.0
  0
LINE
  5
F6
330
1F
100
AcDbEntity
  8
CLIPPED-EAR-FATFACE-24AND5
100
AcDbLine
 10
10.4217350423
 20
16.4051013156
 30
0.0
 11
10.4225569043
 21
16.4054027139
 31
0.0
  0
LINE
  5
F7
330
1F
100
AcDbEntity
  8
CLIPPED-EAR-FATFACE-24AND5
100
AcDbLine
 10
10.4225569043
 20
16.4054027139
 30
0.0
 11
10.4234225141
 21
16.4056780938
 31
0.0
  0
LINE
  5
F8
330
1F
100
AcDbEntity
  8
CLIPPED-EAR-FATFACE-24AND5
100
AcDbLine
 10
10.4234225141
 20
16.4056780938
 30
0.0
 11
10.4243278273
 21
16.4059261685
 31
0.0
  0
LINE
  5
F9
330
1F
100
AcDbEntity
  8
CLIPPED-EAR-FATFACE-24AND5
100
AcDbLine
 10
10.4243278273
 20
16.4059261685
 30
0.0
 11
10.4252686138
 21
16.406145779
 31
0.0
  0
LINE
  5
FA
330
1F
100
AcDbEntity
  8
CLIPPED-EAR-FATFACE-24AND5
100
AcDbLine
 10
10.4252686138
 20
16.406145779
 30
0.0
 11
10.4262404778
 21
16.406335899
 31
0.0
  0
LINE
  5
FB
330
1F
100
AcDbEntity
  8
CLIPPED-EAR-FATFACE-24AND5
100
AcDbLine
 10
10.4262404778
 20
16.406335899
 30
0.0
 11
10.4272388783
 21
16.4064956404
 31
0.0
  0
LINE
  5
FC
330
1F
100
AcDbEntity
  8
CLIPPED-EAR-FATFACE-24AND5
100
AcDbLine
 10
10.4272388783
 20
16.4064956404
 30
0.0
 11
10.4282591503
 21
16.4066242566
 31
0.0
  0
LINE
  5
FD
330
1F
100
AcDbEntity
  8
CLIPPED-EAR-FATFACE-24AND5
100
AcDbLine
 10
10.4282591503
 20
16.4066242566
 30
0.0
 11
10.9001340503
 21
16.4583378944
 31
0.0
  0
LINE
  5
FE
330
1F
100
AcDbEntity
  8
CLIPPED-EAR-FATFACE-24AND5
100
AcDbLine
 10
10.9001340503
 20
16.4583378944
 30
0.0
 11
11.3720100972
 21
16.5100494036
 31
0.0
  0
LINE
  5
FF
330
1F
100
AcDbEntity
  8
CLIPPED-EAR-FATFACE-24AND5
100
AcDbLine
 10
11.3720100972
 20
16.5100494036
 30
0.0
 11
11.8924688761
 21
16.5670190212
 31
0.0
  0
LINE
  5
100
330
1F
100
AcDbEntity
  8
CLIPPED-EAR-FATFACE-24AND5
100
AcDbLine
 10
11.8924688761
 20
16.5670190212
 30
0.0
 11
12.4129930373
 21
16.6238670785
 31
0.0
  0
LINE
  5
101
330
1F
100
AcDbEntity
  8
CLIPPED-EAR-FATFACE-24AND5
100
AcDbLine
 10
12.4129930373
 20
16.6238670785
 30
0.0
 11
13.0305049579
 21
16.691184795
 31
0.0
  0
LINE
  5
102
330
1F
100
AcDbEntity
  8
CLIPPED-EAR-FATFACE-24AND5
100
AcDbLine
 10
13.0305049579
 20
16.691184795
 30
0.0
 11
13.6480634324
 21
16.7584156425
 31
0.0
  0
LINE
  5
103
330
1F
100
AcDbEntity
  8
CLIPPED-EAR-FATFACE-24AND5
100
AcDbLine
 10
13.6480634324
 20
16.7584156425
 30
0.0
 11
14.2657086493
 21
16.8256019263
 31
0.0
  0
LINE
  5
104
330
1F
100
AcDbEntity
  8
CLIPPED-EAR-FATFACE-24AND5
100
AcDbLine
 10
14.2657086493
 20
16.8256019263
 30
0.0
 11
14.8833616142
 21
16.892773729
 31
0.0
  0
LINE
  5
105
330
1F
100
AcDbEntity
  8
CLIPPED-EAR-FATFACE-24AND5
100
AcDbLine
 10
14.8833616142
 20
16.892773729
 30
0.0
 11
15.4042120936
 21
16.9494003594
 31
0.0
  0
LINE
  5
106
330
1F
100
AcDbEntity
  8
CLIPPED-EAR-FATFACE-24AND5
100
AcDbLine
 10
15.4042120936
 20
16.9494003594
 30
0.0
 11
15.9250736232
 21
17.0060063245
 31
0.0
  0
LINE
  5
107
330
1F
100
AcDbEntity
  8
CLIPPED-EAR-FATFACE-24AND5
100
AcDbLine
 10
15.9250736232
 20
17.0060063245
 30
0.0
 11
16.3973741345
 21
17.0573247341
 31
0.0
  0
LINE
  5
108
330
1F
100
AcDbEntity
  8
CLIPPED-EAR-FATFACE-24AND5
100
AcDbLine
 10
16.3973741345
 20
17.0573247341
 30
0.0
 11
16.8696748665
 21
17.10864272
 31
0.0
  0
LINE
  5
109
330
1F
100
AcDbEntity
  8
CLIPPED-EAR-FATFACE-24AND5
100
AcDbLine
 10
16.8696748665
 20
17.10864272
 30
0.0
 11
16.8740307726
 21
17.1090716092
 31
0.0
  0
LINE
  5
10A
330
1F
100
AcDbEntity
  8
CLIPPED-EAR-FATFACE-24AND5
100
AcDbLine
 10
16.8740307726
 20
17.1090716092
 30
0.0
 11
16.8784235081
 21
17.1094157711
 31
0.0
  0
LINE
  5
10B
330
1F
100
AcDbEntity
  8
CLIPPED-EAR-FATFACE-24AND5
100
AcDbLine
 10
16.8784235081
 20
17.1094157711
 30
0.0
 11
16.8788161517
 21
17.1094332654
 31
0.0
  0
LINE
  5
10C
330
1F
100
AcDbEntity
  8
CLIPPED-EAR-FATFACE-24AND5
100
AcDbLine
 10
16.8788161517
 20
17.1094332654
 30
0.0
 11
16.8792107015
 21
17.1094322596
 31
0.0
  0
LINE
  5
10D
330
1F
100
AcDbEntity
  8
CLIPPED-EAR-FATFACE-24AND5
100
AcDbLine
 10
16.8792107015
 20
17.1094322596
 30
0.0
 11
16.8796028812
 21
17.1094127648
 31
0.0
  0
LINE
  5
10E
330
1F
100
AcDbEntity
  8
CLIPPED-EAR-FATFACE-24AND5
100
AcDbLine
 10
16.8796028812
 20
17.1094127648
 30
0.0
 11
16.8799884403
 21
17.1093749921
 31
0.0
  0
LINE
  5
10F
330
1F
100
AcDbEntity
  8
CLIPPED-EAR-FATFACE-24AND5
100
AcDbLine
 10
16.8799884403
 20
17.1093749921
 30
0.0
 11
16.8803631998
 21
17.1093193511
 31
0.0
  0
LINE
  5
110
330
1F
100
AcDbEntity
  8
CLIPPED-EAR-FATFACE-24AND5
100
AcDbLine
 10
16.8803631998
 20
17.1093193511
 30
0.0
 11
16.8807230981
 21
17.1092464447
 31
0.0
  0
LINE
  5
111
330
1F
100
AcDbEntity
  8
CLIPPED-EAR-FATFACE-24AND5
100
AcDbLine
 10
16.9075228504
 20
17.232690073
 30
0.0
 11
14.3752346081
 21
17.7824527329
 31
0.0
  0
LINE
  5
112
330
1F
100
AcDbEntity
  8
CLIPPED-EAR-FATFACE-24AND5
100
AcDbLine
 10
14.3752346081
 20
17.7824527329
 30
0.0
 11
14.0959088081
 21
17.7525622244
 31
0.0
  0
LINE
  5
113
330
1F
100
AcDbEntity
  8
CLIPPED-EAR-FATFACE-24AND5
100
AcDbLine
 10
14.0959088081
 20
17.7525622244
 30
0.0
 11
14.0318088471
 21
17.745637159
 31
0.0
  0
LINE
  5
114
330
1F
100
AcDbEntity
  8
CLIPPED-EAR-FATFACE-24AND5
100
AcDbLine
 10
14.0318088471
 20
17.745637159
 30
0.0
 11
13.9677756177
 21
17.7385877128
 31
0.0
  0
LINE
  5
115
330
1F
100
AcDbEntity
  8
CLIPPED-EAR-FATFACE-24AND5
100
AcDbLine
 10
13.9677756177
 20
17.7385877128
 30
0.0
 11
13.8900520234
 21
17.7299061217
 31
0.0
  0
LINE
  5
116
330
1F
100
AcDbEntity
  8
CLIPPED-EAR-FATFACE-24AND5
100
AcDbLine
 10
13.8900520234
 20
17.7299061217
 30
0.0
 11
13.8123752156
 21
17.7211398221
 31
0.0
  0
LINE
  5
117
330
1F
100
AcDbEntity
  8
CLIPPED-EAR-FATFACE-24AND5
100
AcDbLine
 10
13.8123752156
 20
17.7211398221
 30
0.0
 11
13.7339762634
 21
17.7122012319
 31
0.0
  0
LINE
  5
118
330
1F
100
AcDbEntity
  8
CLIPPED-EAR-FATFACE-24AND5
100
AcDbLine
 10
13.7339762634
 20
17.7122012319
 30
0.0
 11
13.6556253978
 21
17.703177339
 31
0.0
  0
LINE
  5
119
330
1F
100
AcDbEntity
  8
CLIPPED-EAR-FATFACE-24AND5
100
AcDbLine
 10
13.6556253978
 20
17.703177339
 30
0.0
 11
13.5892449805
 21
17.6954307566
 31
0.0
  0
LINE
  5
11A
330
1F
100
AcDbEntity
  8
CLIPPED-EAR-FATFACE-24AND5
100
AcDbLine
 10
13.5892449805
 20
17.6954307566
 30
0.0
 11
13.5229328081
 21
17.687566256
 31
0.0
  0
LINE
  5
11B
330
1F
100
AcDbEntity
  8
CLIPPED-EAR-FATFACE-24AND5
100
AcDbLine
 10
13.5229328081
 20
17.687566256
 30
0.0
 11
13.364332196
 21
17.6687396742
 31
0.0
  0
LINE
  5
11C
330
1F
100
AcDbEntity
  8
CLIPPED-EAR-FATFACE-24AND5
100
AcDbLine
 10
13.364332196
 20
17.6687396742
 30
0.0
 11
13.2055863262
 21
17.6501636272
 31
0.0
  0
LINE
  5
11D
330
1F
100
AcDbEntity
  8
CLIPPED-EAR-FATFACE-24AND5
100
AcDbLine
 10
13.2055863262
 20
17.6501636272
 30
0.0
 11
13.0988690144
 21
17.6380480143
 31
0.0
  0
LINE
  5
11E
330
1F
100
AcDbEntity
  8
CLIPPED-EAR-FATFACE-24AND5
100
AcDbLine
 10
13.0988690144
 20
17.6380480143
 30
0.0
 11
12.9918620668
 21
17.6264633465
 31
0.0
  0
LINE
  5
11F
330
1F
100
AcDbEntity
  8
CLIPPED-EAR-FATFACE-24AND5
100
AcDbLine
 10
12.9918620668
 20
17.6264633465
 30
0.0
 11
12.8975275131
 21
17.6168041885
 31
0.0
  0
LINE
  5
120
330
1F
100
AcDbEntity
  8
CLIPPED-EAR-FATFACE-24AND5
100
AcDbLine
 10
12.8975275131
 20
17.6168041885
 30
0.0
 11
12.8029090926
 21
17.6077269727
 31
0.0
  0
LINE
  5
121
330
1F
100
AcDbEntity
  8
CLIPPED-EAR-FATFACE-24AND5
100
AcDbLine
 10
12.8029090926
 20
17.6077269727
 30
0.0
 11
12.6903068253
 21
17.5975033096
 31
0.0
  0
LINE
  5
122
330
1F
100
AcDbEntity
  8
CLIPPED-EAR-FATFACE-24AND5
100
AcDbLine
 10
12.6903068253
 20
17.5975033096
 30
0.0
 11
12.5775224081
 21
17.5876962838
 31
0.0
  0
LINE
  5
123
330
1F
100
AcDbEntity
  8
CLIPPED-EAR-FATFACE-24AND5
100
AcDbLine
 10
12.5775224081
 20
17.5876962838
 30
0.0
 11
12.1071800576
 21
17.5450872136
 31
0.0
  0
LINE
  5
124
330
1F
100
AcDbEntity
  8
CLIPPED-EAR-FATFACE-24AND5
100
AcDbLine
 10
12.1071800576
 20
17.5450872136
 30
0.0
 11
11.639212914
 21
17.4974575879
 31
0.0
  0
LINE
  5
125
330
1F
100
AcDbEntity
  8
CLIPPED-EAR-FATFACE-24AND5
100
AcDbLine
 10
11.639212914
 20
17.4974575879
 30
0.0
 11
11.1295700757
 21
17.4405075665
 31
0.0
  0
LINE
  5
126
330
1F
100
AcDbEntity
  8
CLIPPED-EAR-FATFACE-24AND5
100
AcDbLine
 10
11.1295700757
 20
17.4405075665
 30
0.0
 11
10.6222991487
 21
17.3794041714
 31
0.0
  0
LINE
  5
127
330
1F
100
AcDbEntity
  8
CLIPPED-EAR-FATFACE-24AND5
100
AcDbLine
 10
10.6222991487
 20
17.3794041714
 30
0.0
 11
10.0300327532
 21
17.3032981056
 31
0.0
  0
LINE
  5
128
330
1F
100
AcDbEntity
  8
CLIPPED-EAR-FATFACE-24AND5
100
AcDbLine
 10
10.0300327532
 20
17.3032981056
 30
0.0
 11
9.4403715327
 21
17.2231852987
 31
0.0
  0
LINE
  5
129
330
1F
100
AcDbEntity
  8
CLIPPED-EAR-FATFACE-24AND5
100
AcDbLine
 10
9.4403715327
 20
17.2231852987
 30
0.0
 11
8.7140009022
 21
17.1203638094
 31
0.0
  0
LINE
  5
12A
330
1F
100
AcDbEntity
  8
CLIPPED-EAR-FATFACE-24AND5
100
AcDbLine
 10
8.7140009022
 20
17.1203638094
 30
0.0
 11
7.9894849142
 21
17.014915894
 31
0.0
  0
LINE
  5
12B
330
1F
100
AcDbEntity
  8
CLIPPED-EAR-FATFACE-24AND5
100
AcDbLine
 10
7.9894849142
 20
17.014915894
 30
0.0
 11
7.3478196345
 21
16.9202418467
 31
0.0
  0
LINE
  5
12C
330
1F
100
AcDbEntity
  8
CLIPPED-EAR-FATFACE-24AND5
100
AcDbLine
 10
7.3478196345
 20
16.9202418467
 30
0.0
 11
7.2016429142
 21
16.9318545343
 31
0.0
  0
LINE
  5
12D
330
1F
100
AcDbEntity
  8
CLIPPED-EAR-FATFACE-24AND5
100
AcDbLine
 10
7.2016429142
 20
16.9318545343
 30
0.0
 11
6.92684409
 21
16.9533085735
 31
0.0
  0
LINE
  5
12E
330
1F
100
AcDbEntity
  8
CLIPPED-EAR-FATFACE-24AND5
100
AcDbLine
 10
6.92684409
 20
16.9533085735
 30
0.0
 11
6.6517693065
 21
16.9740312511
 31
0.0
  0
LINE
  5
12F
330
1F
100
AcDbEntity
  8
CLIPPED-EAR-FATFACE-24AND5
100
AcDbLine
 10
6.6517693065
 20
16.9740312511
 30
0.0
 11
6.4368435518
 21
16.9893196616
 31
0.0
  0
LINE
  5
130
330
1F
100
AcDbEntity
  8
CLIPPED-EAR-FATFACE-24AND5
100
AcDbLine
 10
6.4368435518
 20
16.9893196616
 30
0.0
 11
6.2215184337
 21
17.0034195351
 31
0.0
  0
LINE
  5
131
330
1F
100
AcDbEntity
  8
CLIPPED-EAR-FATFACE-24AND5
100
AcDbLine
 10
6.2215184337
 20
17.0034195351
 30
0.0
 11
6.0240772563
 21
17.0151616178
 31
0.0
  0
LINE
  5
132
330
1F
100
AcDbEntity
  8
CLIPPED-EAR-FATFACE-24AND5
100
AcDbLine
 10
6.0240772563
 20
17.0151616178
 30
0.0
 11
5.8262931255
 21
17.0256650935
 31
0.0
  0
LINE
  5
133
330
1F
100
AcDbEntity
  8
CLIPPED-EAR-FATFACE-24AND5
100
AcDbLine
 10
5.8262931255
 20
17.0256650935
 30
0.0
 11
5.6086988319
 21
17.0360089595
 31
0.0
  0
LINE
  5
134
330
1F
100
AcDbEntity
  8
CLIPPED-EAR-FATFACE-24AND5
100
AcDbLine
 10
5.6086988319
 20
17.0360089595
 30
0.0
 11
5.3908758141
 21
17.0453229648
 31
0.0
  0
LINE
  5
135
330
1F
100
AcDbEntity
  8
CLIPPED-EAR-FATFACE-24AND5
100
AcDbLine
 10
5.3908758141
 20
17.0453229648
 30
0.0
 11
5.1712298217
 21
17.0538056414
 31
0.0
  0
LINE
  5
136
330
1F
100
AcDbEntity
  8
CLIPPED-EAR-FATFACE-24AND5
100
AcDbLine
 10
5.1712298217
 20
17.0538056414
 30
0.0
 11
4.9514450637
 21
17.0615231637
 31
0.0
  0
LINE
  5
137
330
1F
100
AcDbEntity
  8
CLIPPED-EAR-FATFACE-24AND5
100
AcDbLine
 10
4.9514450637
 20
17.0615231637
 30
0.0
 11
4.7866930189
 21
17.0663480199
 31
0.0
  0
LINE
  5
138
330
1F
100
AcDbEntity
  8
CLIPPED-EAR-FATFACE-24AND5
100
AcDbLine
 10
4.7866930189
 20
17.0663480199
 30
0.0
 11
4.6217750426
 21
17.0698350276
 31
0.0
  0
LINE
  5
139
330
1F
100
AcDbEntity
  8
CLIPPED-EAR-FATFACE-24AND5
100
AcDbLine
 10
4.6217750426
 20
17.0698350276
 30
0.0
 11
4.4397403491
 21
17.0723284013
 31
0.0
  0
LINE
  5
13A
330
1F
100
AcDbEntity
  8
CLIPPED-EAR-FATFACE-24AND5
100
AcDbLine
 10
4.4397403491
 20
17.0723284013
 30
0.0
 11
4.2576432367
 21
17.0735919628
 31
0.0
  0
LINE
  5
13B
330
1F
100
AcDbEntity
  8
CLIPPED-EAR-FATFACE-24AND5
100
AcDbLine
 10
4.2576432367
 20
17.0735919628
 30
0.0
 11
3.9662777937
 21
17.0743700509
 31
0.0
  0
LINE
  5
13C
330
1F
100
AcDbEntity
  8
CLIPPED-EAR-FATFACE-24AND5
100
AcDbLine
 10
3.9662777937
 20
17.0743700509
 30
0.0
 11
3.6749078081
 21
17.0746294983
 31
0.0
  0
LINE
  5
13D
330
1F
100
AcDbEntity
  8
CLIPPED-EAR-FATFACE-24AND5
100
AcDbLine
 10
3.6749078081
 20
17.0746294983
 30
0.0
 11
3.3835378225
 21
17.0743700509
 31
0.0
  0
LINE
  5
13E
330
1F
100
AcDbEntity
  8
CLIPPED-EAR-FATFACE-24AND5
100
AcDbLine
 10
3.3835378225
 20
17.0743700509
 30
0.0
 11
3.0921723795
 21
17.0735919628
 31
0.0
  0
LINE
  5
13F
330
1F
100
AcDbEntity
  8
CLIPPED-EAR-FATFACE-24AND5
100
AcDbLine
 10
3.0921723795
 20
17.0735919628
 30
0.0
 11
2.9100752671
 21
17.0723284013
 31
0.0
  0
LINE
  5
140
330
1F
100
AcDbEntity
  8
CLIPPED-EAR-FATFACE-24AND5
100
AcDbLine
 10
2.9100752671
 20
17.0723284013
 30
0.0
 11
2.7280405737
 21
17.0698350276
 31
0.0
  0
LINE
  5
141
330
1F
100
AcDbEntity
  8
CLIPPED-EAR-FATFACE-24AND5
100
AcDbLine
 10
2.7280405737
 20
17.0698350276
 30
0.0
 11
2.5631225973
 21
17.0663480199
 31
0.0
  0
LINE
  5
142
330
1F
100
AcDbEntity
  8
CLIPPED-EAR-FATFACE-24AND5
100
AcDbLine
 10
2.5631225973
 20
17.0663480199
 30
0.0
 11
2.3983705526
 21
17.0615231637
 31
0.0
  0
LINE
  5
143
330
1F
100
AcDbEntity
  8
CLIPPED-EAR-FATFACE-24AND5
100
AcDbLine
 10
2.3983705526
 20
17.0615231637
 30
0.0
 11
2.1785857945
 21
17.0538056414
 31
0.0
  0
LINE
  5
144
330
1F
100
AcDbEntity
  8
CLIPPED-EAR-FATFACE-24AND5
100
AcDbLine
 10
2.1785857945
 20
17.0538056414
 30
0.0
 11
1.9589398021
 21
17.0453229648
 31
0.0
  0
LINE
  5
145
330
1F
100
AcDbEntity
  8
CLIPPED-EAR-FATFACE-24AND5
100
AcDbLine
 10
1.9589398021
 20
17.0453229648
 30
0.0
 11
1.6721122473
 21
17.0327286063
 31
0.0
  0
LINE
  5
146
330
1F
100
AcDbEntity
  8
CLIPPED-EAR-FATFACE-24AND5
100
AcDbLine
 10
1.6721122473
 20
17.0327286063
 30
0.0
 11
1.3857535056
 21
17.018125764
 31
0.0
  0
LINE
  5
147
330
1F
100
AcDbEntity
  8
CLIPPED-EAR-FATFACE-24AND5
100
AcDbLine
 10
1.3857535056
 20
17.018125764
 30
0.0
 11
1.1004745315
 21
17.0015434808
 31
0.0
  0
LINE
  5
148
330
1F
100
AcDbEntity
  8
CLIPPED-EAR-FATFACE-24AND5
100
AcDbLine
 10
1.1004745315
 20
17.0015434808
 30
0.0
 11
0.8158053686
 21
16.9829524974
 31
0.0
  0
LINE
  5
149
330
1F
100
AcDbEntity
  8
CLIPPED-EAR-FATFACE-24AND5
100
AcDbLine
 10
0.8158053686
 20
16.9829524974
 30
0.0
 11
0.5340840971
 21
16.9625138232
 31
0.0
  0
LINE
  5
14A
330
1F
100
AcDbEntity
  8
CLIPPED-EAR-FATFACE-24AND5
100
AcDbLine
 10
0.5340840971
 20
16.9625138232
 30
0.0
 11
0.2531119816
 21
16.9400765425
 31
0.0
  0
LINE
  5
14B
330
1F
100
AcDbEntity
  8
CLIPPED-EAR-FATFACE-24AND5
100
AcDbLine
 10
0.2531119816
 20
16.9400765425
 30
0.0
 11
-0.0230596413
 21
16.9159486818
 31
0.0
  0
LINE
  5
14C
330
1F
100
AcDbEntity
  8
CLIPPED-EAR-FATFACE-24AND5
100
AcDbLine
 10
-0.0230596413
 20
16.9159486818
 30
0.0
 11
-0.180748212
 21
16.9009552053
 31
0.0
  0
LINE
  5
14D
330
1F
100
AcDbEntity
  8
CLIPPED-EAR-FATFACE-24AND5
100
AcDbLine
 10
-0.180748212
 20
16.9009552053
 30
0.0
 11
-0.2983140186
 21
16.889776715
 31
0.0
  0
LINE
  5
14E
330
1F
100
AcDbEntity
  8
CLIPPED-EAR-FATFACE-24AND5
100
AcDbLine
 10
-0.2983140186
 20
16.889776715
 30
0.0
 11
-0.5615162596
 21
16.8637297101
 31
0.0
  0
LINE
  5
14F
330
1F
100
AcDbEntity
  8
CLIPPED-EAR-FATFACE-24AND5
100
AcDbLine
 10
-0.5615162596
 20
16.8637297101
 30
0.0
 11
-0.9429120186
 21
16.92967713
 31
0.0
  0
LINE
  5
150
330
1F
100
AcDbEntity
  8
CLIPPED-EAR-FATFACE-24AND5
100
AcDbLine
 10
-0.9429120186
 20
16.92967713
 30
0.0
 11
-1.3231303464
 21
16.9945735472
 31
0.0
  0
LINE
  5
151
330
1F
100
AcDbEntity
  8
CLIPPED-EAR-FATFACE-24AND5
100
AcDbLine
 10
-1.3231303464
 20
16.9945735472
 30
0.0
 11
-1.7045772233
 21
17.0579874738
 31
0.0
  0
LINE
  5
152
330
1F
100
AcDbEntity
  8
CLIPPED-EAR-FATFACE-24AND5
100
AcDbLine
 10
-1.7045772233
 20
17.0579874738
 30
0.0
 11
-2.0910352551
 21
17.120556104
 31
0.0
  0
LINE
  5
153
330
1F
100
AcDbEntity
  8
CLIPPED-EAR-FATFACE-24AND5
100
AcDbLine
 10
-2.0910352551
 20
17.120556104
 30
0.0
 11
-2.478642617
 21
17.1816624302
 31
0.0
  0
LINE
  5
154
330
1F
100
AcDbEntity
  8
CLIPPED-EAR-FATFACE-24AND5
100
AcDbLine
 10
-2.478642617
 20
17.1816624302
 30
0.0
 11
-2.8469769263
 21
17.2381406788
 31
0.0
  0
LINE
  5
155
330
1F
100
AcDbEntity
  8
CLIPPED-EAR-FATFACE-24AND5
100
AcDbLine
 10
-2.8469769263
 20
17.2381406788
 30
0.0
 11
-2.8971067492
 21
17.2456078085
 31
0.0
  0
LINE
  5
156
330
1F
100
AcDbEntity
  8
CLIPPED-EAR-FATFACE-24AND5
100
AcDbLine
 10
-3.0248240511
 20
16.3881905665
 30
0.0
 11
-3.0244921296
 21
16.3881343717
 31
0.0
  0
LINE
  5
157
330
1F
100
AcDbEntity
  8
CLIPPED-EAR-FATFACE-24AND5
100
AcDbLine
 10
-3.0244921296
 20
16.3881343717
 30
0.0
 11
-3.0241716119
 21
16.3880660317
 31
0.0
  0
LINE
  5
158
330
1F
100
AcDbEntity
  8
CLIPPED-EAR-FATFACE-24AND5
100
AcDbLine
 10
-3.0241716119
 20
16.3880660317
 30
0.0
 11
-3.0238646799
 21
16.3879860119
 31
0.0
  0
LINE
  5
159
330
1F
100
AcDbEntity
  8
CLIPPED-EAR-FATFACE-24AND5
100
AcDbLine
 10
-3.0238646799
 20
16.3879860119
 30
0.0
 11
-3.0235734226
 21
16.3878948569
 31
0.0
  0
LINE
  5
15A
330
1F
100
AcDbEntity
  8
CLIPPED-EAR-FATFACE-24AND5
100
AcDbLine
 10
-3.0235734226
 20
16.3878948569
 30
0.0
 11
-3.0232998227
 21
16.3877931872
 31
0.0
  0
LINE
  5
15B
330
1F
100
AcDbEntity
  8
CLIPPED-EAR-FATFACE-24AND5
100
AcDbLine
 10
-3.0232998227
 20
16.3877931872
 30
0.0
 11
-3.0230457425
 21
16.3876816948
 31
0.0
  0
LINE
  5
15C
330
1F
100
AcDbEntity
  8
CLIPPED-EAR-FATFACE-24AND5
100
AcDbLine
 10
-3.0230457425
 20
16.3876816948
 30
0.0
 11
-3.0228129114
 21
16.3875611386
 31
0.0
  0
LINE
  5
15D
330
1F
100
AcDbEntity
  8
CLIPPED-EAR-FATFACE-24AND5
100
AcDbLine
 10
-3.0228129114
 20
16.3875611386
 30
0.0
 11
-3.0226029142
 21
16.3874323392
 31
0.0
  0
LINE
  5
15E
330
1F
100
AcDbEntity
  8
CLIPPED-EAR-FATFACE-24AND5
100
AcDbLine
 10
-3.0226029142
 20
16.3874323392
 30
0.0
 11
-3.0224171804
 21
16.3872961734
 31
0.0
  0
LINE
  5
15F
330
1F
100
AcDbEntity
  8
CLIPPED-EAR-FATFACE-24AND5
100
AcDbLine
 10
-3.0224171804
 20
16.3872961734
 30
0.0
 11
-3.0222569743
 21
16.3871535679
 31
0.0
  0
LINE
  5
160
330
1F
100
AcDbEntity
  8
CLIPPED-EAR-FATFACE-24AND5
100
AcDbLine
 10
-3.0222569743
 20
16.3871535679
 30
0.0
 11
-3.0221233862
 21
16.3870054936
 31
0.0
  0
LINE
  5
161
330
1F
100
AcDbEntity
  8
CLIPPED-EAR-FATFACE-24AND5
100
AcDbLine
 10
-3.0221233862
 20
16.3870054936
 30
0.0
 11
-3.0220173256
 21
16.3868529582
 31
0.0
  0
LINE
  5
162
330
1F
100
AcDbEntity
  8
CLIPPED-EAR-FATFACE-24AND5
100
AcDbLine
 10
-3.0220173256
 20
16.3868529582
 30
0.0
 11
-3.0219395143
 21
16.386697
 31
0.0
  0
LINE
  5
163
330
1F
100
AcDbEntity
  8
CLIPPED-EAR-FATFACE-24AND5
100
AcDbLine
 10
-3.0219395143
 20
16.386697
 30
0.0
 11
-3.0218904821
 21
16.3865386807
 31
0.0
  0
LINE
  5
164
330
1F
100
AcDbEntity
  8
CLIPPED-EAR-FATFACE-24AND5
100
AcDbLine
 10
-3.0218904821
 20
16.3865386807
 30
0.0
 11
-3.0218705625
 21
16.3863790778
 31
0.0
  0
LINE
  5
165
330
1F
100
AcDbEntity
  8
CLIPPED-EAR-FATFACE-24AND5
100
AcDbLine
 10
-3.0218705625
 20
16.3863790778
 30
0.0
 11
-3.0218846909
 21
16.3859190561
 31
0.0
  0
LINE
  5
166
330
1F
100
AcDbEntity
  8
CLIPPED-EAR-FATFACE-24AND5
100
AcDbLine
 10
-3.0218846909
 20
16.3859190561
 30
0.0
 11
-3.0219575257
 21
16.3854601638
 31
0.0
  0
LINE
  5
167
330
1F
100
AcDbEntity
  8
CLIPPED-EAR-FATFACE-24AND5
100
AcDbLine
 10
-3.0219575257
 20
16.3854601638
 30
0.0
 11
-3.0220888256
 21
16.3850039225
 31
0.0
  0
LINE
  5
168
330
1F
100
AcDbEntity
  8
CLIPPED-EAR-FATFACE-24AND5
100
AcDbLine
 10
-3.0220888256
 20
16.3850039225
 30
0.0
 11
-3.0222781552
 21
16.3845518453
 31
0.0
  0
LINE
  5
169
330
1F
100
AcDbEntity
  8
CLIPPED-EAR-FATFACE-24AND5
100
AcDbLine
 10
-3.0222781552
 20
16.3845518453
 30
0.0
 11
-3.0225248865
 21
16.3841054312
 31
0.0
  0
LINE
  5
16A
330
1F
100
AcDbEntity
  8
CLIPPED-EAR-FATFACE-24AND5
100
AcDbLine
 10
-3.0225248865
 20
16.3841054312
 30
0.0
 11
-3.0228282015
 21
16.3836661605
 31
0.0
  0
LINE
  5
16B
330
1F
100
AcDbEntity
  8
CLIPPED-EAR-FATFACE-24AND5
100
AcDbLine
 10
-3.0228282015
 20
16.3836661605
 30
0.0
 11
-3.0231870943
 21
16.38323549
 31
0.0
  0
LINE
  5
16C
330
1F
100
AcDbEntity
  8
CLIPPED-EAR-FATFACE-24AND5
100
AcDbLine
 10
-3.0231870943
 20
16.38323549
 30
0.0
 11
-3.0236003748
 21
16.3828148476
 31
0.0
  0
LINE
  5
16D
330
1F
100
AcDbEntity
  8
CLIPPED-EAR-FATFACE-24AND5
100
AcDbLine
 10
-3.0236003748
 20
16.3828148476
 30
0.0
 11
-3.0240666726
 21
16.3824056283
 31
0.0
  0
LINE
  5
16E
330
1F
100
AcDbEntity
  8
CLIPPED-EAR-FATFACE-24AND5
100
AcDbLine
 10
-3.0240666726
 20
16.3824056283
 30
0.0
 11
-3.0245844414
 21
16.3820091891
 31
0.0
  0
LINE
  5
16F
330
1F
100
AcDbEntity
  8
CLIPPED-EAR-FATFACE-24AND5
100
AcDbLine
 10
-3.0245844414
 20
16.3820091891
 30
0.0
 11
-3.0251519643
 21
16.3816268446
 31
0.0
  0
LINE
  5
170
330
1F
100
AcDbEntity
  8
CLIPPED-EAR-FATFACE-24AND5
100
AcDbLine
 10
-3.0251519643
 20
16.3816268446
 30
0.0
 11
-3.0257673593
 21
16.3812598626
 31
0.0
  0
LINE
  5
171
330
1F
100
AcDbEntity
  8
CLIPPED-EAR-FATFACE-24AND5
100
AcDbLine
 10
-3.0257673593
 20
16.3812598626
 30
0.0
 11
-3.0264285857
 21
16.3809094601
 31
0.0
  0
LINE
  5
172
330
1F
100
AcDbEntity
  8
CLIPPED-EAR-FATFACE-24AND5
100
AcDbLine
 10
-3.0264285857
 20
16.3809094601
 30
0.0
 11
-3.027133451
 21
16.380576799
 31
0.0
  0
LINE
  5
173
330
1F
100
AcDbEntity
  8
CLIPPED-EAR-FATFACE-24AND5
100
AcDbLine
 10
-3.027133451
 20
16.380576799
 30
0.0
 11
-3.0278796177
 21
16.3802629825
 31
0.0
  0
LINE
  5
174
330
1F
100
AcDbEntity
  8
CLIPPED-EAR-FATFACE-24AND5
100
AcDbLine
 10
-3.0278796177
 20
16.3802629825
 30
0.0
 11
-3.0286646115
 21
16.3799690515
 31
0.0
  0
LINE
  5
175
330
1F
100
AcDbEntity
  8
CLIPPED-EAR-FATFACE-24AND5
100
AcDbLine
 10
-3.0286646115
 20
16.3799690515
 30
0.0
 11
-4.6554329874
 21
15.805711007
 31
0.0
  0
LINE
  5
176
330
1F
100
AcDbEntity
  8
CLIPPED-EAR-FATFACE-24AND5
100
AcDbLine
 10
-4.6554329874
 20
15.805711007
 30
0.0
 11
-6.2822064498
 21
15.2314559169
 31
0.0
  0
LINE
  5
177
330
1F
100
AcDbEntity
  8
CLIPPED-EAR-FATFACE-24AND5
100
AcDbLine
 10
-6.2822064498
 20
15.2314559169
 30
0.0
 11
-7.9096635688
 21
14.6569636303
 31
0.0
  0
LINE
  5
178
330
1F
100
AcDbEntity
  8
CLIPPED-EAR-FATFACE-24AND5
100
AcDbLine
 10
-7.9096635688
 20
14.6569636303
 30
0.0
 11
-9.5371232893
 21
14.0824727929
 31
0.0
  0
LINE
  5
179
330
1F
100
AcDbEntity
  8
CLIPPED-EAR-FATFACE-24AND5
100
AcDbLine
 10
-9.5371232893
 20
14.0824727929
 30
0.0
 11
-9.5377114084
 21
14.0822839126
 31
0.0
  0
LINE
  5
17A
330
1F
100
AcDbEntity
  8
CLIPPED-EAR-FATFACE-24AND5
100
AcDbLine
 10
-9.5377114084
 20
14.0822839126
 30
0.0
 11
-9.5383350192
 21
14.0821197988
 31
0.0
  0
LINE
  5
17B
330
1F
100
AcDbEntity
  8
CLIPPED-EAR-FATFACE-24AND5
100
AcDbLine
 10
-9.5383350192
 20
14.0821197988
 30
0.0
 11
-9.5396680044
 21
14.0818710412
 31
0.0
  0
LINE
  5
17C
330
1F
100
AcDbEntity
  8
CLIPPED-EAR-FATFACE-24AND5
100
AcDbLine
 10
-9.5396680044
 20
14.0818710412
 30
0.0
 11
-9.5410785955
 21
14.0817346658
 31
0.0
  0
LINE
  5
17D
330
1F
100
AcDbEntity
  8
CLIPPED-EAR-FATFACE-24AND5
100
AcDbLine
 10
-9.5410785955
 20
14.0817346658
 30
0.0
 11
-9.5425206016
 21
14.0817151383
 31
0.0
  0
LINE
  5
17E
330
1F
100
AcDbEntity
  8
CLIPPED-EAR-FATFACE-24AND5
100
AcDbLine
 10
-9.5425206016
 20
14.0817151383
 30
0.0
 11
-9.5439468033
 21
14.0818130982
 31
0.0
  0
LINE
  5
17F
330
1F
100
AcDbEntity
  8
CLIPPED-EAR-FATFACE-24AND5
100
AcDbLine
 10
-9.5439468033
 20
14.0818130982
 30
0.0
 11
-9.5453104985
 21
14.0820253378
 31
0.0
  0
LINE
  5
180
330
1F
100
AcDbEntity
  8
CLIPPED-EAR-FATFACE-24AND5
100
AcDbLine
 10
-9.5453104985
 20
14.0820253378
 30
0.0
 11
-9.5465670322
 21
14.0823449069
 31
0.0
  0
LINE
  5
181
330
1F
100
AcDbEntity
  8
CLIPPED-EAR-FATFACE-24AND5
100
AcDbLine
 10
-9.5465670322
 20
14.0823449069
 30
0.0
 11
-9.5471420804
 21
14.0825417987
 31
0.0
  0
LINE
  5
182
330
1F
100
AcDbEntity
  8
CLIPPED-EAR-FATFACE-24AND5
100
AcDbLine
 10
-9.5471420804
 20
14.0825417987
 30
0.0
 11
-9.5476752583
 21
14.0827613413
 31
0.0
  0
LINE
  5
183
330
1F
100
AcDbEntity
  8
CLIPPED-EAR-FATFACE-24AND5
100
AcDbLine
 10
-9.5476752583
 20
14.0827613413
 30
0.0
 11
-9.5479405085
 21
14.0828870114
 31
0.0
  0
LINE
  5
184
330
1F
100
AcDbEntity
  8
CLIPPED-EAR-FATFACE-24AND5
100
AcDbLine
 10
-9.5479405085
 20
14.0828870114
 30
0.0
 11
-9.5481916289
 21
14.0830184501
 31
0.0
  0
LINE
  5
185
330
1F
100
AcDbEntity
  8
CLIPPED-EAR-FATFACE-24AND5
100
AcDbLine
 10
-9.5481916289
 20
14.0830184501
 30
0.0
 11
-9.5484280032
 21
14.083155335
 31
0.0
  0
LINE
  5
186
330
1F
100
AcDbEntity
  8
CLIPPED-EAR-FATFACE-24AND5
100
AcDbLine
 10
-9.5484280032
 20
14.083155335
 30
0.0
 11
-9.5486490512
 21
14.08329733
 31
0.0
  0
LINE
  5
187
330
1F
100
AcDbEntity
  8
CLIPPED-EAR-FATFACE-24AND5
100
AcDbLine
 10
-9.5486490512
 20
14.08329733
 30
0.0
 11
-9.5488542305
 21
14.0834440866
 31
0.0
  0
LINE
  5
188
330
1F
100
AcDbEntity
  8
CLIPPED-EAR-FATFACE-24AND5
100
AcDbLine
 10
-9.5488542305
 20
14.0834440866
 30
0.0
 11
-9.5490430374
 21
14.0835952447
 31
0.0
  0
LINE
  5
189
330
1F
100
AcDbEntity
  8
CLIPPED-EAR-FATFACE-24AND5
100
AcDbLine
 10
-9.5490430374
 20
14.0835952447
 30
0.0
 11
-9.5492150086
 21
14.0837504333
 31
0.0
  0
LINE
  5
18A
330
1F
100
AcDbEntity
  8
CLIPPED-EAR-FATFACE-24AND5
100
AcDbLine
 10
-9.5492150086
 20
14.0837504333
 30
0.0
 11
-9.549369722
 21
14.0839092715
 31
0.0
  0
LINE
  5
18B
330
1F
100
AcDbEntity
  8
CLIPPED-EAR-FATFACE-24AND5
100
AcDbLine
 10
-9.549369722
 20
14.0839092715
 30
0.0
 11
-9.5495067979
 21
14.0840713694
 31
0.0
  0
LINE
  5
18C
330
1F
100
AcDbEntity
  8
CLIPPED-EAR-FATFACE-24AND5
100
AcDbLine
 10
-9.5495067979
 20
14.0840713694
 30
0.0
 11
-9.5496258998
 21
14.0842363293
 31
0.0
  0
LINE
  5
18D
330
1F
100
AcDbEntity
  8
CLIPPED-EAR-FATFACE-24AND5
100
AcDbLine
 10
-9.5496258998
 20
14.0842363293
 30
0.0
 11
-9.5497267355
 21
14.0844037462
 31
0.0
  0
LINE
  5
18E
330
1F
100
AcDbEntity
  8
CLIPPED-EAR-FATFACE-24AND5
100
AcDbLine
 10
-9.5497267355
 20
14.0844037462
 30
0.0
 11
-9.5498090575
 21
14.0845732092
 31
0.0
  0
LINE
  5
18F
330
1F
100
AcDbEntity
  8
CLIPPED-EAR-FATFACE-24AND5
100
AcDbLine
 10
-9.5498090575
 20
14.0845732092
 30
0.0
 11
-9.5498726637
 21
14.0847443026
 31
0.0
  0
LINE
  5
190
330
1F
100
AcDbEntity
  8
CLIPPED-EAR-FATFACE-24AND5
100
AcDbLine
 10
-9.5498726637
 20
14.0847443026
 30
0.0
 11
-9.549917398
 21
14.0849166062
 31
0.0
  0
LINE
  5
191
330
1F
100
AcDbEntity
  8
CLIPPED-EAR-FATFACE-24AND5
100
AcDbLine
 10
-9.549917398
 20
14.0849166062
 30
0.0
 11
-9.5499431506
 21
14.0850896973
 31
0.0
  0
LINE
  5
192
330
1F
100
AcDbEntity
  8
CLIPPED-EAR-FATFACE-24AND5
100
AcDbLine
 10
-9.5499431506
 20
14.0850896973
 30
0.0
 11
-9.5499498584
 21
14.0852631511
 31
0.0
  0
LINE
  5
193
330
1F
100
AcDbEntity
  8
CLIPPED-EAR-FATFACE-24AND5
100
AcDbLine
 10
-9.5499498584
 20
14.0852631511
 30
0.0
 11
-9.5466358515
 21
14.2887812346
 31
0.0
  0
LINE
  5
194
330
1F
100
AcDbEntity
  8
CLIPPED-EAR-FATFACE-24AND5
100
AcDbLine
 10
-9.5466358515
 20
14.2887812346
 30
0.0
 11
-9.5433173318
 21
14.4922993031
 31
0.0
  0
LINE
  5
195
330
1F
100
AcDbEntity
  8
CLIPPED-EAR-FATFACE-24AND5
100
AcDbLine
 10
-9.5433173318
 20
14.4922993031
 30
0.0
 11
-9.5395154406
 21
14.7166244791
 31
0.0
  0
LINE
  5
196
330
1F
100
AcDbEntity
  8
CLIPPED-EAR-FATFACE-24AND5
100
AcDbLine
 10
-9.5395154406
 20
14.7166244791
 30
0.0
 11
-9.5354289563
 21
14.9409486378
 31
0.0
  0
LINE
  5
197
330
1F
100
AcDbEntity
  8
CLIPPED-EAR-FATFACE-24AND5
100
AcDbLine
 10
-9.5354289563
 20
14.9409486378
 30
0.0
 11
-9.5303094661
 21
15.2071709719
 31
0.0
  0
LINE
  5
198
330
1F
100
AcDbEntity
  8
CLIPPED-EAR-FATFACE-24AND5
100
AcDbLine
 10
-9.5303094661
 20
15.2071709719
 30
0.0
 11
-9.5249868555
 21
15.4733924963
 31
0.0
  0
LINE
  5
199
330
1F
100
AcDbEntity
  8
CLIPPED-EAR-FATFACE-24AND5
100
AcDbLine
 10
-9.5249868555
 20
15.4733924963
 30
0.0
 11
-9.5195246688
 21
15.7433591456
 31
0.0
  0
LINE
  5
19A
330
1F
100
AcDbEntity
  8
CLIPPED-EAR-FATFACE-24AND5
100
AcDbLine
 10
-9.5195246688
 20
15.7433591456
 30
0.0
 11
-9.5141379273
 21
16.013326103
 31
0.0
  0
LINE
  5
19B
330
1F
100
AcDbEntity
  8
CLIPPED-EAR-FATFACE-24AND5
100
AcDbLine
 10
-9.5141379273
 20
16.013326103
 30
0.0
 11
-9.5095023945
 21
16.2497761445
 31
0.0
  0
LINE
  5
19C
330
1F
100
AcDbEntity
  8
CLIPPED-EAR-FATFACE-24AND5
100
AcDbLine
 10
-9.5095023945
 20
16.2497761445
 30
0.0
 11
-9.5049654554
 21
16.4862265748
 31
0.0
  0
LINE
  5
19D
330
1F
100
AcDbEntity
  8
CLIPPED-EAR-FATFACE-24AND5
100
AcDbLine
 10
-9.5049654554
 20
16.4862265748
 30
0.0
 11
-9.5011445684
 21
16.6884960863
 31
0.0
  0
LINE
  5
19E
330
1F
100
AcDbEntity
  8
CLIPPED-EAR-FATFACE-24AND5
100
AcDbLine
 10
-9.5011445684
 20
16.6884960863
 30
0.0
 11
-9.4973595714
 21
16.890765735
 31
0.0
  0
LINE
  5
19F
330
1F
100
AcDbEntity
  8
CLIPPED-EAR-FATFACE-24AND5
100
AcDbLine
 10
-9.4973595714
 20
16.890765735
 30
0.0
 11
-9.4967766251
 21
16.9314213686
 31
0.0
  0
LINE
  5
1A0
330
1F
100
AcDbEntity
  8
CLIPPED-EAR-FATFACE-24AND5
100
AcDbLine
 10
-9.4967766251
 20
16.9314213686
 30
0.0
 11
-9.4965421065
 21
16.9720777143
 31
0.0
  0
LINE
  5
1A1
330
1F
100
AcDbEntity
  8
CLIPPED-EAR-FATFACE-24AND5
100
AcDbLine
 10
-9.4965421065
 20
16.9720777143
 30
0.0
 11
-9.4963779919
 21
17.0826531368
 31
0.0
  0
LINE
  5
1A2
330
1F
100
AcDbEntity
  8
CLIPPED-EAR-FATFACE-24AND5
100
AcDbLine
 10
-9.4963779919
 20
17.0826531368
 30
0.0
 11
-9.3065796919
 21
17.062233297
 31
0.0
  0
LINE
  5
1A3
330
1F
100
AcDbEntity
  8
CLIPPED-EAR-FATFACE-24AND5
100
AcDbLine
 10
-9.3065796919
 20
17.062233297
 30
0.0
 11
-9.2350359831
 21
17.0545468685
 31
0.0
  0
LINE
  5
1A4
330
1F
100
AcDbEntity
  8
CLIPPED-EAR-FATFACE-24AND5
100
AcDbLine
 10
-9.2350359831
 20
17.0545468685
 30
0.0
 11
-9.1634815143
 21
17.0468808277
 31
0.0
  0
LINE
  5
1A5
330
1F
100
AcDbEntity
  8
CLIPPED-EAR-FATFACE-24AND5
100
AcDbLine
 10
-9.1634815143
 20
17.0468808277
 30
0.0
 11
-8.7204223991
 21
16.9994808259
 31
0.0
  0
LINE
  5
1A6
330
1F
100
AcDbEntity
  8
CLIPPED-EAR-FATFACE-24AND5
100
AcDbLine
 10
-8.7204223991
 20
16.9994808259
 30
0.0
 11
-8.2773624416
 21
16.952082424
 31
0.0
  0
LINE
  5
1A7
330
1F
100
AcDbEntity
  8
CLIPPED-EAR-FATFACE-24AND5
100
AcDbLine
 10
-8.2773624416
 20
16.952082424
 30
0.0
 11
-7.7641924732
 21
16.8971876974
 31
0.0
  0
LINE
  5
1A8
330
1F
100
AcDbEntity
  8
CLIPPED-EAR-FATFACE-24AND5
100
AcDbLine
 10
-7.7641924732
 20
16.8971876974
 30
0.0
 11
-7.2510195826
 21
16.8422985236
 31
0.0
  0
LINE
  5
1A9
330
1F
100
AcDbEntity
  8
CLIPPED-EAR-FATFACE-24AND5
100
AcDbLine
 10
-7.2510195826
 20
16.8422985236
 30
0.0
 11
-6.6602042424
 21
16.7791102704
 31
0.0
  0
LINE
  5
1AA
330
1F
100
AcDbEntity
  8
CLIPPED-EAR-FATFACE-24AND5
100
AcDbLine
 10
-6.6602042424
 20
16.7791102704
 30
0.0
 11
-6.0693866625
 21
16.7159262746
 31
0.0
  0
LINE
  5
1AB
330
1F
100
AcDbEntity
  8
CLIPPED-EAR-FATFACE-24AND5
100
AcDbLine
 10
-6.0693866625
 20
16.7159262746
 30
0.0
 11
-5.4850901788
 21
16.6533761906
 31
0.0
  0
LINE
  5
1AC
330
1F
100
AcDbEntity
  8
CLIPPED-EAR-FATFACE-24AND5
100
AcDbLine
 10
-5.4850901788
 20
16.6533761906
 30
0.0
 11
-4.9008589641
 21
16.5907022967
 31
0.0
  0
LINE
  5
1AD
330
1F
100
AcDbEntity
  8
CLIPPED-EAR-FATFACE-24AND5
100
AcDbLine
 10
-4.9008589641
 20
16.5907022967
 30
0.0
 11
-4.408947642
 21
16.5377847429
 31
0.0
  0
LINE
  5
1AE
330
1F
100
AcDbEntity
  8
CLIPPED-EAR-FATFACE-24AND5
100
AcDbLine
 10
-4.408947642
 20
16.5377847429
 30
0.0
 11
-3.9171284878
 21
16.4846933248
 31
0.0
  0
LINE
  5
1AF
330
1F
100
AcDbEntity
  8
CLIPPED-EAR-FATFACE-24AND5
100
AcDbLine
 10
-3.9171284878
 20
16.4846933248
 30
0.0
 11
-3.4711461624
 21
16.436464984
 31
0.0
  0
LINE
  5
1B0
330
1F
100
AcDbEntity
  8
CLIPPED-EAR-FATFACE-24AND5
100
AcDbLine
 10
-3.4711461624
 20
16.436464984
 30
0.0
 11
-3.0251651172
 21
16.3882342339
 31
0.0
  0
LINE
  5
1B1
330
1F
100
AcDbEntity
  8
CLIPPED-EAR-FATFACE-24AND5
100
AcDbLine
 10
-3.0251651172
 20
16.3882342339
 30
0.0
 11
-3.0248240511
 21
16.3881905665
 31
0.0
  0
LINE
  5
1B2
330
1F
100
AcDbEntity
  8
CLIPPED-EAR-FATFACE-24AND5
100
AcDbLine
 10
-2.8971067492
 20
17.2456078085
 30
0.0
 11
-3.2163907434
 21
17.2931670227
 31
0.0
  0
LINE
  5
1B3
330
1F
100
AcDbEntity
  8
CLIPPED-EAR-FATFACE-24AND5
100
AcDbLine
 10
-3.2163907434
 20
17.2931670227
 30
0.0
 11
-3.5409829727
 21
17.339761373
 31
0.0
  0
LINE
  5
1B4
330
1F
100
AcDbEntity
  8
CLIPPED-EAR-FATFACE-24AND5
100
AcDbLine
 10
-3.5409829727
 20
17.339761373
 30
0.0
 11
-3.8668887919
 21
17.3844528965
 31
0.0
  0
LINE
  5
1B5
330
1F
100
AcDbEntity
  8
CLIPPED-EAR-FATFACE-24AND5
100
AcDbLine
 10
-3.8668887919
 20
17.3844528965
 30
0.0
 11
-3.9482791717
 21
17.3954601391
 31
0.0
  0
LINE
  5
1B6
330
1F
100
AcDbEntity
  8
CLIPPED-EAR-FATFACE-24AND5
100
AcDbLine
 10
-3.9482791717
 20
17.3954601391
 30
0.0
 11
-4.0295392168
 21
17.4066614224
 31
0.0
  0
LINE
  5
1B7
330
1F
100
AcDbEntity
  8
CLIPPED-EAR-FATFACE-24AND5
100
AcDbLine
 10
-4.0295392168
 20
17.4066614224
 30
0.0
 11
-4.1462152797
 21
17.4229503759
 31
0.0
  0
LINE
  5
1B8
330
1F
100
AcDbEntity
  8
CLIPPED-EAR-FATFACE-24AND5
100
AcDbLine
 10
-4.1462152797
 20
17.4229503759
 30
0.0
 11
-4.2628241606
 21
17.4393368317
 31
0.0
  0
LINE
  5
1B9
330
1F
100
AcDbEntity
  8
CLIPPED-EAR-FATFACE-24AND5
100
AcDbLine
 10
-4.2628241606
 20
17.4393368317
 30
0.0
 11
-4.3910322492
 21
17.4574704372
 31
0.0
  0
LINE
  5
1BA
330
1F
100
AcDbEntity
  8
CLIPPED-EAR-FATFACE-24AND5
100
AcDbLine
 10
-4.3910322492
 20
17.4574704372
 30
0.0
 11
-4.519166117
 21
17.4757103726
 31
0.0
  0
LINE
  5
1BB
330
1F
100
AcDbEntity
  8
CLIPPED-EAR-FATFACE-24AND5
100
AcDbLine
 10
-4.519166117
 20
17.4757103726
 30
0.0
 11
-4.6407066723
 21
17.4931320967
 31
0.0
  0
LINE
  5
1BC
330
1F
100
AcDbEntity
  8
CLIPPED-EAR-FATFACE-24AND5
100
AcDbLine
 10
-4.6407066723
 20
17.4931320967
 30
0.0
 11
-4.7621637919
 21
17.5106717069
 31
0.0
  0
LINE
  5
1BD
330
1F
100
AcDbEntity
  8
CLIPPED-EAR-FATFACE-24AND5
100
AcDbLine
 10
-4.7621637919
 20
17.5106717069
 30
0.0
 11
-4.8812816208
 21
17.5279050574
 31
0.0
  0
LINE
  5
1BE
330
1F
100
AcDbEntity
  8
CLIPPED-EAR-FATFACE-24AND5
100
AcDbLine
 10
-4.8812816208
 20
17.5279050574
 30
0.0
 11
-5.0004408893
 21
17.5450800729
 31
0.0
  0
LINE
  5
1BF
330
1F
100
AcDbEntity
  8
CLIPPED-EAR-FATFACE-24AND5
100
AcDbLine
 10
-5.0004408893
 20
17.5450800729
 30
0.0
 11
-5.1214846461
 21
17.5624629008
 31
0.0
  0
LINE
  5
1C0
330
1F
100
AcDbEntity
  8
CLIPPED-EAR-FATFACE-24AND5
100
AcDbLine
 10
-5.1214846461
 20
17.5624629008
 30
0.0
 11
-5.2425683569
 21
17.5797890709
 31
0.0
  0
LINE
  5
1C1
330
1F
100
AcDbEntity
  8
CLIPPED-EAR-FATFACE-24AND5
100
AcDbLine
 10
-5.2425683569
 20
17.5797890709
 30
0.0
 11
-5.3495286766
 21
17.5950395728
 31
0.0
  0
LINE
  5
1C2
330
1F
100
AcDbEntity
  8
CLIPPED-EAR-FATFACE-24AND5
100
AcDbLine
 10
-5.3495286766
 20
17.5950395728
 30
0.0
 11
-5.4565237118
 21
17.6102404915
 31
0.0
  0
LINE
  5
1C3
330
1F
100
AcDbEntity
  8
CLIPPED-EAR-FATFACE-24AND5
100
AcDbLine
 10
-5.4565237118
 20
17.6102404915
 30
0.0
 11
-5.524712037
 21
17.6198481054
 31
0.0
  0
LINE
  5
1C4
330
1F
100
AcDbEntity
  8
CLIPPED-EAR-FATFACE-24AND5
100
AcDbLine
 10
-5.524712037
 20
17.6198481054
 30
0.0
 11
-5.5929789919
 21
17.6293415324
 31
0.0
  0
LINE
  5
1C5
330
1F
100
AcDbEntity
  8
CLIPPED-EAR-FATFACE-24AND5
100
AcDbLine
 10
-5.5929789919
 20
17.6293415324
 30
0.0
 11
-6.0582863192
 21
17.6916020637
 31
0.0
  0
LINE
  5
1C6
330
1F
100
AcDbEntity
  8
CLIPPED-EAR-FATFACE-24AND5
100
AcDbLine
 10
-6.0582863192
 20
17.6916020637
 30
0.0
 11
-6.5259592649
 21
17.750148772
 31
0.0
  0
LINE
  5
1C7
330
1F
100
AcDbEntity
  8
CLIPPED-EAR-FATFACE-24AND5
100
AcDbLine
 10
-6.5259592649
 20
17.750148772
 30
0.0
 11
-6.9545726619
 21
17.7995668818
 31
0.0
  0
LINE
  5
1C8
330
1F
100
AcDbEntity
  8
CLIPPED-EAR-FATFACE-24AND5
100
AcDbLine
 10
-6.9545726619
 20
17.7995668818
 30
0.0
 11
-7.3856229184
 21
17.8444701131
 31
0.0
  0
LINE
  5
1C9
330
1F
100
AcDbEntity
  8
CLIPPED-EAR-FATFACE-24AND5
100
AcDbLine
 10
-7.3856229184
 20
17.8444701131
 30
0.0
 11
-7.7723577634
 21
17.880265202
 31
0.0
  0
LINE
  5
1CA
330
1F
100
AcDbEntity
  8
CLIPPED-EAR-FATFACE-24AND5
100
AcDbLine
 10
-7.7723577634
 20
17.880265202
 30
0.0
 11
-8.1610173299
 21
17.9115367221
 31
0.0
  0
LINE
  5
1CB
330
1F
100
AcDbEntity
  8
CLIPPED-EAR-FATFACE-24AND5
100
AcDbLine
 10
-8.1610173299
 20
17.9115367221
 30
0.0
 11
-8.4983945717
 21
17.9335345739
 31
0.0
  0
LINE
  5
1CC
330
1F
100
AcDbEntity
  8
CLIPPED-EAR-FATFACE-24AND5
100
AcDbLine
 10
-8.4983945717
 20
17.9335345739
 30
0.0
 11
-8.8374555919
 21
17.9494208569
 31
0.0
  0
LINE
  5
1CD
330
1F
100
AcDbEntity
  8
CLIPPED-EAR-FATFACE-24AND5
100
AcDbLine
 10
-8.8374555919
 20
17.9494208569
 30
0.0
 11
-8.9241319082
 21
17.952271466
 31
0.0
  0
LINE
  5
1CE
330
1F
100
AcDbEntity
  8
CLIPPED-EAR-FATFACE-24AND5
100
AcDbLine
 10
-8.9241319082
 20
17.952271466
 30
0.0
 11
-9.0109236175
 21
17.9542856402
 31
0.0
  0
LINE
  5
1CF
330
1F
100
AcDbEntity
  8
CLIPPED-EAR-FATFACE-24AND5
100
AcDbLine
 10
-9.0109236175
 20
17.9542856402
 30
0.0
 11
-9.1377370494
 21
17.9564102245
 31
0.0
  0
LINE
  5
1D0
330
1F
100
AcDbEntity
  8
CLIPPED-EAR-FATFACE-24AND5
100
AcDbLine
 10
-9.1377370494
 20
17.9564102245
 30
0.0
 11
-9.2645810381
 21
17.9581243517
 31
0.0
  0
LINE
  5
1D1
330
1F
100
AcDbEntity
  8
CLIPPED-EAR-FATFACE-24AND5
100
AcDbLine
 10
-9.2645810381
 20
17.9581243517
 30
0.0
 11
-9.3892685094
 21
17.959442271
 31
0.0
  0
LINE
  5
1D2
330
1F
100
AcDbEntity
  8
CLIPPED-EAR-FATFACE-24AND5
100
AcDbLine
 10
-9.3892685094
 20
17.959442271
 30
0.0
 11
-9.5139709908
 21
17.9604301749
 31
0.0
  0
LINE
  5
1D3
330
1F
100
AcDbEntity
  8
CLIPPED-EAR-FATFACE-24AND5
100
AcDbLine
 10
-9.5139709908
 20
17.9604301749
 30
0.0
 11
-9.5732530446
 21
17.9602372296
 31
0.0
  0
LINE
  5
1D4
330
1F
100
AcDbEntity
  8
CLIPPED-EAR-FATFACE-24AND5
100
AcDbLine
 10
-9.5732530446
 20
17.9602372296
 30
0.0
 11
-9.6324597919
 21
17.9588766778
 31
0.0
  0
LINE
  5
1D5
330
1F
100
AcDbEntity
  8
CLIPPED-EAR-FATFACE-24AND5
100
AcDbLine
 10
-9.6324597919
 20
17.9588766778
 30
0.0
 11
-9.8211424088
 21
17.9511121037
 31
0.0
  0
LINE
  5
1D6
330
1F
100
AcDbEntity
  8
CLIPPED-EAR-FATFACE-24AND5
100
AcDbLine
 10
-9.8211424088
 20
17.9511121037
 30
0.0
 11
-10.0090712012
 21
17.9402493282
 31
0.0
  0
LINE
  5
1D7
330
1F
100
AcDbEntity
  8
CLIPPED-EAR-FATFACE-24AND5
100
AcDbLine
 10
-10.0090712012
 20
17.9402493282
 30
0.0
 11
-10.1650677226
 21
17.9276863138
 31
0.0
  0
LINE
  5
1D8
330
1F
100
AcDbEntity
  8
CLIPPED-EAR-FATFACE-24AND5
100
AcDbLine
 10
-10.1650677226
 20
17.9276863138
 30
0.0
 11
-10.3190376664
 21
17.9107888393
 31
0.0
  0
LINE
  5
1D9
330
1F
100
AcDbEntity
  8
CLIPPED-EAR-FATFACE-24AND5
100
AcDbLine
 10
-10.3190376664
 20
17.9107888393
 30
0.0
 11
-10.3853131649
 21
17.901937603
 31
0.0
  0
LINE
  5
1DA
330
1F
100
AcDbEntity
  8
CLIPPED-EAR-FATFACE-24AND5
100
AcDbLine
 10
-10.3853131649
 20
17.901937603
 30
0.0
 11
-10.4508300019
 21
17.8920043457
 31
0.0
  0
LINE
  5
1DB
330
1F
100
AcDbEntity
  8
CLIPPED-EAR-FATFACE-24AND5
100
AcDbLine
 10
-10.4508300019
 20
17.8920043457
 30
0.0
 11
-10.5155013087
 21
17.8810022377
 31
0.0
  0
LINE
  5
1DC
330
1F
100
AcDbEntity
  8
CLIPPED-EAR-FATFACE-24AND5
100
AcDbLine
 10
-10.5155013087
 20
17.8810022377
 30
0.0
 11
-10.5792413378
 21
17.8689458668
 31
0.0
  0
LINE
  5
1DD
330
1F
100
AcDbEntity
  8
CLIPPED-EAR-FATFACE-24AND5
100
AcDbLine
 10
-10.5792413378
 20
17.8689458668
 30
0.0
 11
-10.6374986943
 21
17.8566441411
 31
0.0
  0
LINE
  5
1DE
330
1F
100
AcDbEntity
  8
CLIPPED-EAR-FATFACE-24AND5
100
AcDbLine
 10
-10.6374986943
 20
17.8566441411
 30
0.0
 11
-10.6944651319
 21
17.8431693715
 31
0.0
  0
LINE
  5
1DF
330
1F
100
AcDbEntity
  8
CLIPPED-EAR-FATFACE-24AND5
100
AcDbLine
 10
-10.6944651319
 20
17.8431693715
 30
0.0
 11
-10.7500245312
 21
17.8285490248
 31
0.0
  0
LINE
  5
1E0
330
1F
100
AcDbEntity
  8
CLIPPED-EAR-FATFACE-24AND5
100
AcDbLine
 10
-10.7500245312
 20
17.8285490248
 30
0.0
 11
-10.8040636409
 21
17.8128129028
 31
0.0
  0
LINE
  5
1E1
330
1F
100
AcDbEntity
  8
CLIPPED-EAR-FATFACE-24AND5
100
AcDbLine
 10
-10.8040636409
 20
17.8128129028
 30
0.0
 11
-10.8312522109
 21
17.8038884132
 31
0.0
  0
LINE
  5
1E2
330
1F
100
AcDbEntity
  8
CLIPPED-EAR-FATFACE-24AND5
100
AcDbLine
 10
-10.8312522109
 20
17.8038884132
 30
0.0
 11
-10.8570652261
 21
17.7941689974
 31
0.0
  0
LINE
  5
1E3
330
1F
100
AcDbEntity
  8
CLIPPED-EAR-FATFACE-24AND5
100
AcDbLine
 10
-10.8570652261
 20
17.7941689974
 30
0.0
 11
-10.8813885574
 21
17.7836976287
 31
0.0
  0
LINE
  5
1E4
330
1F
100
AcDbEntity
  8
CLIPPED-EAR-FATFACE-24AND5
100
AcDbLine
 10
-10.8813885574
 20
17.7836976287
 30
0.0
 11
-10.8929577138
 21
17.7781943057
 31
0.0
  0
LINE
  5
1E5
330
1F
100
AcDbEntity
  8
CLIPPED-EAR-FATFACE-24AND5
100
AcDbLine
 10
-10.8929577138
 20
17.7781943057
 30
0.0
 11
-10.9041146616
 21
17.772520605
 31
0.0
  0
LINE
  5
1E6
330
1F
100
AcDbEntity
  8
CLIPPED-EAR-FATFACE-24AND5
100
AcDbLine
 10
-10.9041146616
 20
17.772520605
 30
0.0
 11
-10.9281984378
 21
17.7592481288
 31
0.0
  0
LINE
  5
1E7
330
1F
100
AcDbEntity
  8
CLIPPED-EAR-FATFACE-24AND5
100
AcDbLine
 10
-10.9281984378
 20
17.7592481288
 30
0.0
 11
-10.9509007826
 21
17.7454896024
 31
0.0
  0
LINE
  5
1E8
330
1F
100
AcDbEntity
  8
CLIPPED-EAR-FATFACE-24AND5
100
AcDbLine
 10
-10.9509007826
 20
17.7454896024
 30
0.0
 11
-10.9721735089
 21
17.7312742291
 31
0.0
  0
LINE
  5
1E9
330
1F
100
AcDbEntity
  8
CLIPPED-EAR-FATFACE-24AND5
100
AcDbLine
 10
-10.9721735089
 20
17.7312742291
 30
0.0
 11
-10.9919714639
 21
17.7166321818
 31
0.0
  0
LINE
  5
1EA
330
1F
100
AcDbEntity
  8
CLIPPED-EAR-FATFACE-24AND5
100
AcDbLine
 10
-10.9919714639
 20
17.7166321818
 30
0.0
 11
-11.0148341055
 21
17.6980618333
 31
0.0
  0
LINE
  5
1EB
330
1F
100
AcDbEntity
  8
CLIPPED-EAR-FATFACE-24AND5
100
AcDbLine
 10
-11.0148341055
 20
17.6980618333
 30
0.0
 11
-11.0362248707
 21
17.6791383381
 31
0.0
  0
LINE
  5
1EC
330
1F
100
AcDbEntity
  8
CLIPPED-EAR-FATFACE-24AND5
100
AcDbLine
 10
-11.0362248707
 20
17.6791383381
 30
0.0
 11
-11.0561169636
 21
17.6598854016
 31
0.0
  0
LINE
  5
1ED
330
1F
100
AcDbEntity
  8
CLIPPED-EAR-FATFACE-24AND5
100
AcDbLine
 10
-11.0561169636
 20
17.6598854016
 30
0.0
 11
-11.0744854655
 21
17.6403271417
 31
0.0
  0
LINE
  5
1EE
330
1F
100
AcDbEntity
  8
CLIPPED-EAR-FATFACE-24AND5
100
AcDbLine
 10
-11.0744854655
 20
17.6403271417
 30
0.0
 11
-11.0969428644
 21
17.6145819759
 31
0.0
  0
LINE
  5
1EF
330
1F
100
AcDbEntity
  8
CLIPPED-EAR-FATFACE-24AND5
100
AcDbLine
 10
-11.0969428644
 20
17.6145819759
 30
0.0
 11
-11.1184673398
 21
17.5886753255
 31
0.0
  0
LINE
  5
1F0
330
1F
100
AcDbEntity
  8
CLIPPED-EAR-FATFACE-24AND5
100
AcDbLine
 10
-11.1184673398
 20
17.5886753255
 30
0.0
 11
-11.1390531824
 21
17.5626140621
 31
0.0
  0
LINE
  5
1F1
330
1F
100
AcDbEntity
  8
CLIPPED-EAR-FATFACE-24AND5
100
AcDbLine
 10
-11.1390531824
 20
17.5626140621
 30
0.0
 11
-11.1586949317
 21
17.5364050983
 31
0.0
  0
LINE
  5
1F2
330
1F
100
AcDbEntity
  8
CLIPPED-EAR-FATFACE-24AND5
100
AcDbLine
 10
-11.1586949317
 20
17.5364050983
 30
0.0
 11
-11.1931781044
 21
17.4868788627
 31
0.0
  0
LINE
  5
1F3
330
1F
100
AcDbEntity
  8
CLIPPED-EAR-FATFACE-24AND5
100
AcDbLine
 10
-11.1931781044
 20
17.4868788627
 30
0.0
 11
-11.2246770749
 21
17.4369501646
 31
0.0
  0
LINE
  5
1F4
330
1F
100
AcDbEntity
  8
CLIPPED-EAR-FATFACE-24AND5
100
AcDbLine
 10
-11.2246770749
 20
17.4369501646
 30
0.0
 11
-11.2531687876
 21
17.3866555495
 31
0.0
  0
LINE
  5
1F5
330
1F
100
AcDbEntity
  8
CLIPPED-EAR-FATFACE-24AND5
100
AcDbLine
 10
-11.2531687876
 20
17.3866555495
 30
0.0
 11
-11.2786323881
 21
17.3360318304
 31
0.0
  0
LINE
  5
1F6
330
1F
100
AcDbEntity
  8
CLIPPED-EAR-FATFACE-24AND5
100
AcDbLine
 10
-11.2786323881
 20
17.3360318304
 30
0.0
 11
-11.3053375147
 21
17.2768925108
 31
0.0
  0
LINE
  5
1F7
330
1F
100
AcDbEntity
  8
CLIPPED-EAR-FATFACE-24AND5
100
AcDbLine
 10
-11.3053375147
 20
17.2768925108
 30
0.0
 11
-11.3297732003
 21
17.2175540567
 31
0.0
  0
LINE
  5
1F8
330
1F
100
AcDbEntity
  8
CLIPPED-EAR-FATFACE-24AND5
100
AcDbLine
 10
-11.3297732003
 20
17.2175540567
 30
0.0
 11
-11.351932155
 21
17.1580341701
 31
0.0
  0
LINE
  5
1F9
330
1F
100
AcDbEntity
  8
CLIPPED-EAR-FATFACE-24AND5
100
AcDbLine
 10
-11.351932155
 20
17.1580341701
 30
0.0
 11
-11.3718077684
 21
17.0983506073
 31
0.0
  0
LINE
  5
1FA
330
1F
100
AcDbEntity
  8
CLIPPED-EAR-FATFACE-24AND5
100
AcDbLine
 10
-11.3718077684
 20
17.0983506073
 30
0.0
 11
-11.3926145071
 21
17.0282667602
 31
0.0
  0
LINE
  5
1FB
330
1F
100
AcDbEntity
  8
CLIPPED-EAR-FATFACE-24AND5
100
AcDbLine
 10
-11.3926145071
 20
17.0282667602
 30
0.0
 11
-11.4111396915
 21
16.9580528894
 31
0.0
  0
LINE
  5
1FC
330
1F
100
AcDbEntity
  8
CLIPPED-EAR-FATFACE-24AND5
100
AcDbLine
 10
-11.4111396915
 20
16.9580528894
 30
0.0
 11
-11.4273793379
 21
16.8877240929
 31
0.0
  0
LINE
  5
1FD
330
1F
100
AcDbEntity
  8
CLIPPED-EAR-FATFACE-24AND5
100
AcDbLine
 10
-11.4273793379
 20
16.8877240929
 30
0.0
 11
-11.4413299546
 21
16.8172954932
 31
0.0
  0
LINE
  5
1FE
330
1F
100
AcDbEntity
  8
CLIPPED-EAR-FATFACE-24AND5
100
AcDbLine
 10
-11.4413299546
 20
16.8172954932
 30
0.0
 11
-11.4556408746
 21
16.7339678159
 31
0.0
  0
LINE
  5
1FF
330
1F
100
AcDbEntity
  8
CLIPPED-EAR-FATFACE-24AND5
100
AcDbLine
 10
-11.4556408746
 20
16.7339678159
 30
0.0
 11
-11.4683027275
 21
16.650585901
 31
0.0
  0
LINE
  5
200
330
1F
100
AcDbEntity
  8
CLIPPED-EAR-FATFACE-24AND5
100
AcDbLine
 10
-11.4683027275
 20
16.650585901
 30
0.0
 11
-11.479314506
 21
16.5671563826
 31
0.0
  0
LINE
  5
201
330
1F
100
AcDbEntity
  8
CLIPPED-EAR-FATFACE-24AND5
100
AcDbLine
 10
-11.479314506
 20
16.5671563826
 30
0.0
 11
-11.4886753339
 21
16.4836858983
 31
0.0
  0
LINE
  5
202
330
1F
100
AcDbEntity
  8
CLIPPED-EAR-FATFACE-24AND5
100
AcDbLine
 10
-11.4886753339
 20
16.4836858983
 30
0.0
 11
-11.4932987498
 21
16.4323141859
 31
0.0
  0
LINE
  5
203
330
1F
100
AcDbEntity
  8
CLIPPED-EAR-FATFACE-24AND5
100
AcDbLine
 10
-11.4932987498
 20
16.4323141859
 30
0.0
 11
-11.496667826
 21
16.380922642
 31
0.0
  0
LINE
  5
204
330
1F
100
AcDbEntity
  8
CLIPPED-EAR-FATFACE-24AND5
100
AcDbLine
 10
-11.496667826
 20
16.380922642
 30
0.0
 11
-11.4987821543
 21
16.3295174923
 31
0.0
  0
LINE
  5
205
330
1F
100
AcDbEntity
  8
CLIPPED-EAR-FATFACE-24AND5
100
AcDbLine
 10
-11.4987821543
 20
16.3295174923
 30
0.0
 11
-11.4996414786
 21
16.2781049641
 31
0.0
  0
LINE
  5
206
330
1F
100
AcDbEntity
  8
CLIPPED-EAR-FATFACE-24AND5
100
AcDbLine
 10
-11.4996414786
 20
16.2781049641
 30
0.0
 11
-11.4994072141
 21
16.1077666919
 31
0.0
  0
LINE
  5
207
330
1F
100
AcDbEntity
  8
CLIPPED-EAR-FATFACE-24AND5
100
AcDbLine
 10
-11.4994072141
 20
16.1077666919
 30
0.0
 11
-11.4971683566
 21
15.937431378
 31
0.0
  0
LINE
  5
208
330
1F
100
AcDbEntity
  8
CLIPPED-EAR-FATFACE-24AND5
100
AcDbLine
 10
-11.4971683566
 20
15.937431378
 30
0.0
 11
-11.4927758469
 21
15.7637649673
 31
0.0
  0
LINE
  5
209
330
1F
100
AcDbEntity
  8
CLIPPED-EAR-FATFACE-24AND5
100
AcDbLine
 10
-11.4927758469
 20
15.7637649673
 30
0.0
 11
-11.4862071395
 21
15.590112518
 31
0.0
  0
LINE
  5
20A
330
1F
100
AcDbEntity
  8
CLIPPED-EAR-FATFACE-24AND5
100
AcDbLine
 10
-11.4862071395
 20
15.590112518
 30
0.0
 11
-11.482968154
 21
15.5285059248
 31
0.0
  0
LINE
  5
20B
330
1F
100
AcDbEntity
  8
CLIPPED-EAR-FATFACE-24AND5
100
AcDbLine
 10
-11.482968154
 20
15.5285059248
 30
0.0
 11
-11.478684952
 21
15.466912292
 31
0.0
  0
LINE
  5
20C
330
1F
100
AcDbEntity
  8
CLIPPED-EAR-FATFACE-24AND5
100
AcDbLine
 10
-11.478684952
 20
15.466912292
 30
0.0
 11
-11.4733577837
 21
15.4053352176
 31
0.0
  0
LINE
  5
20D
330
1F
100
AcDbEntity
  8
CLIPPED-EAR-FATFACE-24AND5
100
AcDbLine
 10
-11.4733577837
 20
15.4053352176
 30
0.0
 11
-11.4669869604
 21
15.3437782983
 31
0.0
  0
LINE
  5
20E
330
1F
100
AcDbEntity
  8
CLIPPED-EAR-FATFACE-24AND5
100
AcDbLine
 10
-11.4669869604
 20
15.3437782983
 30
0.0
 11
-11.4623537771
 21
15.2983457265
 31
0.0
  0
LINE
  5
20F
330
1F
100
AcDbEntity
  8
CLIPPED-EAR-FATFACE-24AND5
100
AcDbLine
 10
-11.4623537771
 20
15.2983457265
 30
0.0
 11
-11.4586282719
 21
15.2528961844
 31
0.0
  0
LINE
  5
210
330
1F
100
AcDbEntity
  8
CLIPPED-EAR-FATFACE-24AND5
100
AcDbLine
 10
-11.4586282719
 20
15.2528961844
 30
0.0
 11
-11.4547975954
 21
15.1956432475
 31
0.0
  0
LINE
  5
211
330
1F
100
AcDbEntity
  8
CLIPPED-EAR-FATFACE-24AND5
100
AcDbLine
 10
-11.4547975954
 20
15.1956432475
 30
0.0
 11
-11.4515460021
 21
15.1383830302
 31
0.0
  0
LINE
  5
212
330
1F
100
AcDbEntity
  8
CLIPPED-EAR-FATFACE-24AND5
100
AcDbLine
 10
-11.4515460021
 20
15.1383830302
 30
0.0
 11
-11.4487844222
 21
15.0792513635
 31
0.0
  0
LINE
  5
213
330
1F
100
AcDbEntity
  8
CLIPPED-EAR-FATFACE-24AND5
100
AcDbLine
 10
-11.4487844222
 20
15.0792513635
 30
0.0
 11
-11.4466167182
 21
15.0201146652
 31
0.0
  0
LINE
  5
214
330
1F
100
AcDbEntity
  8
CLIPPED-EAR-FATFACE-24AND5
100
AcDbLine
 10
-11.4466167182
 20
15.0201146652
 30
0.0
 11
-11.445367369
 21
14.9683774631
 31
0.0
  0
LINE
  5
215
330
1F
100
AcDbEntity
  8
CLIPPED-EAR-FATFACE-24AND5
100
AcDbLine
 10
-11.445367369
 20
14.9683774631
 30
0.0
 11
-11.4448923756
 21
14.9166376379
 31
0.0
  0
LINE
  5
216
330
1F
100
AcDbEntity
  8
CLIPPED-EAR-FATFACE-24AND5
100
AcDbLine
 10
-11.4448923756
 20
14.9166376379
 30
0.0
 11
-11.4437467852
 21
14.8206952623
 31
0.0
  0
LINE
  5
217
330
1F
100
AcDbEntity
  8
CLIPPED-EAR-FATFACE-24AND5
100
AcDbLine
 10
-11.4437467852
 20
14.8206952623
 30
0.0
 11
-11.4406353122
 21
14.724761753
 31
0.0
  0
LINE
  5
218
330
1F
100
AcDbEntity
  8
CLIPPED-EAR-FATFACE-24AND5
100
AcDbLine
 10
-11.4406353122
 20
14.724761753
 30
0.0
 11
-11.435558222
 21
14.6288452983
 31
0.0
  0
LINE
  5
219
330
1F
100
AcDbEntity
  8
CLIPPED-EAR-FATFACE-24AND5
100
AcDbLine
 10
-11.435558222
 20
14.6288452983
 30
0.0
 11
-11.428515948
 21
14.5329540851
 31
0.0
  0
LINE
  5
21A
330
1F
100
AcDbEntity
  8
CLIPPED-EAR-FATFACE-24AND5
100
AcDbLine
 10
-11.428515948
 20
14.5329540851
 30
0.0
 11
-11.4067525337
 21
14.3068726505
 31
0.0
  0
LINE
  5
21B
330
1F
100
AcDbEntity
  8
CLIPPED-EAR-FATFACE-24AND5
100
AcDbLine
 10
-11.4067525337
 20
14.3068726505
 30
0.0
 11
-11.3793174354
 21
14.0809166995
 31
0.0
  0
LINE
  5
21C
330
1F
100
AcDbEntity
  8
CLIPPED-EAR-FATFACE-24AND5
100
AcDbLine
 10
-11.3793174354
 20
14.0809166995
 30
0.0
 11
-11.3430395164
 21
13.8318043581
 31
0.0
  0
LINE
  5
21D
330
1F
100
AcDbEntity
  8
CLIPPED-EAR-FATFACE-24AND5
100
AcDbLine
 10
-11.3430395164
 20
13.8318043581
 30
0.0
 11
-11.3009965438
 21
13.5828763117
 31
0.0
  0
LINE
  5
21E
330
1F
100
AcDbEntity
  8
CLIPPED-EAR-FATFACE-24AND5
100
AcDbLine
 10
-11.3009965438
 20
13.5828763117
 30
0.0
 11
-11.2510288761
 21
13.3205597519
 31
0.0
  0
LINE
  5
21F
330
1F
100
AcDbEntity
  8
CLIPPED-EAR-FATFACE-24AND5
100
AcDbLine
 10
-11.2510288761
 20
13.3205597519
 30
0.0
 11
-11.1958852282
 21
13.0584540831
 31
0.0
  0
LINE
  5
220
330
1F
100
AcDbEntity
  8
CLIPPED-EAR-FATFACE-24AND5
100
AcDbLine
 10
-11.1958852282
 20
13.0584540831
 30
0.0
 11
-11.1761707141
 21
12.9689858679
 31
0.0
  0
LINE
  5
221
330
1F
100
AcDbEntity
  8
CLIPPED-EAR-FATFACE-24AND5
100
AcDbLine
 10
-11.1761707141
 20
12.9689858679
 30
0.0
 11
-11.2529104641
 21
12.8639041607
 31
0.0
  0
LINE
  5
222
330
1F
100
AcDbEntity
  8
CLIPPED-EAR-FATFACE-24AND5
100
AcDbLine
 10
-11.2529104641
 20
12.8639041607
 30
0.0
 11
-11.3055818661
 21
12.789851215
 31
0.0
  0
LINE
  5
223
330
1F
100
AcDbEntity
  8
CLIPPED-EAR-FATFACE-24AND5
100
AcDbLine
 10
-11.3055818661
 20
12.789851215
 30
0.0
 11
-11.3556989654
 21
12.7154387777
 31
0.0
  0
LINE
  5
224
330
1F
100
AcDbEntity
  8
CLIPPED-EAR-FATFACE-24AND5
100
AcDbLine
 10
-11.3556989654
 20
12.7154387777
 30
0.0
 11
-11.4032497003
 21
12.6406847578
 31
0.0
  0
LINE
  5
225
330
1F
100
AcDbEntity
  8
CLIPPED-EAR-FATFACE-24AND5
100
AcDbLine
 10
-11.4032497003
 20
12.6406847578
 30
0.0
 11
-11.4482226267
 21
12.5656071465
 31
0.0
  0
LINE
  5
226
330
1F
100
AcDbEntity
  8
CLIPPED-EAR-FATFACE-24AND5
100
AcDbLine
 10
-11.4482226267
 20
12.5656071465
 30
0.0
 11
-11.4901185386
 21
12.4910143331
 31
0.0
  0
LINE
  5
227
330
1F
100
AcDbEntity
  8
CLIPPED-EAR-FATFACE-24AND5
100
AcDbLine
 10
-11.4901185386
 20
12.4910143331
 30
0.0
 11
-11.5293596822
 21
12.4161285896
 31
0.0
  0
LINE
  5
228
330
1F
100
AcDbEntity
  8
CLIPPED-EAR-FATFACE-24AND5
100
AcDbLine
 10
-11.5293596822
 20
12.4161285896
 30
0.0
 11
-11.5659359937
 21
12.3409691215
 31
0.0
  0
LINE
  5
229
330
1F
100
AcDbEntity
  8
CLIPPED-EAR-FATFACE-24AND5
100
AcDbLine
 10
-11.5659359937
 20
12.3409691215
 30
0.0
 11
-11.5998380926
 21
12.2655552043
 31
0.0
  0
LINE
  5
22A
330
1F
100
AcDbEntity
  8
CLIPPED-EAR-FATFACE-24AND5
100
AcDbLine
 10
-11.5998380926
 20
12.2655552043
 30
0.0
 11
-11.6309501417
 21
12.1901539839
 31
0.0
  0
LINE
  5
22B
330
1F
100
AcDbEntity
  8
CLIPPED-EAR-FATFACE-24AND5
100
AcDbLine
 10
-11.6309501417
 20
12.1901539839
 30
0.0
 11
-11.6593710382
 21
12.1145371065
 31
0.0
  0
LINE
  5
22C
330
1F
100
AcDbEntity
  8
CLIPPED-EAR-FATFACE-24AND5
100
AcDbLine
 10
-11.6593710382
 20
12.1145371065
 30
0.0
 11
-11.6850934438
 21
12.0387240958
 31
0.0
  0
LINE
  5
22D
330
1F
100
AcDbEntity
  8
CLIPPED-EAR-FATFACE-24AND5
100
AcDbLine
 10
-11.6850934438
 20
12.0387240958
 30
0.0
 11
-11.7081107173
 21
11.9627345265
 31
0.0
  0
LINE
  5
22E
330
1F
100
AcDbEntity
  8
CLIPPED-EAR-FATFACE-24AND5
100
AcDbLine
 10
-11.7081107173
 20
11.9627345265
 30
0.0
 11
-11.7285181322
 21
11.8862717005
 31
0.0
  0
LINE
  5
22F
330
1F
100
AcDbEntity
  8
CLIPPED-EAR-FATFACE-24AND5
100
AcDbLine
 10
-11.7285181322
 20
11.8862717005
 30
0.0
 11
-11.7462317435
 21
11.8096724914
 31
0.0
  0
LINE
  5
230
330
1F
100
AcDbEntity
  8
CLIPPED-EAR-FATFACE-24AND5
100
AcDbLine
 10
-11.7462317435
 20
11.8096724914
 30
0.0
 11
-11.7612470901
 21
11.7329561903
 31
0.0
  0
LINE
  5
231
330
1F
100
AcDbEntity
  8
CLIPPED-EAR-FATFACE-24AND5
100
AcDbLine
 10
-11.7612470901
 20
11.7329561903
 30
0.0
 11
-11.7735603906
 21
11.6561421174
 31
0.0
  0
LINE
  5
232
330
1F
100
AcDbEntity
  8
CLIPPED-EAR-FATFACE-24AND5
100
AcDbLine
 10
-11.7735603906
 20
11.6561421174
 30
0.0
 11
-11.7775046023
 21
11.625661746
 31
0.0
  0
LINE
  5
233
330
1F
100
AcDbEntity
  8
CLIPPED-EAR-FATFACE-24AND5
100
AcDbLine
 10
-11.7775046023
 20
11.625661746
 30
0.0
 11
-11.7806459315
 21
11.5951624103
 31
0.0
  0
LINE
  5
234
330
1F
100
AcDbEntity
  8
CLIPPED-EAR-FATFACE-24AND5
100
AcDbLine
 10
-11.7806459315
 20
11.5951624103
 30
0.0
 11
-11.7829839354
 21
11.5646484093
 31
0.0
  0
LINE
  5
235
330
1F
100
AcDbEntity
  8
CLIPPED-EAR-FATFACE-24AND5
100
AcDbLine
 10
-11.7829839354
 20
11.5646484093
 30
0.0
 11
-11.7845182844
 21
11.5341240441
 31
0.0
  0
LINE
  5
236
330
1F
100
AcDbEntity
  8
CLIPPED-EAR-FATFACE-24AND5
100
AcDbLine
 10
-11.7845182844
 20
11.5341240441
 30
0.0
 11
-11.7869549582
 21
11.4465378334
 31
0.0
  0
LINE
  5
237
330
1F
100
AcDbEntity
  8
CLIPPED-EAR-FATFACE-24AND5
100
AcDbLine
 10
-11.7869549582
 20
11.4465378334
 30
0.0
 11
-11.7877671586
 21
11.3589454983
 31
0.0
  0
LINE
  5
238
330
1F
100
AcDbEntity
  8
CLIPPED-EAR-FATFACE-24AND5
100
AcDbLine
 10
-11.7877671586
 20
11.3589454983
 30
0.0
 11
-11.7869549582
 21
11.2713531632
 31
0.0
  0
LINE
  5
239
330
1F
100
AcDbEntity
  8
CLIPPED-EAR-FATFACE-24AND5
100
AcDbLine
 10
-11.7869549582
 20
11.2713531632
 30
0.0
 11
-11.7845182844
 21
11.1837669525
 31
0.0
  0
LINE
  5
23A
330
1F
100
AcDbEntity
  8
CLIPPED-EAR-FATFACE-24AND5
100
AcDbLine
 10
-11.7845182844
 20
11.1837669525
 30
0.0
 11
-11.7829839354
 21
11.1532425873
 31
0.0
  0
LINE
  5
23B
330
1F
100
AcDbEntity
  8
CLIPPED-EAR-FATFACE-24AND5
100
AcDbLine
 10
-11.7829839354
 20
11.1532425873
 30
0.0
 11
-11.7806459315
 21
11.1227285863
 31
0.0
  0
LINE
  5
23C
330
1F
100
AcDbEntity
  8
CLIPPED-EAR-FATFACE-24AND5
100
AcDbLine
 10
-11.7806459315
 20
11.1227285863
 30
0.0
 11
-11.7775046023
 21
11.0922292506
 31
0.0
  0
LINE
  5
23D
330
1F
100
AcDbEntity
  8
CLIPPED-EAR-FATFACE-24AND5
100
AcDbLine
 10
-11.7775046023
 20
11.0922292506
 30
0.0
 11
-11.7735603906
 21
11.0617488793
 31
0.0
  0
LINE
  5
23E
330
1F
100
AcDbEntity
  8
CLIPPED-EAR-FATFACE-24AND5
100
AcDbLine
 10
-11.7735603906
 20
11.0617488793
 30
0.0
 11
-11.7531475442
 21
10.9417517269
 31
0.0
  0
LINE
  5
23F
330
1F
100
AcDbEntity
  8
CLIPPED-EAR-FATFACE-24AND5
100
AcDbLine
 10
-11.7531475442
 20
10.9417517269
 30
0.0
 11
-11.726176248
 21
10.8220180908
 31
0.0
  0
LINE
  5
240
330
1F
100
AcDbEntity
  8
CLIPPED-EAR-FATFACE-24AND5
100
AcDbLine
 10
-11.726176248
 20
10.8220180908
 30
0.0
 11
-11.6926629135
 21
10.7026208264
 31
0.0
  0
LINE
  5
241
330
1F
100
AcDbEntity
  8
CLIPPED-EAR-FATFACE-24AND5
100
AcDbLine
 10
-11.6926629135
 20
10.7026208264
 30
0.0
 11
-11.6526279328
 21
10.5836325843
 31
0.0
  0
LINE
  5
242
330
1F
100
AcDbEntity
  8
CLIPPED-EAR-FATFACE-24AND5
100
AcDbLine
 10
-11.6526279328
 20
10.5836325843
 30
0.0
 11
-11.6064299694
 21
10.4662121686
 31
0.0
  0
LINE
  5
243
330
1F
100
AcDbEntity
  8
CLIPPED-EAR-FATFACE-24AND5
100
AcDbLine
 10
-11.6064299694
 20
10.4662121686
 30
0.0
 11
-11.55364441
 21
10.3493575501
 31
0.0
  0
LINE
  5
244
330
1F
100
AcDbEntity
  8
CLIPPED-EAR-FATFACE-24AND5
100
AcDbLine
 10
-11.55364441
 20
10.3493575501
 30
0.0
 11
-11.4943051862
 21
10.2331438454
 31
0.0
  0
LINE
  5
245
330
1F
100
AcDbEntity
  8
CLIPPED-EAR-FATFACE-24AND5
100
AcDbLine
 10
-11.4943051862
 20
10.2331438454
 30
0.0
 11
-11.4284504425
 21
10.1176457588
 31
0.0
  0
LINE
  5
246
330
1F
100
AcDbEntity
  8
CLIPPED-EAR-FATFACE-24AND5
100
AcDbLine
 10
-11.4284504425
 20
10.1176457588
 30
0.0
 11
-11.3556585039
 21
10.0021620202
 31
0.0
  0
LINE
  5
247
330
1F
100
AcDbEntity
  8
CLIPPED-EAR-FATFACE-24AND5
100
AcDbLine
 10
-11.3556585039
 20
10.0021620202
 30
0.0
 11
-11.2764423984
 21
9.8875409715
 31
0.0
  0
LINE
  5
248
330
1F
100
AcDbEntity
  8
CLIPPED-EAR-FATFACE-24AND5
100
AcDbLine
 10
-11.2764423984
 20
9.8875409715
 30
0.0
 11
-11.1908523236
 21
9.773855246
 31
0.0
  0
LINE
  5
249
330
1F
100
AcDbEntity
  8
CLIPPED-EAR-FATFACE-24AND5
100
AcDbLine
 10
-11.1908523236
 20
9.773855246
 30
0.0
 11
-11.0989425163
 21
9.661176884
 31
0.0
  0
LINE
  5
24A
330
1F
100
AcDbEntity
  8
CLIPPED-EAR-FATFACE-24AND5
100
AcDbLine
 10
-11.0989425163
 20
9.661176884
 30
0.0
 11
-10.9987907195
 21
9.5470583127
 31
0.0
  0
LINE
  5
24B
330
1F
100
AcDbEntity
  8
CLIPPED-EAR-FATFACE-24AND5
100
AcDbLine
 10
-10.9987907195
 20
9.5470583127
 30
0.0
 11
-10.892702354
 21
9.4340354863
 31
0.0
  0
LINE
  5
24C
330
1F
100
AcDbEntity
  8
CLIPPED-EAR-FATFACE-24AND5
100
AcDbLine
 10
-10.892702354
 20
9.4340354863
 30
0.0
 11
-10.7807363371
 21
9.3221711731
 31
0.0
  0
LINE
  5
24D
330
1F
100
AcDbEntity
  8
CLIPPED-EAR-FATFACE-24AND5
100
AcDbLine
 10
-10.7807363371
 20
9.3221711731
 30
0.0
 11
-10.6629548503
 21
9.2115274983
 31
0.0
  0
LINE
  5
24E
330
1F
100
AcDbEntity
  8
CLIPPED-EAR-FATFACE-24AND5
100
AcDbLine
 10
-10.6629548503
 20
9.2115274983
 30
0.0
 11
-10.5499515156
 21
9.1111578295
 31
0.0
  0
LINE
  5
24F
330
1F
100
AcDbEntity
  8
CLIPPED-EAR-FATFACE-24AND5
100
AcDbLine
 10
-10.5499515156
 20
9.1111578295
 30
0.0
 11
-10.4323165981
 21
9.0118757997
 31
0.0
  0
LINE
  5
250
330
1F
100
AcDbEntity
  8
CLIPPED-EAR-FATFACE-24AND5
100
AcDbLine
 10
-10.4323165981
 20
9.0118757997
 30
0.0
 11
-10.3101015681
 21
8.9137248492
 31
0.0
  0
LINE
  5
251
330
1F
100
AcDbEntity
  8
CLIPPED-EAR-FATFACE-24AND5
100
AcDbLine
 10
-10.3101015681
 20
8.9137248492
 30
0.0
 11
-10.1833599004
 21
8.8167479234
 31
0.0
  0
LINE
  5
252
330
1F
100
AcDbEntity
  8
CLIPPED-EAR-FATFACE-24AND5
100
AcDbLine
 10
-10.1833599004
 20
8.8167479234
 30
0.0
 11
-10.0526132773
 21
8.7213528726
 31
0.0
  0
LINE
  5
253
330
1F
100
AcDbEntity
  8
CLIPPED-EAR-FATFACE-24AND5
100
AcDbLine
 10
-10.0526132773
 20
8.7213528726
 30
0.0
 11
-9.9174202734
 21
8.6272261381
 31
0.0
  0
LINE
  5
254
330
1F
100
AcDbEntity
  8
CLIPPED-EAR-FATFACE-24AND5
100
AcDbLine
 10
-9.9174202734
 20
8.6272261381
 30
0.0
 11
-9.777841389
 21
8.5344098425
 31
0.0
  0
LINE
  5
255
330
1F
100
AcDbEntity
  8
CLIPPED-EAR-FATFACE-24AND5
100
AcDbLine
 10
-9.777841389
 20
8.5344098425
 30
0.0
 11
-9.633939087
 21
8.4429455224
 31
0.0
  0
LINE
  5
256
330
1F
100
AcDbEntity
  8
CLIPPED-EAR-FATFACE-24AND5
100
AcDbLine
 10
-9.633939087
 20
8.4429455224
 30
0.0
 11
-9.4833176838
 21
8.3513425431
 31
0.0
  0
LINE
  5
257
330
1F
100
AcDbEntity
  8
CLIPPED-EAR-FATFACE-24AND5
100
AcDbLine
 10
-9.4833176838
 20
8.3513425431
 30
0.0
 11
-9.3285074139
 21
8.2611703444
 31
0.0
  0
LINE
  5
258
330
1F
100
AcDbEntity
  8
CLIPPED-EAR-FATFACE-24AND5
100
AcDbLine
 10
-9.3285074139
 20
8.2611703444
 30
0.0
 11
-9.169575117
 21
8.1724678583
 31
0.0
  0
LINE
  5
259
330
1F
100
AcDbEntity
  8
CLIPPED-EAR-FATFACE-24AND5
100
AcDbLine
 10
-9.169575117
 20
8.1724678583
 30
0.0
 11
-9.0065894122
 21
8.0852733822
 31
0.0
  0
LINE
  5
25A
330
1F
100
AcDbEntity
  8
CLIPPED-EAR-FATFACE-24AND5
100
AcDbLine
 10
-9.0065894122
 20
8.0852733822
 30
0.0
 11
-8.8337411429
 21
7.9964191898
 31
0.0
  0
LINE
  5
25B
330
1F
100
AcDbEntity
  8
CLIPPED-EAR-FATFACE-24AND5
100
AcDbLine
 10
-8.8337411429
 20
7.9964191898
 30
0.0
 11
-8.6572450341
 21
7.9090348903
 31
0.0
  0
LINE
  5
25C
330
1F
100
AcDbEntity
  8
CLIPPED-EAR-FATFACE-24AND5
100
AcDbLine
 10
-8.6572450341
 20
7.9090348903
 30
0.0
 11
-8.4771625646
 21
7.8231509222
 31
0.0
  0
LINE
  5
25D
330
1F
100
AcDbEntity
  8
CLIPPED-EAR-FATFACE-24AND5
100
AcDbLine
 10
-8.4771625646
 20
7.8231509222
 30
0.0
 11
-8.2935564623
 21
7.7387972013
 31
0.0
  0
LINE
  5
25E
330
1F
100
AcDbEntity
  8
CLIPPED-EAR-FATFACE-24AND5
100
AcDbLine
 10
-8.2935564623
 20
7.7387972013
 30
0.0
 11
-8.0259563126
 21
7.6209371715
 31
0.0
  0
LINE
  5
25F
330
1F
100
AcDbEntity
  8
CLIPPED-EAR-FATFACE-24AND5
100
AcDbLine
 10
-8.0259563126
 20
7.6209371715
 30
0.0
 11
-7.7522730254
 21
7.5059517698
 31
0.0
  0
LINE
  5
260
330
1F
100
AcDbEntity
  8
CLIPPED-EAR-FATFACE-24AND5
100
AcDbLine
 10
-7.7522730254
 20
7.5059517698
 30
0.0
 11
-7.4864437027
 21
7.3998570582
 31
0.0
  0
LINE
  5
261
330
1F
100
AcDbEntity
  8
CLIPPED-EAR-FATFACE-24AND5
100
AcDbLine
 10
-7.4864437027
 20
7.3998570582
 30
0.0
 11
-7.2142317875
 21
7.2971049261
 31
0.0
  0
LINE
  5
262
330
1F
100
AcDbEntity
  8
CLIPPED-EAR-FATFACE-24AND5
100
AcDbLine
 10
-7.2142317875
 20
7.2971049261
 30
0.0
 11
-6.9333155782
 21
7.1968410123
 31
0.0
  0
LINE
  5
263
330
1F
100
AcDbEntity
  8
CLIPPED-EAR-FATFACE-24AND5
100
AcDbLine
 10
-6.9333155782
 20
7.1968410123
 30
0.0
 11
-6.6464419079
 21
7.1000668599
 31
0.0
  0
LINE
  5
264
330
1F
100
AcDbEntity
  8
CLIPPED-EAR-FATFACE-24AND5
100
AcDbLine
 10
-6.6464419079
 20
7.1000668599
 30
0.0
 11
-6.3334203265
 21
6.999813933
 31
0.0
  0
LINE
  5
265
330
1F
100
AcDbEntity
  8
CLIPPED-EAR-FATFACE-24AND5
100
AcDbLine
 10
-6.3334203265
 20
6.999813933
 30
0.0
 11
-6.0155487919
 21
6.9027127002
 31
0.0
  0
LINE
  5
266
330
1F
100
AcDbEntity
  8
CLIPPED-EAR-FATFACE-24AND5
100
AcDbLine
 10
-6.0155487919
 20
6.9027127002
 30
0.0
 11
-5.7985554126
 21
6.8389318336
 31
0.0
  0
LINE
  5
267
330
1F
100
AcDbEntity
  8
CLIPPED-EAR-FATFACE-24AND5
100
AcDbLine
 10
-5.7985554126
 20
6.8389318336
 30
0.0
 11
-5.5796921225
 21
6.7764632641
 31
0.0
  0
LINE
  5
268
330
1F
100
AcDbEntity
  8
CLIPPED-EAR-FATFACE-24AND5
100
AcDbLine
 10
-5.5796921225
 20
6.7764632641
 30
0.0
 11
-5.3799859482
 21
6.7214258317
 31
0.0
  0
LINE
  5
269
330
1F
100
AcDbEntity
  8
CLIPPED-EAR-FATFACE-24AND5
100
AcDbLine
 10
-5.3799859482
 20
6.7214258317
 30
0.0
 11
-5.1781051477
 21
6.6680255204
 31
0.0
  0
LINE
  5
26A
330
1F
100
AcDbEntity
  8
CLIPPED-EAR-FATFACE-24AND5
100
AcDbLine
 10
-5.1781051477
 20
6.6680255204
 30
0.0
 11
-4.9728901716
 21
6.6159606141
 31
0.0
  0
LINE
  5
26B
330
1F
100
AcDbEntity
  8
CLIPPED-EAR-FATFACE-24AND5
100
AcDbLine
 10
-4.9728901716
 20
6.6159606141
 30
0.0
 11
-4.7656363273
 21
6.5655641733
 31
0.0
  0
LINE
  5
26C
330
1F
100
AcDbEntity
  8
CLIPPED-EAR-FATFACE-24AND5
100
AcDbLine
 10
-4.7656363273
 20
6.5655641733
 30
0.0
 11
-4.5318985001
 21
6.510804547
 31
0.0
  0
LINE
  5
26D
330
1F
100
AcDbEntity
  8
CLIPPED-EAR-FATFACE-24AND5
100
AcDbLine
 10
-4.5318985001
 20
6.510804547
 30
0.0
 11
-4.2966207919
 21
6.4574022873
 31
0.0
  0
LINE
  5
26E
330
1F
100
AcDbEntity
  8
CLIPPED-EAR-FATFACE-24AND5
100
AcDbLine
 10
-4.2966207919
 20
6.4574022873
 30
0.0
 11
-3.5656328892
 21
6.3037858587
 31
0.0
  0
LINE
  5
26F
330
1F
100
AcDbEntity
  8
CLIPPED-EAR-FATFACE-24AND5
100
AcDbLine
 10
-3.5656328892
 20
6.3037858587
 30
0.0
 11
-2.8192614216
 21
6.1660250999
 31
0.0
  0
LINE
  5
270
330
1F
100
AcDbEntity
  8
CLIPPED-EAR-FATFACE-24AND5
100
AcDbLine
 10
-2.8192614216
 20
6.1660250999
 30
0.0
 11
-2.0543656371
 21
6.043480674
 31
0.0
  0
LINE
  5
271
330
1F
100
AcDbEntity
  8
CLIPPED-EAR-FATFACE-24AND5
100
AcDbLine
 10
-2.0543656371
 20
6.043480674
 30
0.0
 11
-1.2776198166
 21
5.9371627834
 31
0.0
  0
LINE
  5
272
330
1F
100
AcDbEntity
  8
CLIPPED-EAR-FATFACE-24AND5
100
AcDbLine
 10
-1.2776198166
 20
5.9371627834
 30
0.0
 11
-0.4837752129
 21
5.8464297801
 31
0.0
  0
LINE
  5
273
330
1F
100
AcDbEntity
  8
CLIPPED-EAR-FATFACE-24AND5
100
AcDbLine
 10
-0.4837752129
 20
5.8464297801
 30
0.0
 11
0.3185261877
 21
5.7723451516
 31
0.0
  0
LINE
  5
274
330
1F
100
AcDbEntity
  8
CLIPPED-EAR-FATFACE-24AND5
100
AcDbLine
 10
0.3185261877
 20
5.7723451516
 30
0.0
 11
1.1362547609
 21
5.7141740865
 31
0.0
  0
LINE
  5
275
330
1F
100
AcDbEntity
  8
CLIPPED-EAR-FATFACE-24AND5
100
AcDbLine
 10
1.1362547609
 20
5.7141740865
 30
0.0
 11
1.9589398021
 21
5.6725680319
 31
0.0
  0
LINE
  5
276
330
1F
100
AcDbEntity
  8
CLIPPED-EAR-FATFACE-24AND5
100
AcDbLine
 10
1.9589398021
 20
5.6725680319
 30
0.0
 11
2.1785857945
 21
5.6640853553
 31
0.0
  0
LINE
  5
277
330
1F
100
AcDbEntity
  8
CLIPPED-EAR-FATFACE-24AND5
100
AcDbLine
 10
2.1785857945
 20
5.6640853553
 30
0.0
 11
2.3983705526
 21
5.656367833
 31
0.0
  0
LINE
  5
278
330
1F
100
AcDbEntity
  8
CLIPPED-EAR-FATFACE-24AND5
100
AcDbLine
 10
2.3983705526
 20
5.656367833
 30
0.0
 11
2.5631225973
 21
5.6515429767
 31
0.0
  0
LINE
  5
279
330
1F
100
AcDbEntity
  8
CLIPPED-EAR-FATFACE-24AND5
100
AcDbLine
 10
2.5631225973
 20
5.6515429767
 30
0.0
 11
2.7280405737
 21
5.6480559691
 31
0.0
  0
LINE
  5
27A
330
1F
100
AcDbEntity
  8
CLIPPED-EAR-FATFACE-24AND5
100
AcDbLine
 10
2.7280405737
 20
5.6480559691
 30
0.0
 11
2.9100752671
 21
5.6455625953
 31
0.0
  0
LINE
  5
27B
330
1F
100
AcDbEntity
  8
CLIPPED-EAR-FATFACE-24AND5
100
AcDbLine
 10
2.9100752671
 20
5.6455625953
 30
0.0
 11
3.0921723795
 21
5.6442990338
 31
0.0
  0
LINE
  5
27C
330
1F
100
AcDbEntity
  8
CLIPPED-EAR-FATFACE-24AND5
100
AcDbLine
 10
3.0921723795
 20
5.6442990338
 30
0.0
 11
3.3835378225
 21
5.6435209458
 31
0.0
  0
LINE
  5
27D
330
1F
100
AcDbEntity
  8
CLIPPED-EAR-FATFACE-24AND5
100
AcDbLine
 10
3.3835378225
 20
5.6435209458
 30
0.0
 11
3.6749078081
 21
5.6432614983
 31
0.0
  0
LINE
  5
27E
330
1F
100
AcDbEntity
  8
CLIPPED-EAR-FATFACE-24AND5
100
AcDbLine
 10
3.6749078081
 20
5.6432614983
 30
0.0
 11
3.9662777937
 21
5.6435209458
 31
0.0
  0
LINE
  5
27F
330
1F
100
AcDbEntity
  8
CLIPPED-EAR-FATFACE-24AND5
100
AcDbLine
 10
3.9662777937
 20
5.6435209458
 30
0.0
 11
4.2576432367
 21
5.6442990338
 31
0.0
  0
LINE
  5
280
330
1F
100
AcDbEntity
  8
CLIPPED-EAR-FATFACE-24AND5
100
AcDbLine
 10
4.2576432367
 20
5.6442990338
 30
0.0
 11
4.4397403491
 21
5.6455625953
 31
0.0
  0
LINE
  5
281
330
1F
100
AcDbEntity
  8
CLIPPED-EAR-FATFACE-24AND5
100
AcDbLine
 10
4.4397403491
 20
5.6455625953
 30
0.0
 11
4.6217750426
 21
5.6480559691
 31
0.0
  0
LINE
  5
282
330
1F
100
AcDbEntity
  8
CLIPPED-EAR-FATFACE-24AND5
100
AcDbLine
 10
4.6217750426
 20
5.6480559691
 30
0.0
 11
4.7866930189
 21
5.6515429767
 31
0.0
  0
LINE
  5
283
330
1F
100
AcDbEntity
  8
CLIPPED-EAR-FATFACE-24AND5
100
AcDbLine
 10
4.7866930189
 20
5.6515429767
 30
0.0
 11
4.9514450637
 21
5.656367833
 31
0.0
  0
LINE
  5
284
330
1F
100
AcDbEntity
  8
CLIPPED-EAR-FATFACE-24AND5
100
AcDbLine
 10
4.9514450637
 20
5.656367833
 30
0.0
 11
5.1712298217
 21
5.6640853553
 31
0.0
  0
LINE
  5
285
330
1F
100
AcDbEntity
  8
CLIPPED-EAR-FATFACE-24AND5
100
AcDbLine
 10
5.1712298217
 20
5.6640853553
 30
0.0
 11
5.3908758141
 21
5.6725680319
 31
0.0
  0
LINE
  5
286
330
1F
100
AcDbEntity
  8
CLIPPED-EAR-FATFACE-24AND5
100
AcDbLine
 10
5.3908758141
 20
5.6725680319
 30
0.0
 11
6.0478609641
 21
5.7045036418
 31
0.0
  0
LINE
  5
287
330
1F
100
AcDbEntity
  8
CLIPPED-EAR-FATFACE-24AND5
100
AcDbLine
 10
6.0478609641
 20
5.7045036418
 30
0.0
 11
6.7018544135
 21
5.7471318357
 31
0.0
  0
LINE
  5
288
330
1F
100
AcDbEntity
  8
CLIPPED-EAR-FATFACE-24AND5
100
AcDbLine
 10
6.7018544135
 20
5.7471318357
 30
0.0
 11
7.352064542
 21
5.8004008655
 31
0.0
  0
LINE
  5
289
330
1F
100
AcDbEntity
  8
CLIPPED-EAR-FATFACE-24AND5
100
AcDbLine
 10
7.352064542
 20
5.8004008655
 30
0.0
 11
7.9975774696
 21
5.8642351312
 31
0.0
  0
LINE
  5
28A
330
1F
100
AcDbEntity
  8
CLIPPED-EAR-FATFACE-24AND5
100
AcDbLine
 10
7.9975774696
 20
5.8642351312
 30
0.0
 11
8.631160773
 21
5.9378637155
 31
0.0
  0
LINE
  5
28B
330
1F
100
AcDbEntity
  8
CLIPPED-EAR-FATFACE-24AND5
100
AcDbLine
 10
8.631160773
 20
5.9378637155
 30
0.0
 11
9.2583587017
 21
6.0218738057
 31
0.0
  0
LINE
  5
28C
330
1F
100
AcDbEntity
  8
CLIPPED-EAR-FATFACE-24AND5
100
AcDbLine
 10
9.2583587017
 20
6.0218738057
 30
0.0
 11
9.8657324508
 21
6.1145842172
 31
0.0
  0
LINE
  5
28D
330
1F
100
AcDbEntity
  8
CLIPPED-EAR-FATFACE-24AND5
100
AcDbLine
 10
9.8657324508
 20
6.1145842172
 30
0.0
 11
10.4646734081
 21
6.2178465911
 31
0.0
  0
LINE
  5
28E
330
1F
100
AcDbEntity
  8
CLIPPED-EAR-FATFACE-24AND5
100
AcDbLine
 10
10.4646734081
 20
6.2178465911
 30
0.0
 11
11.0461310319
 21
6.3295463289
 31
0.0
  0
LINE
  5
28F
330
1F
100
AcDbEntity
  8
CLIPPED-EAR-FATFACE-24AND5
100
AcDbLine
 10
11.0461310319
 20
6.3295463289
 30
0.0
 11
11.6182166096
 21
6.450684744
 31
0.0
  0
LINE
  5
290
330
1F
100
AcDbEntity
  8
CLIPPED-EAR-FATFACE-24AND5
100
AcDbLine
 10
11.6182166096
 20
6.450684744
 30
0.0
 11
12.1695298913
 21
6.578958644
 31
0.0
  0
LINE
  5
291
330
1F
100
AcDbEntity
  8
CLIPPED-EAR-FATFACE-24AND5
100
AcDbLine
 10
12.1695298913
 20
6.578958644
 30
0.0
 11
12.7095232152
 21
6.7166736961
 31
0.0
  0
LINE
  5
292
330
1F
100
AcDbEntity
  8
CLIPPED-EAR-FATFACE-24AND5
100
AcDbLine
 10
12.7095232152
 20
6.7166736961
 30
0.0
 11
13.2280658077
 21
6.8611408401
 31
0.0
  0
LINE
  5
293
330
1F
100
AcDbEntity
  8
CLIPPED-EAR-FATFACE-24AND5
100
AcDbLine
 10
13.2280658077
 20
6.8611408401
 30
0.0
 11
13.7336987208
 21
7.0146286023
 31
0.0
  0
LINE
  5
294
330
1F
100
AcDbEntity
  8
CLIPPED-EAR-FATFACE-24AND5
100
AcDbLine
 10
13.7336987208
 20
7.0146286023
 30
0.0
 11
13.9773758677
 21
7.0934526612
 31
0.0
  0
LINE
  5
295
330
1F
100
AcDbEntity
  8
CLIPPED-EAR-FATFACE-24AND5
100
AcDbLine
 10
13.9773758677
 20
7.0934526612
 30
0.0
 11
14.2174175345
 21
7.1745125913
 31
0.0
  0
LINE
  5
296
330
1F
100
AcDbEntity
  8
CLIPPED-EAR-FATFACE-24AND5
100
AcDbLine
 10
14.2174175345
 20
7.1745125913
 30
0.0
 11
14.4537228163
 21
7.257774318
 31
0.0
  0
LINE
  5
297
330
1F
100
AcDbEntity
  8
CLIPPED-EAR-FATFACE-24AND5
100
AcDbLine
 10
14.4537228163
 20
7.257774318
 30
0.0
 11
14.686192379
 21
7.3432028411
 31
0.0
  0
LINE
  5
298
330
1F
100
AcDbEntity
  8
CLIPPED-EAR-FATFACE-24AND5
100
AcDbLine
 10
14.686192379
 20
7.3432028411
 30
0.0
 11
14.9828424746
 21
7.457727086
 31
0.0
  0
LINE
  5
299
330
1F
100
AcDbEntity
  8
CLIPPED-EAR-FATFACE-24AND5
100
AcDbLine
 10
14.9828424746
 20
7.457727086
 30
0.0
 11
15.2722602074
 21
7.5759533147
 31
0.0
  0
LINE
  5
29A
330
1F
100
AcDbEntity
  8
CLIPPED-EAR-FATFACE-24AND5
100
AcDbLine
 10
15.2722602074
 20
7.5759533147
 30
0.0
 11
15.5554517556
 21
7.6982786485
 31
0.0
  0
LINE
  5
29B
330
1F
100
AcDbEntity
  8
CLIPPED-EAR-FATFACE-24AND5
100
AcDbLine
 10
15.5554517556
 20
7.6982786485
 30
0.0
 11
15.8310291672
 21
7.8240894409
 31
0.0
  0
LINE
  5
29C
330
1F
100
AcDbEntity
  8
CLIPPED-EAR-FATFACE-24AND5
100
AcDbLine
 10
15.8310291672
 20
7.8240894409
 30
0.0
 11
16.0953103909
 21
7.9516578429
 31
0.0
  0
LINE
  5
29D
330
1F
100
AcDbEntity
  8
CLIPPED-EAR-FATFACE-24AND5
100
AcDbLine
 10
16.0953103909
 20
7.9516578429
 30
0.0
 11
16.3515637823
 21
8.0825133397
 31
0.0
  0
LINE
  5
29E
330
1F
100
AcDbEntity
  8
CLIPPED-EAR-FATFACE-24AND5
100
AcDbLine
 10
16.3515637823
 20
8.0825133397
 30
0.0
 11
16.472769718
 21
8.1471796586
 31
0.0
  0
LINE
  5
29F
330
1F
100
AcDbEntity
  8
CLIPPED-EAR-FATFACE-24AND5
100
AcDbLine
 10
16.472769718
 20
8.1471796586
 30
0.0
 11
16.5917607644
 21
8.2126768365
 31
0.0
  0
LINE
  5
2A0
330
1F
100
AcDbEntity
  8
CLIPPED-EAR-FATFACE-24AND5
100
AcDbLine
 10
16.5917607644
 20
8.2126768365
 30
0.0
 11
16.7085089076
 21
8.2789894537
 31
0.0
  0
LINE
  5
2A1
330
1F
100
AcDbEntity
  8
CLIPPED-EAR-FATFACE-24AND5
100
AcDbLine
 10
16.7085089076
 20
8.2789894537
 30
0.0
 11
16.822986662
 21
8.3461018983
 31
0.0
  0
LINE
  5
2A2
330
1F
100
AcDbEntity
  8
CLIPPED-EAR-FATFACE-24AND5
100
AcDbLine
 10
16.822986662
 20
8.3461018983
 30
0.0
 11
17.0709979276
 21
8.4991701015
 31
0.0
  0
LINE
  5
2A3
330
1F
100
AcDbEntity
  8
CLIPPED-EAR-FATFACE-24AND5
100
AcDbLine
 10
17.0709979276
 20
8.4991701015
 30
0.0
 11
17.3073238158
 21
8.6559514053
 31
0.0
  0
LINE
  5
2A4
330
1F
100
AcDbEntity
  8
CLIPPED-EAR-FATFACE-24AND5
100
AcDbLine
 10
17.3073238158
 20
8.6559514053
 30
0.0
 11
17.5316910978
 21
8.8162645465
 31
0.0
  0
LINE
  5
2A5
330
1F
100
AcDbEntity
  8
CLIPPED-EAR-FATFACE-24AND5
100
AcDbLine
 10
17.5316910978
 20
8.8162645465
 30
0.0
 11
17.7438403706
 21
8.9799241786
 31
0.0
  0
LINE
  5
2A6
330
1F
100
AcDbEntity
  8
CLIPPED-EAR-FATFACE-24AND5
100
AcDbLine
 10
17.7438403706
 20
8.9799241786
 30
0.0
 11
17.9378875274
 21
9.1425686558
 31
0.0
  0
LINE
  5
2A7
330
1F
100
AcDbEntity
  8
CLIPPED-EAR-FATFACE-24AND5
100
AcDbLine
 10
17.9378875274
 20
9.1425686558
 30
0.0
 11
18.1185424182
 21
9.3083194108
 31
0.0
  0
LINE
  5
2A8
330
1F
100
AcDbEntity
  8
CLIPPED-EAR-FATFACE-24AND5
100
AcDbLine
 10
18.1185424182
 20
9.3083194108
 30
0.0
 11
18.2855608269
 21
9.4769523753
 31
0.0
  0
LINE
  5
2A9
330
1F
100
AcDbEntity
  8
CLIPPED-EAR-FATFACE-24AND5
100
AcDbLine
 10
18.2855608269
 20
9.4769523753
 30
0.0
 11
18.4387169717
 21
9.648239585
 31
0.0
  0
LINE
  5
2AA
330
1F
100
AcDbEntity
  8
CLIPPED-EAR-FATFACE-24AND5
100
AcDbLine
 10
18.4387169717
 20
9.648239585
 30
0.0
 11
18.5088966937
 21
9.7334698189
 31
0.0
  0
LINE
  5
2AB
330
1F
100
AcDbEntity
  8
CLIPPED-EAR-FATFACE-24AND5
100
AcDbLine
 10
18.5088966937
 20
9.7334698189
 30
0.0
 11
18.5755299856
 21
9.8192767201
 31
0.0
  0
LINE
  5
2AC
330
1F
100
AcDbEntity
  8
CLIPPED-EAR-FATFACE-24AND5
100
AcDbLine
 10
18.5755299856
 20
9.8192767201
 30
0.0
 11
18.6385935551
 21
9.9056302941
 31
0.0
  0
LINE
  5
2AD
330
1F
100
AcDbEntity
  8
CLIPPED-EAR-FATFACE-24AND5
100
AcDbLine
 10
18.6385935551
 20
9.9056302941
 30
0.0
 11
18.6980653577
 21
9.9925003552
 31
0.0
  0
LINE
  5
2AE
330
1F
100
AcDbEntity
  8
CLIPPED-EAR-FATFACE-24AND5
100
AcDbLine
 10
18.6980653577
 20
9.9925003552
 30
0.0
 11
18.7539246046
 21
10.0798565371
 31
0.0
  0
LINE
  5
2AF
330
1F
100
AcDbEntity
  8
CLIPPED-EAR-FATFACE-24AND5
100
AcDbLine
 10
18.7539246046
 20
10.0798565371
 30
0.0
 11
18.8061517695
 21
10.1676683037
 31
0.0
  0
LINE
  5
2B0
330
1F
100
AcDbEntity
  8
CLIPPED-EAR-FATFACE-24AND5
100
AcDbLine
 10
18.8061517695
 20
10.1676683037
 30
0.0
 11
18.8547285961
 21
10.2559049596
 31
0.0
  0
LINE
  5
2B1
330
1F
100
AcDbEntity
  8
CLIPPED-EAR-FATFACE-24AND5
100
AcDbLine
 10
18.8547285961
 20
10.2559049596
 30
0.0
 11
18.8996381037
 21
10.3445356606
 31
0.0
  0
LINE
  5
2B2
330
1F
100
AcDbEntity
  8
CLIPPED-EAR-FATFACE-24AND5
100
AcDbLine
 10
18.8996381037
 20
10.3445356606
 30
0.0
 11
18.9407127108
 21
10.4332419972
 31
0.0
  0
LINE
  5
2B3
330
1F
100
AcDbEntity
  8
CLIPPED-EAR-FATFACE-24AND5
100
AcDbLine
 10
18.9407127108
 20
10.4332419972
 30
0.0
 11
18.9780656474
 21
10.5222821462
 31
0.0
  0
LINE
  5
2B4
330
1F
100
AcDbEntity
  8
CLIPPED-EAR-FATFACE-24AND5
100
AcDbLine
 10
18.9780656474
 20
10.5222821462
 30
0.0
 11
19.0116835993
 21
10.6116243697
 31
0.0
  0
LINE
  5
2B5
330
1F
100
AcDbEntity
  8
CLIPPED-EAR-FATFACE-24AND5
100
AcDbLine
 10
19.0116835993
 20
10.6116243697
 30
0.0
 11
19.0415545835
 21
10.7012368223
 31
0.0
  0
LINE
  5
2B6
330
1F
100
AcDbEntity
  8
CLIPPED-EAR-FATFACE-24AND5
100
AcDbLine
 10
19.0415545835
 20
10.7012368223
 30
0.0
 11
19.0676679527
 21
10.7910875619
 31
0.0
  0
LINE
  5
2B7
330
1F
100
AcDbEntity
  8
CLIPPED-EAR-FATFACE-24AND5
100
AcDbLine
 10
19.0676679527
 20
10.7910875619
 30
0.0
 11
19.0900143989
 21
10.8811445619
 31
0.0
  0
LINE
  5
2B8
330
1F
100
AcDbEntity
  8
CLIPPED-EAR-FATFACE-24AND5
100
AcDbLine
 10
19.0900143989
 20
10.8811445619
 30
0.0
 11
19.1085859569
 21
10.9713757218
 31
0.0
  0
LINE
  5
2B9
330
1F
100
AcDbEntity
  8
CLIPPED-EAR-FATFACE-24AND5
100
AcDbLine
 10
19.1085859569
 20
10.9713757218
 30
0.0
 11
19.1233760068
 21
11.0617488793
 31
0.0
  0
LINE
  5
2BA
330
1F
100
AcDbEntity
  8
CLIPPED-EAR-FATFACE-24AND5
100
AcDbLine
 10
19.1233760068
 20
11.0617488793
 30
0.0
 11
19.1273202185
 21
11.0922292506
 31
0.0
  0
LINE
  5
2BB
330
1F
100
AcDbEntity
  8
CLIPPED-EAR-FATFACE-24AND5
100
AcDbLine
 10
19.1273202185
 20
11.0922292506
 30
0.0
 11
19.1304615477
 21
11.1227285863
 31
0.0
  0
LINE
  5
2BC
330
1F
100
AcDbEntity
  8
CLIPPED-EAR-FATFACE-24AND5
100
AcDbLine
 10
19.1304615477
 20
11.1227285863
 30
0.0
 11
19.1327995516
 21
11.1532425873
 31
0.0
  0
LINE
  5
2BD
330
1F
100
AcDbEntity
  8
CLIPPED-EAR-FATFACE-24AND5
100
AcDbLine
 10
19.1327995516
 20
11.1532425873
 30
0.0
 11
19.1343339007
 21
11.1837669525
 31
0.0
  0
CIRCLE
  5
2BE
330
1F
100
AcDbEntity
  8
CLIPPED-EAR-FATFACE-24AND5
100
AcDbCircle
 10
0.0
 20
15.0
 30
0.0
 40
0.4800000000000038
  0
ENDSEC
  0
SECTION
  2
OBJECTS
  0
DICTIONARY
  5
C
330
0
100
AcDbDictionary
281
     1
  3
ACAD_GROUP
350
D
  3
ACAD_LAYOUT
350
1A
  3
ACAD_MLINESTYLE
350
17
  3
ACAD_PLOTSETTINGS
350
19
  3
ACAD_PLOTSTYLENAME
350
E
  3
ACAD_SCALELIST
350
47
  3
DWGPROPS
350
2BF
  0
DICTIONARY
  5
D
102
{ACAD_REACTORS
330
C
102
}
330
C
100
AcDbDictionary
281
     1
  0
DICTIONARY
  5
1A
102
{ACAD_REACTORS
330
C
102
}
330
C
100
AcDbDictionary
281
     1
  3
Layout1
350
1E
  3
Layout2
350
26
  3
Model
350
22
  0
DICTIONARY
  5
17
102
{ACAD_REACTORS
330
C
102
}
330
C
100
AcDbDictionary
281
     1
  3
Standard
350
18
  0
DICTIONARY
  5
19
102
{ACAD_REACTORS
330
C
102
}
330
C
100
AcDbDictionary
281
     1
  0
ACDBDICTIONARYWDFLT
  5
E
102
{ACAD_REACTORS
330
C
102
}
330
C
100
AcDbDictionary
281
     1
  3
Normal
350
F
100
AcDbDictionaryWithDefault
340
F
  0
DICTIONARY
  5
47
102
{ACAD_REACTORS
330
C
102
}
330
C
100
AcDbDictionary
281
     1
  3
A0
350
48
  3
A1
350
49
  3
A2
350
4A
  3
A3
350
4B
  3
A4
350
4C
  3
A5
350
4D
  3
A6
350
4E
  3
A7
350
4F
  3
A8
350
50
  3
A9
350
51
  3
B1
350
52
  3
B2
350
53
  3
B3
350
54
  3
B4
350
55
  3
B5
350
56
  3
B6
350
57
  3
B7
350
58
  0
XRECORD
  5
2BF
102
{ACAD_REACTORS
330
C
102
}
330
C
100
AcDbXrecord
280
     1
  1
DWGPROPS COOKIE
  2

  3

  4

  6

  7

  8
linkouslc
  9

300
=
301
=
302
=
303
=
304
=
305
=
306
=
307
=
308
=
309
=
 40
0.0
 41
2460354.854680903
 42
2460354.854681285
  1

 90
        0
  0
LAYOUT
  5
1E
102
{ACAD_REACTORS
330
1A
102
}
330
1A
100
AcDbPlotSettings
  1

  2
none_device
  4

  6

 40
0.0
 41
0.0
 42
0.0
 43
0.0
 44
0.0
 45
0.0
 46
0.0
 47
0.0
 48
0.0
 49
0.0
140
0.0
141
0.0
142
1.0
143
1.0
 70
   688
 72
     0
 73
     0
 74
     5
  7

 75
    16
147
1.0
148
0.0
149
0.0
100
AcDbLayout
  1
Layout1
 70
     1
 71
     1
 10
0.0
 20
0.0
 11
12.0
 21
9.0
 12
0.0
 22
0.0
 32
0.0
 14
1.0000000000E+20
 24
1.0000000000E+20
 34
1.0000000000E+20
 15
-1.0000000000E+20
 25
-1.0000000000E+20
 35
-1.0000000000E+20
146
0.0
 13
0.0
 23
0.0
 33
0.0
 16
1.0
 26
0.0
 36
0.0
 17
0.0
 27
1.0
 37
0.0
 76
     0
330
1B
  0
LAYOUT
  5
26
102
{ACAD_REACTORS
330
1A
102
}
330
1A
100
AcDbPlotSettings
  1

  2
none_device
  4

  6

 40
0.0
 41
0.0
 42
0.0
 43
0.0
 44
0.0
 45
0.0
 46
0.0
 47
0.0
 48
0.0
 49
0.0
140
0.0
141
0.0
142
1.0
143
1.0
 70
   688
 72
     0
 73
     0
 74
     5
  7

 75
    16
147
1.0
148
0.0
149
0.0
100
AcDbLayout
  1
Layout2
 70
     1
 71
     2
 10
0.0
 20
0.0
 11
0.0
 21
0.0
 12
0.0
 22
0.0
 32
0.0
 14
0.0
 24
0.0
 34
0.0
 15
0.0
 25
0.0
 35
0.0
146
0.0
 13
0.0
 23
0.0
 33
0.0
 16
1.0
 26
0.0
 36
0.0
 17
0.0
 27
1.0
 37
0.0
 76
     0
330
23
  0
LAYOUT
  5
22
102
{ACAD_REACTORS
330
1A
102
}
330
1A
100
AcDbPlotSettings
  1

  2
none_device
  4
Letter_(8.50_x_11.00_Inches)
  6

 40
6.35
 41
6.35
 42
6.35000508
 43
6.35000508
 44
215.9
 45
279.4
 46
0.0
 47
0.0
 48
0.0
 49
0.0
140
0.0
141
0.0
142
1.0
143
1.0
 70
  1712
 72
     0
 73
     0
 74
     0
  7

 75
     0
147
1.0
148
0.0
149
0.0
100
AcDbLayout
  1
Model
 70
     1
 71
     0
 10
0.0
 20
0.0
 11
44.0
 21
34.0
 12
0.0
 22
0.0
 32
0.0
 14
0.0
 24
0.0
 34
0.0
 15
44.0
 25
34.0
 35
0.0
146
0.0
 13
0.0
 23
0.0
 33
0.0
 16
1.0
 26
0.0
 36
0.0
 17
0.0
 27
1.0
 37
0.0
 76
     0
330
1F
331
29
  0
MLINESTYLE
  5
18
102
{ACAD_REACTORS
330
17
102
}
330
17
100
AcDbMlineStyle
  2
Standard
 70
     0
  3

 62
   256
 51
90.0
 52
90.0
 71
     2
 49
0.5
 62
   256
  6
BYLAYER
 49
-0.5
 62
   256
  6
BYLAYER
  0
ACDBPLACEHOLDER
  5
F
102
{ACAD_REACTORS
330
E
102
}
330
E
  0
SCALE
  5
48
102
{ACAD_REACTORS
330
47
102
}
330
47
100
AcDbScale
 70
     0
300
1:1
140
1.0
141
1.0
290
     1
  0
SCALE
  5
49
102
{ACAD_REACTORS
330
47
102
}
330
47
100
AcDbScale
 70
     0
300
1/128" = 1'-0"
140
0.0078125
141
12.0
290
     0
  0
SCALE
  5
4A
102
{ACAD_REACTORS
330
47
102
}
330
47
100
AcDbScale
 70
     0
300
1/64" = 1'-0"
140
0.015625
141
12.0
290
     0
  0
SCALE
  5
4B
102
{ACAD_REACTORS
330
47
102
}
330
47
100
AcDbScale
 70
     0
300
1/32" = 1'-0"
140
0.03125
141
12.0
290
     0
  0
SCALE
  5
4C
102
{ACAD_REACTORS
330
47
102
}
330
47
100
AcDbScale
 70
     0
300
1/16" = 1'-0"
140
0.0625
141
12.0
290
     0
  0
SCALE
  5
4D
102
{ACAD_REACTORS
330
47
102
}
330
47
100
AcDbScale
 70
     0
300
3/32" = 1'-0"
140
0.09375
141
12.0
290
     0
  0
SCALE
  5
4E
102
{ACAD_REACTORS
330
47
102
}
330
47
100
AcDbScale
 70
     0
300
1/8" = 1'-0"
140
0.125
141
12.0
290
     0
  0
SCALE
  5
4F
102
{ACAD_REACTORS
330
47
102
}
330
47
100
AcDbScale
 70
     0
300
3/16" = 1'-0"
140
0.1875
141
12.0
290
     0
  0
SCALE
  5
50
102
{ACAD_REACTORS
330
47
102
}
330
47
100
AcDbScale
 70
     0
300
1/4" = 1'-0"
140
0.25
141
12.0
290
     0
  0
SCALE
  5
51
102
{ACAD_REACTORS
330
47
102
}
330
47
100
AcDbScale
 70
     0
300
3/8" = 1'-0"
140
0.375
141
12.0
290
     0
  0
SCALE
  5
52
102
{ACAD_REACTORS
330
47
102
}
330
47
100
AcDbScale
 70
     0
300
1/2" = 1'-0"
140
0.5
141
12.0
290
     0
  0
SCALE
  5
53
102
{ACAD_REACTORS
330
47
102
}
330
47
100
AcDbScale
 70
     0
300
3/4" = 1'-0"
140
0.75
141
12.0
290
     0
  0
SCALE
  5
54
102
{ACAD_REACTORS
330
47
102
}
330
47
100
AcDbScale
 70
     0
300
1" = 1'-0"
140
1.0
141
12.0
290
     0
  0
SCALE
  5
55
102
{ACAD_REACTORS
330
47
102
}
330
47
100
AcDbScale
 70
     0
300
1-1/2" = 1'-0"
140
1.5
141
12.0
290
     0
  0
SCALE
  5
56
102
{ACAD_REACTORS
330
47
102
}
330
47
100
AcDbScale
 70
     0
300
3" = 1'-0"
140
3.0
141
12.0
290
     0
  0
SCALE
  5
57
102
{ACAD_REACTORS
330
47
102
}
330
47
100
AcDbScale
 70
     0
300
6" = 1'-0"
140
6.0
141
12.0
290
     0
  0
SCALE
  5
58
102
{ACAD_REACTORS
330
47
102
}
330
47
100
AcDbScale
 70
     0
300
1'-0" = 1'-0"
140
12.0
141
12.0
290
     0
  0
ENDSEC
  0
EOF
