  0
SECTION
  2
HEADER
  9
$ACADVER
  1
AC1015
  9
$ACADMAINTVER
 70
     6
  9
$DWGCODEPAGE
  3
ANSI_1252
  9
$INSBASE
 10
0.0
 20
0.0
 30
0.0
  9
$EXTMIN
 10
0.0
 20
0.0
 30
0.0
  9
$EXTMAX
 10
44.0
 20
34.0
 30
0.0
  9
$LIMMIN
 10
0.0
 20
0.0
  9
$LIMMAX
 10
44.0
 20
34.0
  9
$ORTHOMODE
 70
     0
  9
$REGENMODE
 70
     1
  9
$FILLMODE
 70
     1
  9
$QTEXTMODE
 70
     0
  9
$MIRRTEXT
 70
     1
  9
$LTSCALE
 40
1.0
  9
$ATTMODE
 70
     1
  9
$TEXTSIZE
 40
0.1377952756
  9
$TRACEWID
 40
0.05
  9
$TEXTSTYLE
  7
Standard
  9
$CLAYER
  8
0
  9
$CELTYPE
  6
ByLayer
  9
$CECOLOR
 62
   256
  9
$CELTSCALE
 40
1.0
  9
$DISPSILH
 70
     0
  9
$DIMSCALE
 40
1.0
  9
$DIMASZ
 40
0.14
  9
$DIMEXO
 40
0.0393700787
  9
$DIMDLI
 40
0.38
  9
$DIMRND
 40
0.0
  9
$DIMDLE
 40
0.0
  9
$DIMEXE
 40
0.0393700787
  9
$DIMTP
 40
0.0
  9
$DIMTM
 40
0.0
  9
$DIMTXT
 40
0.1377952756
  9
$DIMCEN
 40
0.09
  9
$DIMTSZ
 40
0.0
  9
$DIMTOL
 70
     0
  9
$DIMLIM
 70
     0
  9
$DIMTIH
 70
     1
  9
$DIMTOH
 70
     1
  9
$DIMSE1
 70
     0
  9
$DIMSE2
 70
     0
  9
$DIMTAD
 70
     1
  9
$DIMZIN
 70
     1
  9
$DIMBLK
  1

  9
$DIMASO
 70
     1
  9
$DIMSHO
 70
     1
  9
$DIMPOST
  1

  9
$DIMAPOST
  1

  9
$DIMALT
 70
     0
  9
$DIMALTD
 70
     2
  9
$DIMALTF
 40
25.4
  9
$DIMLFAC
 40
1.0
  9
$DIMTOFL
 70
     0
  9
$DIMTVP
 40
0.0
  9
$DIMTIX
 70
     0
  9
$DIMSOXD
 70
     0
  9
$DIMSAH
 70
     0
  9
$DIMBLK1
  1

  9
$DIMBLK2
  1

  9
$DIMSTYLE
  2
Standard
  9
$DIMCLRD
 70
     0
  9
$DIMCLRE
 70
     0
  9
$DIMCLRT
 70
     0
  9
$DIMTFAC
 40
1.0
  9
$DIMGAP
 40
0.06
  9
$DIMJUST
 70
     0
  9
$DIMSD1
 70
     0
  9
$DIMSD2
 70
     0
  9
$DIMTOLJ
 70
     1
  9
$DIMTZIN
 70
     1
  9
$DIMALTZ
 70
     0
  9
$DIMALTTZ
 70
     0
  9
$DIMUPT
 70
     0
  9
$DIMDEC
 70
     4
  9
$DIMTDEC
 70
     4
  9
$DIMALTU
 70
     2
  9
$DIMALTTD
 70
     2
  9
$DIMTXSTY
  7
Standard
  9
$DIMAUNIT
 70
     0
  9
$DIMADEC
 70
     0
  9
$DIMALTRND
 40
0.0
  9
$DIMAZIN
 70
     0
  9
$DIMDSEP
 70
    46
  9
$DIMATFIT
 70
     3
  9
$DIMFRAC
 70
     0
  9
$DIMLDRBLK
  1

  9
$DIMLUNIT
 70
     2
  9
$DIMLWD
 70
    -2
  9
$DIMLWE
 70
    -2
  9
$DIMTMOVE
 70
     0
  9
$LUNITS
 70
     2
  9
$LUPREC
 70
     4
  9
$SKETCHINC
 40
0.1
  9
$FILLETRAD
 40
0.0
  9
$AUNITS
 70
     0
  9
$AUPREC
 70
     0
  9
$MENU
  1
.
  9
$ELEVATION
 40
0.0
  9
$PELEVATION
 40
0.0
  9
$THICKNESS
 40
0.0
  9
$LIMCHECK
 70
     0
  9
$CHAMFERA
 40
0.0
  9
$CHAMFERB
 40
0.0
  9
$CHAMFERC
 40
0.0
  9
$CHAMFERD
 40
0.0
  9
$SKPOLY
 70
     0
  9
$TDCREATE
 40
2460359.74560375
  9
$TDUCREATE
 40
2460359.953937083
  9
$TDUPDATE
 40
2460359.745604306
  9
$TDUUPDATE
 40
2460359.953937639
  9
$TDINDWG
 40
0.0000000116
  9
$TDUSRTIMER
 40
0.0000000116
  9
$USRTIMER
 70
     1
  9
$ANGBASE
 50
0.0
  9
$ANGDIR
 70
     0
  9
$PDMODE
 70
     0
  9
$PDSIZE
 40
-1.0
  9
$PLINEWID
 40
0.0
  9
$SPLFRAME
 70
     0
  9
$SPLINETYPE
 70
     6
  9
$SPLINESEGS
 70
     8
  9
$HANDSEED
  5
2C2
  9
$SURFTAB1
 70
     6
  9
$SURFTAB2
 70
     6
  9
$SURFTYPE
 70
     6
  9
$SURFU
 70
     6
  9
$SURFV
 70
     6
  9
$UCSBASE
  2

  9
$UCSNAME
  2

  9
$UCSORG
 10
0.0
 20
0.0
 30
0.0
  9
$UCSXDIR
 10
1.0
 20
0.0
 30
0.0
  9
$UCSYDIR
 10
0.0
 20
1.0
 30
0.0
  9
$UCSORTHOREF
  2

  9
$UCSORTHOVIEW
 70
     0
  9
$UCSORGTOP
 10
0.0
 20
0.0
 30
0.0
  9
$UCSORGBOTTOM
 10
0.0
 20
0.0
 30
0.0
  9
$UCSORGLEFT
 10
0.0
 20
0.0
 30
0.0
  9
$UCSORGRIGHT
 10
0.0
 20
0.0
 30
0.0
  9
$UCSORGFRONT
 10
0.0
 20
0.0
 30
0.0
  9
$UCSORGBACK
 10
0.0
 20
0.0
 30
0.0
  9
$PUCSBASE
  2

  9
$PUCSNAME
  2

  9
$PUCSORG
 10
0.0
 20
0.0
 30
0.0
  9
$PUCSXDIR
 10
1.0
 20
0.0
 30
0.0
  9
$PUCSYDIR
 10
0.0
 20
1.0
 30
0.0
  9
$PUCSORTHOREF
  2

  9
$PUCSORTHOVIEW
 70
     0
  9
$PUCSORGTOP
 10
0.0
 20
0.0
 30
0.0
  9
$PUCSORGBOTTOM
 10
0.0
 20
0.0
 30
0.0
  9
$PUCSORGLEFT
 10
0.0
 20
0.0
 30
0.0
  9
$PUCSORGRIGHT
 10
0.0
 20
0.0
 30
0.0
  9
$PUCSORGFRONT
 10
0.0
 20
0.0
 30
0.0
  9
$PUCSORGBACK
 10
0.0
 20
0.0
 30
0.0
  9
$USERI1
 70
     0
  9
$USERI2
 70
     0
  9
$USERI3
 70
     0
  9
$USERI4
 70
     0
  9
$USERI5
 70
     0
  9
$USERR1
 40
0.0
  9
$USERR2
 40
0.0
  9
$USERR3
 40
0.0
  9
$USERR4
 40
0.0
  9
$USERR5
 40
0.0
  9
$WORLDVIEW
 70
     1
  9
$SHADEDGE
 70
     3
  9
$SHADEDIF
 70
    70
  9
$TILEMODE
 70
     1
  9
$MAXACTVP
 70
    64
  9
$PINSBASE
 10
0.0
 20
0.0
 30
0.0
  9
$PLIMCHECK
 70
     0
  9
$PEXTMIN
 10
1.0000000000E+20
 20
1.0000000000E+20
 30
1.0000000000E+20
  9
$PEXTMAX
 10
-1.0000000000E+20
 20
-1.0000000000E+20
 30
-1.0000000000E+20
  9
$PLIMMIN
 10
0.0
 20
0.0
  9
$PLIMMAX
 10
12.0
 20
9.0
  9
$UNITMODE
 70
     0
  9
$VISRETAIN
 70
     1
  9
$PLINEGEN
 70
     0
  9
$PSLTSCALE
 70
     1
  9
$TREEDEPTH
 70
  3020
  9
$CMLSTYLE
  2
Standard
  9
$CMLJUST
 70
     0
  9
$CMLSCALE
 40
1.0
  9
$PROXYGRAPHICS
 70
     1
  9
$MEASUREMENT
 70
     0
  9
$CELWEIGHT
370
    -1
  9
$ENDCAPS
280
     0
  9
$JOINSTYLE
280
     0
  9
$LWDISPLAY
290
     1
  9
$INSUNITS
 70
     1
  9
$HYPERLINKBASE
  1

  9
$STYLESHEET
  1

  9
$XEDIT
290
     1
  9
$CEPSNTYPE
380
     0
  9
$PSTYLEMODE
290
     1
  9
$FINGERPRINTGUID
  2
{426829a6-9677-4bd3-9ff0-558d6e90992e}
  9
$VERSIONGUID
  2
{FAEB1C32-E019-11D5-929B-00C0DF256EC4}
  9
$EXTNAMES
290
     1
  9
$PSVPSCALE
 40
0.0
  9
$OLESTARTUP
290
     0
  0
ENDSEC
  0
SECTION
  2
CLASSES
  0
CLASS
  1
ACDBDICTIONARYWDFLT
  2
AcDbDictionaryWithDefault
  3
ObjectDBX Classes
 90
        0
280
     0
281
     0
  0
CLASS
  1
VISUALSTYLE
  2
AcDbVisualStyle
  3
ObjectDBX Classes
 90
     4095
280
     0
281
     0
  0
CLASS
  1
MATERIAL
  2
AcDbMaterial
  3
ObjectDBX Classes
 90
     1153
280
     0
281
     0
  0
CLASS
  1
SCALE
  2
AcDbScale
  3
ObjectDBX Classes
 90
     1153
280
     0
281
     0
  0
CLASS
  1
TABLESTYLE
  2
AcDbTableStyle
  3
ObjectDBX Classes
 90
     4095
280
     0
281
     0
  0
CLASS
  1
MLEADERSTYLE
  2
AcDbMLeaderStyle
  3
ACDB_MLEADERSTYLE_CLASS
 90
     4095
280
     0
281
     0
  0
CLASS
  1
SUN
  2
AcDbSun
  3
SCENEOE
 90
     1153
280
     0
281
     0
  0
CLASS
  1
ACDBPLACEHOLDER
  2
AcDbPlaceHolder
  3
ObjectDBX Classes
 90
        0
280
     0
281
     0
  0
CLASS
  1
LAYOUT
  2
AcDbLayout
  3
ObjectDBX Classes
 90
        0
280
     0
281
     0
  0
ENDSEC
  0
SECTION
  2
TABLES
  0
TABLE
  2
VPORT
  5
8
330
0
100
AcDbSymbolTable
 70
     1
  0
VPORT
  5
29
330
8
100
AcDbSymbolTableRecord
100
AcDbViewportTableRecord
  2
*Active
 70
     0
 10
0.0
 20
0.0
 11
1.0
 21
1.0
 12
22.0
 22
17.0
 13
0.0
 23
0.0
 14
0.5
 24
0.5
 15
0.5
 25
0.5
 16
0.0
 26
0.0
 36
1.0
 17
0.0
 27
0.0
 37
0.0
 40
34.0
 41
1.2941176471
 42
50.0
 43
0.0
 44
0.0
 50
0.0
 51
0.0
 71
     0
 72
  2000
 73
     1
 74
     3
 75
     0
 76
     0
 77
     0
 78
     0
281
     0
 65
     1
110
0.0
120
0.0
130
0.0
111
1.0
121
0.0
131
0.0
112
0.0
122
1.0
132
0.0
 79
     0
146
0.0
  0
ENDTAB
  0
TABLE
  2
LTYPE
  5
5
330
0
100
AcDbSymbolTable
 70
     6
  0
LTYPE
  5
14
330
5
100
AcDbSymbolTableRecord
100
AcDbLinetypeTableRecord
  2
ByBlock
 70
     0
  3

 72
    65
 73
     0
 40
0.0
  0
LTYPE
  5
15
330
5
100
AcDbSymbolTableRecord
100
AcDbLinetypeTableRecord
  2
ByLayer
 70
     0
  3

 72
    65
 73
     0
 40
0.0
  0
LTYPE
  5
16
330
5
100
AcDbSymbolTableRecord
100
AcDbLinetypeTableRecord
  2
Continuous
 70
     0
  3
Solid line
 72
    65
 73
     0
 40
0.0
  0
LTYPE
  5
5E
330
5
100
AcDbSymbolTableRecord
100
AcDbLinetypeTableRecord
  2
HIDDEN
 70
     0
  3
Hidden __ __ __ __ __ __ __ __ __ __ __ __ __ __
 72
    65
 73
     2
 40
0.075
 49
0.05
 74
     0
 49
-0.025
 74
     0
  0
LTYPE
  5
5F
330
5
100
AcDbSymbolTableRecord
100
AcDbLinetypeTableRecord
  2
PHANTOM
 70
     0
  3
Phantom ______  __  __  ______  __  __  ______
 72
    65
 73
     6
 40
0.5
 49
0.25
 74
     0
 49
-0.05
 74
     0
 49
0.05
 74
     0
 49
-0.05
 74
     0
 49
0.05
 74
     0
 49
-0.05
 74
     0
  0
LTYPE
  5
60
330
5
100
AcDbSymbolTableRecord
100
AcDbLinetypeTableRecord
  2
CENTER
 70
     0
  3
Center ____ _ ____ _ ____ _ ____ _ ____ _ ____
 72
    65
 73
     4
 40
0.4
 49
0.25
 74
     0
 49
-0.05
 74
     0
 49
0.05
 74
     0
 49
-0.05
 74
     0
  0
LTYPE
  5
61
330
5
100
AcDbSymbolTableRecord
100
AcDbLinetypeTableRecord
  2
CENTERX2
 70
     0
  3
Center (2x) ________  __  ________  __  _____
 72
    65
 73
     4
 40
0.8
 49
0.5
 74
     0
 49
-0.1
 74
     0
 49
0.1
 74
     0
 49
-0.1
 74
     0
  0
LTYPE
  5
62
330
5
100
AcDbSymbolTableRecord
100
AcDbLinetypeTableRecord
  2
DOT2
 70
     0
  3
Dot (.5x) ........................................
 72
    65
 73
     2
 40
0.025
 49
0.0
 74
     0
 49
-0.025
 74
     0
  0
ENDTAB
  0
TABLE
  2
LAYER
  5
2
330
0
100
AcDbSymbolTable
 70
     5
  0
LAYER
  5
10
330
2
100
AcDbSymbolTableRecord
100
AcDbLayerTableRecord
  2
0
 70
     0
 62
     7
  6
Continuous
370
    -3
390
F
  0
LAYER
  5
63
330
2
100
AcDbSymbolTableRecord
100
AcDbLayerTableRecord
  2
SLD-0
 70
     0
 62
   179
  6
Continuous
370
    -3
390
F
  0
LAYER
  5
64
330
2
100
AcDbSymbolTableRecord
100
AcDbLayerTableRecord
  2
LAYER_1
 70
     0
 62
     1
  6
Continuous
370
    -3
390
F
  0
LAYER
  5
65
330
2
100
AcDbSymbolTableRecord
100
AcDbLayerTableRecord
  2
LAYER_2
 70
     0
 62
    30
  6
Continuous
370
    -3
390
F
  0
LAYER
  5
66
330
2
100
AcDbSymbolTableRecord
100
AcDbLayerTableRecord
  2
LAYER_3
 70
     0
 62
     2
  6
Continuous
370
    -3
390
F
  0
ENDTAB
  0
TABLE
  2
STYLE
  5
3
330
0
100
AcDbSymbolTable
 70
     2
  0
STYLE
  5
11
330
3
100
AcDbSymbolTableRecord
100
AcDbTextStyleTableRecord
  2
Standard
 70
     0
 40
0.0
 41
1.0
 50
0.0
 71
     0
 42
0.1377952756
  3
txt
  4

  0
STYLE
  5
2B8
330
3
100
AcDbSymbolTableRecord
100
AcDbTextStyleTableRecord
  2
SLDTEXTSTYLE0
 70
     0
 40
0.0
 41
0.75
 50
0.0
 71
     0
 42
0.1377952756
  3
TXT
  4

  0
ENDTAB
  0
TABLE
  2
VIEW
  5
6
330
0
100
AcDbSymbolTable
 70
     0
  0
ENDTAB
  0
TABLE
  2
UCS
  5
7
330
0
100
AcDbSymbolTable
 70
     0
  0
ENDTAB
  0
TABLE
  2
APPID
  5
9
330
0
100
AcDbSymbolTable
 70
     1
  0
APPID
  5
12
330
9
100
AcDbSymbolTableRecord
100
AcDbRegAppTableRecord
  2
ACAD
 70
     0
  0
ENDTAB
  0
TABLE
  2
DIMSTYLE
  5
A
330
0
100
AcDbSymbolTable
 70
     1
100
AcDbDimStyleTable
  0
DIMSTYLE
105
27
330
A
100
AcDbSymbolTableRecord
100
AcDbDimStyleTableRecord
  2
Standard
 70
     0
178
     0
340
11
  0
ENDTAB
  0
TABLE
  2
BLOCK_RECORD
  5
1
330
0
100
AcDbSymbolTable
 70
     3
  0
BLOCK_RECORD
  5
1F
330
1
100
AcDbSymbolTableRecord
100
AcDbBlockTableRecord
  2
*Model_Space
340
22
  0
BLOCK_RECORD
  5
1B
330
1
100
AcDbSymbolTableRecord
100
AcDbBlockTableRecord
  2
*Paper_Space
340
1E
  0
BLOCK_RECORD
  5
23
330
1
100
AcDbSymbolTableRecord
100
AcDbBlockTableRecord
  2
*Paper_Space0
340
26
  0
BLOCK_RECORD
  5
2B4
330
1
100
AcDbSymbolTableRecord
100
AcDbBlockTableRecord
  2
SW_NOTE_0
340
0
102
{BLKREFS
331
2BA
102
}
  0
BLOCK_RECORD
  5
2BB
330
1
100
AcDbSymbolTableRecord
100
AcDbBlockTableRecord
  2
SW_NOTE_0_1
340
0
102
{BLKREFS
331
2C0
102
}
  0
ENDTAB
  0
ENDSEC
  0
SECTION
  2
BLOCKS
  0
BLOCK
  5
20
330
1F
100
AcDbEntity
  8
0
100
AcDbBlockBegin
  2
*Model_Space
 70
     0
 10
0.0
 20
0.0
 30
0.0
  3
*Model_Space
  1

  0
ENDBLK
  5
21
330
1F
100
AcDbEntity
  8
0
100
AcDbBlockEnd
  0
BLOCK
  5
1C
330
1B
100
AcDbEntity
 67
     1
  8
0
100
AcDbBlockBegin
  2
*Paper_Space
 70
     0
 10
0.0
 20
0.0
 30
0.0
  3
*Paper_Space
  1

  0
ENDBLK
  5
1D
330
1B
100
AcDbEntity
 67
     1
  8
0
100
AcDbBlockEnd
  0
BLOCK
  5
24
330
23
100
AcDbEntity
  8
0
100
AcDbBlockBegin
  2
*Paper_Space0
 70
     0
 10
0.0
 20
0.0
 30
0.0
  3
*Paper_Space0
  1

  0
ENDBLK
  5
25
330
23
100
AcDbEntity
  8
0
100
AcDbBlockEnd
  0
BLOCK
  5
2B5
330
2B4
100
AcDbEntity
  8
0
100
AcDbBlockBegin
  2
SW_NOTE_0
 70
     0
 10
0.0
 20
0.0
 30
0.0
  3
SW_NOTE_0
  1

  0
CIRCLE
  5
2B7
330
2B4
100
AcDbEntity
  8
LAYER_3
 62
     0
100
AcDbCircle
 10
0.0542568916
 20
0.1048522147
 30
0.0
 40
0.1932810197235251
  0
MTEXT
  5
2B9
330
2B4
100
AcDbEntity
  8
LAYER_3
 62
     0
100
AcDbMText
 10
0.0538262795
 20
0.1776274445
 30
0.0
 40
0.1377952756
 41
0.0
 71
     2
 72
     1
  1
?
  7
SLDTEXTSTYLE0
 73
     1
 44
1.0
  0
ENDBLK
  5
2B6
330
2B4
100
AcDbEntity
  8
0
100
AcDbBlockEnd
  0
BLOCK
  5
2BC
330
2BB
100
AcDbEntity
  8
0
100
AcDbBlockBegin
  2
SW_NOTE_0_1
 70
     0
 10
0.0
 20
0.0
 30
0.0
  3
SW_NOTE_0_1
  1

  0
CIRCLE
  5
2BE
330
2BB
100
AcDbEntity
  8
LAYER_3
 62
     0
100
AcDbCircle
 10
0.0542568916
 20
0.1048522147
 30
0.0
 40
0.1932810197235248
  0
MTEXT
  5
2BF
330
2BB
100
AcDbEntity
  8
LAYER_3
 62
     0
100
AcDbMText
 10
0.0538262795
 20
0.1776274445
 30
0.0
 40
0.1377952756
 41
0.0
 71
     2
 72
     1
  1
?
  7
SLDTEXTSTYLE0
 73
     1
 44
1.0
  0
ENDBLK
  5
2BD
330
2BB
100
AcDbEntity
  8
0
100
AcDbBlockEnd
  0
ENDSEC
  0
SECTION
  2
ENTITIES
  0
LINE
  5
67
330
1F
100
AcDbEntity
  8
LAYER_3
100
AcDbLine
 10
9.6603524695
 20
11.4092353113
 30
0.0
 11
9.6592370833
 21
11.4945567355
 31
0.0
  0
LINE
  5
68
330
1F
100
AcDbEntity
  8
LAYER_3
100
AcDbLine
 10
9.6592370833
 20
11.4945567355
 30
0.0
 11
9.658218862
 21
11.534201462
 31
0.0
  0
LINE
  5
69
330
1F
100
AcDbEntity
  8
LAYER_3
100
AcDbLine
 10
9.658218862
 20
11.534201462
 30
0.0
 11
9.6565467289
 21
11.5738257566
 31
0.0
  0
LINE
  5
6A
330
1F
100
AcDbEntity
  8
LAYER_3
100
AcDbLine
 10
9.6565467289
 20
11.5738257566
 30
0.0
 11
9.6542211029
 21
11.6134196901
 31
0.0
  0
LINE
  5
6B
330
1F
100
AcDbEntity
  8
LAYER_3
100
AcDbLine
 10
9.6542211029
 20
11.6134196901
 30
0.0
 11
9.6470837916
 21
11.7062110871
 31
0.0
  0
LINE
  5
6C
330
1F
100
AcDbEntity
  8
LAYER_3
100
AcDbLine
 10
9.6470837916
 20
11.7062110871
 30
0.0
 11
9.6381190329
 21
11.7988563959
 31
0.0
  0
LINE
  5
6D
330
1F
100
AcDbEntity
  8
LAYER_3
100
AcDbLine
 10
9.6381190329
 20
11.7988563959
 30
0.0
 11
9.6273300328
 21
11.8913224861
 31
0.0
  0
LINE
  5
6E
330
1F
100
AcDbEntity
  8
LAYER_3
100
AcDbLine
 10
9.6273300328
 20
11.8913224861
 30
0.0
 11
9.6150049157
 21
11.9808900805
 31
0.0
  0
LINE
  5
6F
330
1F
100
AcDbEntity
  8
LAYER_3
100
AcDbLine
 10
9.6150049157
 20
11.9808900805
 30
0.0
 11
9.6007543816
 21
12.0701943142
 31
0.0
  0
LINE
  5
70
330
1F
100
AcDbEntity
  8
LAYER_3
100
AcDbLine
 10
9.6007543816
 20
12.0701943142
 30
0.0
 11
9.5845845105
 21
12.1591970862
 31
0.0
  0
LINE
  5
71
330
1F
100
AcDbEntity
  8
LAYER_3
100
AcDbLine
 10
9.5845845105
 20
12.1591970862
 30
0.0
 11
9.5662866935
 21
12.2489862138
 31
0.0
  0
LINE
  5
72
330
1F
100
AcDbEntity
  8
LAYER_3
100
AcDbLine
 10
9.5662866935
 20
12.2489862138
 30
0.0
 11
9.54608692
 21
12.3383991791
 31
0.0
  0
LINE
  5
73
330
1F
100
AcDbEntity
  8
LAYER_3
100
AcDbLine
 10
9.54608692
 20
12.3383991791
 30
0.0
 11
9.5239935684
 21
12.4273988957
 31
0.0
  0
LINE
  5
74
330
1F
100
AcDbEntity
  8
LAYER_3
100
AcDbLine
 10
9.5239935684
 20
12.4273988957
 30
0.0
 11
9.498854116
 21
12.5208136336
 31
0.0
  0
LINE
  5
75
330
1F
100
AcDbEntity
  8
LAYER_3
100
AcDbLine
 10
9.498854116
 20
12.5208136336
 30
0.0
 11
9.4720274568
 21
12.6137953244
 31
0.0
  0
LINE
  5
76
330
1F
100
AcDbEntity
  8
LAYER_3
100
AcDbLine
 10
9.4720274568
 20
12.6137953244
 30
0.0
 11
9.4435216843
 21
12.7063159156
 31
0.0
  0
LINE
  5
77
330
1F
100
AcDbEntity
  8
LAYER_3
100
AcDbLine
 10
9.4435216843
 20
12.7063159156
 30
0.0
 11
9.4100541138
 21
12.8115697101
 31
0.0
  0
LINE
  5
78
330
1F
100
AcDbEntity
  8
LAYER_3
100
AcDbLine
 10
9.4100541138
 20
12.8115697101
 30
0.0
 11
9.4371910385
 21
13.0240316156
 31
0.0
  0
LINE
  5
79
330
1F
100
AcDbEntity
  8
LAYER_3
100
AcDbLine
 10
9.4371910385
 20
13.0240316156
 30
0.0
 11
9.462029825
 21
13.2238036086
 31
0.0
  0
LINE
  5
7A
330
1F
100
AcDbEntity
  8
LAYER_3
100
AcDbLine
 10
9.462029825
 20
13.2238036086
 30
0.0
 11
9.4855331046
 21
13.423724308
 31
0.0
  0
LINE
  5
7B
330
1F
100
AcDbEntity
  8
LAYER_3
100
AcDbLine
 10
9.4855331046
 20
13.423724308
 30
0.0
 11
9.5047241658
 21
13.5994635309
 31
0.0
  0
LINE
  5
7C
330
1F
100
AcDbEntity
  8
LAYER_3
100
AcDbLine
 10
9.5047241658
 20
13.5994635309
 30
0.0
 11
9.5221846757
 21
13.7753688109
 31
0.0
  0
LINE
  5
7D
330
1F
100
AcDbEntity
  8
LAYER_3
100
AcDbLine
 10
9.5221846757
 20
13.7753688109
 30
0.0
 11
9.5375487601
 21
13.9476213095
 31
0.0
  0
LINE
  5
7E
330
1F
100
AcDbEntity
  8
LAYER_3
100
AcDbLine
 10
9.5375487601
 20
13.9476213095
 30
0.0
 11
9.5511682746
 21
14.1200088781
 31
0.0
  0
LINE
  5
7F
330
1F
100
AcDbEntity
  8
LAYER_3
100
AcDbLine
 10
9.5511682746
 20
14.1200088781
 30
0.0
 11
9.5643996473
 21
14.3089196635
 31
0.0
  0
LINE
  5
80
330
1F
100
AcDbEntity
  8
LAYER_3
100
AcDbLine
 10
9.5643996473
 20
14.3089196635
 30
0.0
 11
9.5761737285
 21
14.4979192211
 31
0.0
  0
LINE
  5
81
330
1F
100
AcDbEntity
  8
LAYER_3
100
AcDbLine
 10
9.5761737285
 20
14.4979192211
 30
0.0
 11
9.5774612643
 21
14.5221128671
 31
0.0
  0
LINE
  5
82
330
1F
100
AcDbEntity
  8
LAYER_3
100
AcDbLine
 10
9.5774612643
 20
14.5221128671
 30
0.0
 11
9.578497368
 21
14.5463176264
 31
0.0
  0
LINE
  5
83
330
1F
100
AcDbEntity
  8
LAYER_3
100
AcDbLine
 10
9.578497368
 20
14.5463176264
 30
0.0
 11
9.5792819367
 21
14.5705310934
 31
0.0
  0
LINE
  5
84
330
1F
100
AcDbEntity
  8
LAYER_3
100
AcDbLine
 10
9.5792819367
 20
14.5705310934
 30
0.0
 11
9.5811717139
 21
14.6431528889
 31
0.0
  0
LINE
  5
85
330
1F
100
AcDbEntity
  8
LAYER_3
100
AcDbLine
 10
9.5811717139
 20
14.6431528889
 30
0.0
 11
9.5828899784
 21
14.7157786067
 31
0.0
  0
LINE
  5
86
330
1F
100
AcDbEntity
  8
LAYER_3
100
AcDbLine
 10
9.5828899784
 20
14.7157786067
 30
0.0
 11
9.5847039032
 21
14.8015250955
 31
0.0
  0
LINE
  5
87
330
1F
100
AcDbEntity
  8
LAYER_3
100
AcDbLine
 10
9.5847039032
 20
14.8015250955
 30
0.0
 11
9.586290832
 21
14.8872757283
 31
0.0
  0
LINE
  5
88
330
1F
100
AcDbEntity
  8
LAYER_3
100
AcDbLine
 10
9.586290832
 20
14.8872757283
 30
0.0
 11
9.5877343849
 21
14.9772819124
 31
0.0
  0
LINE
  5
89
330
1F
100
AcDbEntity
  8
LAYER_3
100
AcDbLine
 10
9.5877343849
 20
14.9772819124
 30
0.0
 11
9.5889719369
 21
15.0672909211
 31
0.0
  0
LINE
  5
8A
330
1F
100
AcDbEntity
  8
LAYER_3
100
AcDbLine
 10
9.5889719369
 20
15.0672909211
 30
0.0
 11
9.5902061349
 21
15.1563837769
 31
0.0
  0
LINE
  5
8B
330
1F
100
AcDbEntity
  8
LAYER_3
100
AcDbLine
 10
9.5902061349
 20
15.1563837769
 30
0.0
 11
9.5916626215
 21
15.2454735423
 31
0.0
  0
LINE
  5
8C
330
1F
100
AcDbEntity
  8
LAYER_3
100
AcDbLine
 10
9.5916626215
 20
15.2454735423
 30
0.0
 11
9.5932508052
 21
15.328444632
 31
0.0
  0
LINE
  5
8D
330
1F
100
AcDbEntity
  8
LAYER_3
100
AcDbLine
 10
9.5932508052
 20
15.328444632
 30
0.0
 11
9.5950952897
 21
15.4114108405
 31
0.0
  0
LINE
  5
8E
330
1F
100
AcDbEntity
  8
LAYER_3
100
AcDbLine
 10
9.5950952897
 20
15.4114108405
 30
0.0
 11
9.5968403081
 21
15.4810949979
 31
0.0
  0
LINE
  5
8F
330
1F
100
AcDbEntity
  8
LAYER_3
100
AcDbLine
 10
9.5968403081
 20
15.4810949979
 30
0.0
 11
9.5987615116
 21
15.5507748883
 31
0.0
  0
LINE
  5
90
330
1F
100
AcDbEntity
  8
LAYER_3
100
AcDbLine
 10
9.5987615116
 20
15.5507748883
 30
0.0
 11
9.5995010376
 21
15.5710296865
 31
0.0
  0
LINE
  5
91
330
1F
100
AcDbEntity
  8
LAYER_3
100
AcDbLine
 10
9.5995010376
 20
15.5710296865
 30
0.0
 11
9.6005509721
 21
15.5912718572
 31
0.0
  0
LINE
  5
92
330
1F
100
AcDbEntity
  8
LAYER_3
100
AcDbLine
 10
9.6005509721
 20
15.5912718572
 30
0.0
 11
9.6019110879
 21
15.6114970211
 31
0.0
  0
LINE
  5
93
330
1F
100
AcDbEntity
  8
LAYER_3
100
AcDbLine
 10
9.6019110879
 20
15.6114970211
 30
0.0
 11
9.6066949242
 21
15.6843304855
 31
0.0
  0
LINE
  5
94
330
1F
100
AcDbEntity
  8
LAYER_3
100
AcDbLine
 10
9.6066949242
 20
15.6843304855
 30
0.0
 11
9.6101340781
 21
15.7572337996
 31
0.0
  0
LINE
  5
95
330
1F
100
AcDbEntity
  8
LAYER_3
100
AcDbLine
 10
9.6101340781
 20
15.7572337996
 30
0.0
 11
9.6122274717
 21
15.8301841096
 31
0.0
  0
LINE
  5
96
330
1F
100
AcDbEntity
  8
LAYER_3
100
AcDbLine
 10
9.6122274717
 20
15.8301841096
 30
0.0
 11
9.6145331527
 21
15.9877303028
 31
0.0
  0
LINE
  5
97
330
1F
100
AcDbEntity
  8
LAYER_3
100
AcDbLine
 10
9.6145331527
 20
15.9877303028
 30
0.0
 11
9.6153173268
 21
16.1452902313
 31
0.0
  0
LINE
  5
98
330
1F
100
AcDbEntity
  8
LAYER_3
100
AcDbLine
 10
9.6153173268
 20
16.1452902313
 30
0.0
 11
9.6145926934
 21
16.3020029243
 31
0.0
  0
LINE
  5
99
330
1F
100
AcDbEntity
  8
LAYER_3
100
AcDbLine
 10
9.6145926934
 20
16.3020029243
 30
0.0
 11
9.6123726962
 21
16.4587026829
 31
0.0
  0
LINE
  5
9A
330
1F
100
AcDbEntity
  8
LAYER_3
100
AcDbLine
 10
9.6123726962
 20
16.4587026829
 30
0.0
 11
9.6103435325
 21
16.5286784335
 31
0.0
  0
LINE
  5
9B
330
1F
100
AcDbEntity
  8
LAYER_3
100
AcDbLine
 10
9.6103435325
 20
16.5286784335
 30
0.0
 11
9.6069081631
 21
16.5986036173
 31
0.0
  0
LINE
  5
9C
330
1F
100
AcDbEntity
  8
LAYER_3
100
AcDbLine
 10
9.6069081631
 20
16.5986036173
 30
0.0
 11
9.6020678658
 21
16.6684522211
 31
0.0
  0
LINE
  5
9D
330
1F
100
AcDbEntity
  8
LAYER_3
100
AcDbLine
 10
9.6020678658
 20
16.6684522211
 30
0.0
 11
9.59237998
 21
16.7760632415
 31
0.0
  0
LINE
  5
9E
330
1F
100
AcDbEntity
  8
LAYER_3
100
AcDbLine
 10
9.59237998
 20
16.7760632415
 30
0.0
 11
9.5804220239
 21
16.8834638666
 31
0.0
  0
LINE
  5
9F
330
1F
100
AcDbEntity
  8
LAYER_3
100
AcDbLine
 10
9.5804220239
 20
16.8834638666
 30
0.0
 11
9.5661989054
 21
16.9906100144
 31
0.0
  0
LINE
  5
A0
330
1F
100
AcDbEntity
  8
LAYER_3
100
AcDbLine
 10
9.5661989054
 20
16.9906100144
 30
0.0
 11
9.5520468287
 21
17.0771483086
 31
0.0
  0
LINE
  5
A1
330
1F
100
AcDbEntity
  8
LAYER_3
100
AcDbLine
 10
9.5520468287
 20
17.0771483086
 30
0.0
 11
9.5345096309
 21
17.1631141083
 31
0.0
  0
LINE
  5
A2
330
1F
100
AcDbEntity
  8
LAYER_3
100
AcDbLine
 10
9.5345096309
 20
17.1631141083
 30
0.0
 11
9.5136121719
 21
17.2483855522
 31
0.0
  0
LINE
  5
A3
330
1F
100
AcDbEntity
  8
LAYER_3
100
AcDbLine
 10
9.5136121719
 20
17.2483855522
 30
0.0
 11
9.494659772
 21
17.3134112681
 31
0.0
  0
LINE
  5
A4
330
1F
100
AcDbEntity
  8
LAYER_3
100
AcDbLine
 10
9.494659772
 20
17.3134112681
 30
0.0
 11
9.4726225136
 21
17.3775356221
 31
0.0
  0
LINE
  5
A5
330
1F
100
AcDbEntity
  8
LAYER_3
100
AcDbLine
 10
9.4726225136
 20
17.3775356221
 30
0.0
 11
9.4475466726
 21
17.44062396
 31
0.0
  0
LINE
  5
A6
330
1F
100
AcDbEntity
  8
LAYER_3
100
AcDbLine
 10
9.4475466726
 20
17.44062396
 30
0.0
 11
9.4379961992
 21
17.4608594238
 31
0.0
  0
LINE
  5
A7
330
1F
100
AcDbEntity
  8
LAYER_3
100
AcDbLine
 10
9.4379961992
 20
17.4608594238
 30
0.0
 11
9.4268735061
 21
17.4803414934
 31
0.0
  0
LINE
  5
A8
330
1F
100
AcDbEntity
  8
LAYER_3
100
AcDbLine
 10
9.4268735061
 20
17.4803414934
 30
0.0
 11
9.4142426832
 21
17.4989579115
 31
0.0
  0
LINE
  5
A9
330
1F
100
AcDbEntity
  8
LAYER_3
100
AcDbLine
 10
9.4142426832
 20
17.4989579115
 30
0.0
 11
9.4001765105
 21
17.5166014086
 31
0.0
  0
LINE
  5
AA
330
1F
100
AcDbEntity
  8
LAYER_3
100
AcDbLine
 10
9.4001765105
 20
17.5166014086
 30
0.0
 11
9.3847560385
 21
17.5331703212
 31
0.0
  0
LINE
  5
AB
330
1F
100
AcDbEntity
  8
LAYER_3
100
AcDbLine
 10
9.3847560385
 20
17.5331703212
 30
0.0
 11
9.3680701214
 21
17.5485691777
 31
0.0
  0
LINE
  5
AC
330
1F
100
AcDbEntity
  8
LAYER_3
100
AcDbLine
 10
9.3680701214
 20
17.5485691777
 30
0.0
 11
9.3588980461
 21
17.5560935501
 31
0.0
  0
LINE
  5
AD
330
1F
100
AcDbEntity
  8
LAYER_3
100
AcDbLine
 10
9.3588980461
 20
17.5560935501
 30
0.0
 11
9.3494108087
 21
17.5632491239
 31
0.0
  0
LINE
  5
AE
330
1F
100
AcDbEntity
  8
LAYER_3
100
AcDbLine
 10
9.3494108087
 20
17.5632491239
 30
0.0
 11
9.3396245053
 21
17.570023759
 31
0.0
  0
LINE
  5
AF
330
1F
100
AcDbEntity
  8
LAYER_3
100
AcDbLine
 10
9.3396245053
 20
17.570023759
 30
0.0
 11
9.3295557394
 21
17.5764059615
 31
0.0
  0
LINE
  5
B0
330
1F
100
AcDbEntity
  8
LAYER_3
100
AcDbLine
 10
9.3295557394
 20
17.5764059615
 30
0.0
 11
9.3111217194
 21
17.5872907845
 31
0.0
  0
LINE
  5
B1
330
1F
100
AcDbEntity
  8
LAYER_3
100
AcDbLine
 10
9.3111217194
 20
17.5872907845
 30
0.0
 11
9.2924307863
 21
17.597764491
 31
0.0
  0
LINE
  5
B2
330
1F
100
AcDbEntity
  8
LAYER_3
100
AcDbLine
 10
9.2924307863
 20
17.597764491
 30
0.0
 11
9.2734928976
 21
17.6078215011
 31
0.0
  0
LINE
  5
B3
330
1F
100
AcDbEntity
  8
LAYER_3
100
AcDbLine
 10
9.2734928976
 20
17.6078215011
 30
0.0
 11
9.253199065
 21
17.6180206112
 31
0.0
  0
LINE
  5
B4
330
1F
100
AcDbEntity
  8
LAYER_3
100
AcDbLine
 10
9.253199065
 20
17.6180206112
 30
0.0
 11
9.2326668391
 21
17.6277705697
 31
0.0
  0
LINE
  5
B5
330
1F
100
AcDbEntity
  8
LAYER_3
100
AcDbLine
 10
9.2326668391
 20
17.6277705697
 30
0.0
 11
9.2119070161
 21
17.6370662499
 31
0.0
  0
LINE
  5
B6
330
1F
100
AcDbEntity
  8
LAYER_3
100
AcDbLine
 10
9.2119070161
 20
17.6370662499
 30
0.0
 11
9.1931891626
 21
17.6448498155
 31
0.0
  0
LINE
  5
B7
330
1F
100
AcDbEntity
  8
LAYER_3
100
AcDbLine
 10
9.1931891626
 20
17.6448498155
 30
0.0
 11
9.1742181627
 21
17.6520470631
 31
0.0
  0
LINE
  5
B8
330
1F
100
AcDbEntity
  8
LAYER_3
100
AcDbLine
 10
9.1742181627
 20
17.6520470631
 30
0.0
 11
9.1550139597
 21
17.6586504264
 31
0.0
  0
LINE
  5
B9
330
1F
100
AcDbEntity
  8
LAYER_3
100
AcDbLine
 10
9.1550139597
 20
17.6586504264
 30
0.0
 11
9.0823047749
 21
17.6801744897
 31
0.0
  0
LINE
  5
BA
330
1F
100
AcDbEntity
  8
LAYER_3
100
AcDbLine
 10
9.0823047749
 20
17.6801744897
 30
0.0
 11
9.00843079
 21
17.6976701227
 31
0.0
  0
LINE
  5
BB
330
1F
100
AcDbEntity
  8
LAYER_3
100
AcDbLine
 10
9.00843079
 20
17.6976701227
 30
0.0
 11
8.9336342276
 21
17.7110799597
 31
0.0
  0
LINE
  5
BC
330
1F
100
AcDbEntity
  8
LAYER_3
100
AcDbLine
 10
8.9336342276
 20
17.7110799597
 30
0.0
 11
8.8581603352
 21
17.7203600317
 31
0.0
  0
LINE
  5
BD
330
1F
100
AcDbEntity
  8
LAYER_3
100
AcDbLine
 10
8.8581603352
 20
17.7203600317
 30
0.0
 11
8.7822565814
 21
17.7254799106
 31
0.0
  0
LINE
  5
BE
330
1F
100
AcDbEntity
  8
LAYER_3
100
AcDbLine
 10
8.7822565814
 20
17.7254799106
 30
0.0
 11
8.6268550075
 21
17.728250497
 31
0.0
  0
LINE
  5
BF
330
1F
100
AcDbEntity
  8
LAYER_3
100
AcDbLine
 10
8.6268550075
 20
16.9257025321
 30
0.0
 11
8.6271168066
 21
16.9256832356
 31
0.0
  0
LINE
  5
C0
330
1F
100
AcDbEntity
  8
LAYER_3
100
AcDbLine
 10
8.6271168066
 20
16.9256832356
 30
0.0
 11
8.6273725719
 21
16.9256262501
 31
0.0
  0
LINE
  5
C1
330
1F
100
AcDbEntity
  8
LAYER_3
100
AcDbLine
 10
8.6273725719
 20
16.9256262501
 30
0.0
 11
8.6276164444
 21
16.9255328811
 31
0.0
  0
LINE
  5
C2
330
1F
100
AcDbEntity
  8
LAYER_3
100
AcDbLine
 10
8.6276164444
 20
16.9255328811
 30
0.0
 11
8.6278428377
 21
16.9254052674
 31
0.0
  0
LINE
  5
C3
330
1F
100
AcDbEntity
  8
LAYER_3
100
AcDbLine
 10
8.6278428377
 20
16.9254052674
 30
0.0
 11
8.6280465655
 21
16.9252463323
 31
0.0
  0
LINE
  5
C4
330
1F
100
AcDbEntity
  8
LAYER_3
100
AcDbLine
 10
8.6280465655
 20
16.9252463323
 30
0.0
 11
8.6282229609
 21
16.9250597167
 31
0.0
  0
LINE
  5
C5
330
1F
100
AcDbEntity
  8
LAYER_3
100
AcDbLine
 10
8.6282229609
 20
16.9250597167
 30
0.0
 11
8.6283679831
 21
16.9248496954
 31
0.0
  0
LINE
  5
C6
330
1F
100
AcDbEntity
  8
LAYER_3
100
AcDbLine
 10
8.6283679831
 20
16.9248496954
 30
0.0
 11
8.62847831
 21
16.9246210798
 31
0.0
  0
LINE
  5
C7
330
1F
100
AcDbEntity
  8
LAYER_3
100
AcDbLine
 10
8.62847831
 20
16.9246210798
 30
0.0
 11
8.6285514143
 21
16.9243791066
 31
0.0
  0
LINE
  5
C8
330
1F
100
AcDbEntity
  8
LAYER_3
100
AcDbLine
 10
8.6285514143
 20
16.9243791066
 30
0.0
 11
8.6285856213
 21
16.9241293191
 31
0.0
  0
LINE
  5
C9
330
1F
100
AcDbEntity
  8
LAYER_3
100
AcDbLine
 10
8.6285856213
 20
16.9241293191
 30
0.0
 11
8.6293551821
 21
16.9101450357
 31
0.0
  0
LINE
  5
CA
330
1F
100
AcDbEntity
  8
LAYER_3
100
AcDbLine
 10
8.6293551821
 20
16.9101450357
 30
0.0
 11
8.6300621528
 21
16.8961577107
 31
0.0
  0
LINE
  5
CB
330
1F
100
AcDbEntity
  8
LAYER_3
100
AcDbLine
 10
8.6300621528
 20
16.8961577107
 30
0.0
 11
8.630535232
 21
16.8852143779
 31
0.0
  0
LINE
  5
CC
330
1F
100
AcDbEntity
  8
LAYER_3
100
AcDbLine
 10
8.630535232
 20
16.8852143779
 30
0.0
 11
8.6308975242
 21
16.8742671529
 31
0.0
  0
LINE
  5
CD
330
1F
100
AcDbEntity
  8
LAYER_3
100
AcDbLine
 10
8.6308975242
 20
16.8742671529
 30
0.0
 11
8.6311489952
 21
16.8633170682
 31
0.0
  0
LINE
  5
CE
330
1F
100
AcDbEntity
  8
LAYER_3
100
AcDbLine
 10
8.6311489952
 20
16.8633170682
 30
0.0
 11
8.6314111232
 21
16.8437414414
 31
0.0
  0
LINE
  5
CF
330
1F
100
AcDbEntity
  8
LAYER_3
100
AcDbLine
 10
8.6314111232
 20
16.8437414414
 30
0.0
 11
8.6314966867
 21
16.8241643711
 31
0.0
  0
LINE
  5
D0
330
1F
100
AcDbEntity
  8
LAYER_3
100
AcDbLine
 10
8.6314966867
 20
16.8241643711
 30
0.0
 11
8.6316018621
 21
16.7864995873
 31
0.0
  0
LINE
  5
D1
330
1F
100
AcDbEntity
  8
LAYER_3
100
AcDbLine
 10
8.6316018621
 20
16.7864995873
 30
0.0
 11
8.6319278029
 21
16.7488359667
 31
0.0
  0
LINE
  5
D2
330
1F
100
AcDbEntity
  8
LAYER_3
100
AcDbLine
 10
8.6319278029
 20
16.7488359667
 30
0.0
 11
8.6341442199
 21
16.558497679
 31
0.0
  0
LINE
  5
D3
330
1F
100
AcDbEntity
  8
LAYER_3
100
AcDbLine
 10
8.6341442199
 20
16.558497679
 30
0.0
 11
8.6363832516
 21
16.3681596349
 31
0.0
  0
LINE
  5
D4
330
1F
100
AcDbEntity
  8
LAYER_3
100
AcDbLine
 10
8.6363832516
 20
16.3681596349
 30
0.0
 11
8.6390431388
 21
16.1458067458
 31
0.0
  0
LINE
  5
D5
330
1F
100
AcDbEntity
  8
LAYER_3
100
AcDbLine
 10
8.6390431388
 20
16.1458067458
 30
0.0
 11
8.6417651323
 21
15.9234545487
 31
0.0
  0
LINE
  5
D6
330
1F
100
AcDbEntity
  8
LAYER_3
100
AcDbLine
 10
8.6417651323
 20
15.9234545487
 30
0.0
 11
8.6449346312
 21
15.6694131089
 31
0.0
  0
LINE
  5
D7
330
1F
100
AcDbEntity
  8
LAYER_3
100
AcDbLine
 10
8.6449346312
 20
15.6694131089
 30
0.0
 11
8.648151788
 21
15.4153722205
 31
0.0
  0
LINE
  5
D8
330
1F
100
AcDbEntity
  8
LAYER_3
100
AcDbLine
 10
8.648151788
 20
15.4153722205
 30
0.0
 11
8.6513246861
 21
15.1630171602
 31
0.0
  0
LINE
  5
D9
330
1F
100
AcDbEntity
  8
LAYER_3
100
AcDbLine
 10
8.6513246861
 20
15.1630171602
 30
0.0
 11
8.654403953
 21
14.910661032
 31
0.0
  0
LINE
  5
DA
330
1F
100
AcDbEntity
  8
LAYER_3
100
AcDbLine
 10
8.654403953
 20
14.910661032
 30
0.0
 11
8.6569479795
 21
14.6937130882
 31
0.0
  0
LINE
  5
DB
330
1F
100
AcDbEntity
  8
LAYER_3
100
AcDbLine
 10
8.6569479795
 20
14.6937130882
 30
0.0
 11
8.6593658382
 21
14.4767638161
 31
0.0
  0
LINE
  5
DC
330
1F
100
AcDbEntity
  8
LAYER_3
100
AcDbLine
 10
8.6593658382
 20
14.4767638161
 30
0.0
 11
8.6614146311
 21
14.2867832383
 31
0.0
  0
LINE
  5
DD
330
1F
100
AcDbEntity
  8
LAYER_3
100
AcDbLine
 10
8.6614146311
 20
14.2867832383
 30
0.0
 11
8.6634364959
 21
14.0968023949
 31
0.0
  0
LINE
  5
DE
330
1F
100
AcDbEntity
  8
LAYER_3
100
AcDbLine
 10
8.6634364959
 20
14.0968023949
 30
0.0
 11
8.663477605
 21
14.0828160233
 31
0.0
  0
LINE
  5
DF
330
1F
100
AcDbEntity
  8
LAYER_3
100
AcDbLine
 10
8.663477605
 20
14.0828160233
 30
0.0
 11
8.6633051851
 21
14.0688305745
 31
0.0
  0
LINE
  5
E0
330
1F
100
AcDbEntity
  8
LAYER_3
100
AcDbLine
 10
8.6633051851
 20
14.0688305745
 30
0.0
 11
8.6629192732
 21
14.0548490496
 31
0.0
  0
LINE
  5
E1
330
1F
100
AcDbEntity
  8
LAYER_3
100
AcDbLine
 10
8.6629192732
 20
14.0548490496
 30
0.0
 11
8.6610174219
 21
14.0008827794
 31
0.0
  0
LINE
  5
E2
330
1F
100
AcDbEntity
  8
LAYER_3
100
AcDbLine
 10
8.6610174219
 20
14.0008827794
 30
0.0
 11
7.1641388482
 21
15.1184293014
 31
0.0
  0
LINE
  5
E3
330
1F
100
AcDbEntity
  8
LAYER_3
100
AcDbLine
 10
7.1641388482
 20
15.1184293014
 30
0.0
 11
6.8772181871
 21
15.332744682
 31
0.0
  0
LINE
  5
E4
330
1F
100
AcDbEntity
  8
LAYER_3
100
AcDbLine
 10
6.8772181871
 20
15.332744682
 30
0.0
 11
6.5904038792
 21
15.5471910803
 31
0.0
  0
LINE
  5
E5
330
1F
100
AcDbEntity
  8
LAYER_3
100
AcDbLine
 10
6.5904038792
 20
15.5471910803
 30
0.0
 11
6.3491148161
 21
15.727835059
 31
0.0
  0
LINE
  5
E6
330
1F
100
AcDbEntity
  8
LAYER_3
100
AcDbLine
 10
6.3491148161
 20
15.727835059
 30
0.0
 11
6.1079749385
 21
15.9086623412
 31
0.0
  0
LINE
  5
E7
330
1F
100
AcDbEntity
  8
LAYER_3
100
AcDbLine
 10
6.1079749385
 20
15.9086623412
 30
0.0
 11
5.889410131
 21
16.0726973394
 31
0.0
  0
LINE
  5
E8
330
1F
100
AcDbEntity
  8
LAYER_3
100
AcDbLine
 10
5.889410131
 20
16.0726973394
 30
0.0
 11
5.6708473731
 21
16.2367348495
 31
0.0
  0
LINE
  5
E9
330
1F
100
AcDbEntity
  8
LAYER_3
100
AcDbLine
 10
5.6708473731
 20
16.2367348495
 30
0.0
 11
5.6706473747
 21
16.2369103272
 31
0.0
  0
LINE
  5
EA
330
1F
100
AcDbEntity
  8
LAYER_3
100
AcDbLine
 10
5.6706473747
 20
16.2369103272
 30
0.0
 11
5.6704777655
 21
16.2371131399
 31
0.0
  0
LINE
  5
EB
330
1F
100
AcDbEntity
  8
LAYER_3
100
AcDbLine
 10
5.6704777655
 20
16.2371131399
 30
0.0
 11
5.6703425522
 21
16.2373384962
 31
0.0
  0
LINE
  5
EC
330
1F
100
AcDbEntity
  8
LAYER_3
100
AcDbLine
 10
5.6703425522
 20
16.2373384962
 30
0.0
 11
5.6702449293
 21
16.2375810723
 31
0.0
  0
LINE
  5
ED
330
1F
100
AcDbEntity
  8
LAYER_3
100
AcDbLine
 10
5.6702449293
 20
16.2375810723
 30
0.0
 11
5.6701872029
 21
16.2378351375
 31
0.0
  0
LINE
  5
EE
330
1F
100
AcDbEntity
  8
LAYER_3
100
AcDbLine
 10
5.6701872029
 20
16.2378351375
 30
0.0
 11
5.6701707368
 21
16.2380946897
 31
0.0
  0
LINE
  5
EF
330
1F
100
AcDbEntity
  8
LAYER_3
100
AcDbLine
 10
5.6701707368
 20
16.2380946897
 30
0.0
 11
5.67019592
 21
16.2383535973
 31
0.0
  0
LINE
  5
F0
330
1F
100
AcDbEntity
  8
LAYER_3
100
AcDbLine
 10
5.67019592
 20
16.2383535973
 30
0.0
 11
5.6702621576
 21
16.2386057436
 31
0.0
  0
LINE
  5
F1
330
1F
100
AcDbEntity
  8
LAYER_3
100
AcDbLine
 10
5.6702621576
 20
16.2386057436
 30
0.0
 11
5.6703678848
 21
16.2388451721
 31
0.0
  0
LINE
  5
F2
330
1F
100
AcDbEntity
  8
LAYER_3
100
AcDbLine
 10
5.6703678848
 20
16.2388451721
 30
0.0
 11
5.6705106038
 21
16.2390662263
 31
0.0
  0
LINE
  5
F3
330
1F
100
AcDbEntity
  8
LAYER_3
100
AcDbLine
 10
5.6705106038
 20
16.2390662263
 30
0.0
 11
5.670686943
 21
16.239263684
 31
0.0
  0
LINE
  5
F4
330
1F
100
AcDbEntity
  8
LAYER_3
100
AcDbLine
 10
5.670686943
 20
16.239263684
 30
0.0
 11
5.6711644342
 21
16.2396818648
 31
0.0
  0
LINE
  5
F5
330
1F
100
AcDbEntity
  8
LAYER_3
100
AcDbLine
 10
5.6711644342
 20
16.2396818648
 30
0.0
 11
5.6716796178
 21
16.240056603
 31
0.0
  0
LINE
  5
F6
330
1F
100
AcDbEntity
  8
LAYER_3
100
AcDbLine
 10
5.6716796178
 20
16.240056603
 30
0.0
 11
5.6722282157
 21
16.2403847867
 31
0.0
  0
LINE
  5
F7
330
1F
100
AcDbEntity
  8
LAYER_3
100
AcDbLine
 10
5.6722282157
 20
16.2403847867
 30
0.0
 11
5.6728056722
 21
16.2406636907
 31
0.0
  0
LINE
  5
F8
330
1F
100
AcDbEntity
  8
LAYER_3
100
AcDbLine
 10
5.6728056722
 20
16.2406636907
 30
0.0
 11
5.6734071921
 21
16.2408909989
 31
0.0
  0
LINE
  5
F9
330
1F
100
AcDbEntity
  8
LAYER_3
100
AcDbLine
 10
5.6734071921
 20
16.2408909989
 30
0.0
 11
5.6740277804
 21
16.2410648238
 31
0.0
  0
LINE
  5
FA
330
1F
100
AcDbEntity
  8
LAYER_3
100
AcDbLine
 10
5.6740277804
 20
16.2410648238
 30
0.0
 11
5.8900287101
 21
16.2914412623
 31
0.0
  0
LINE
  5
FB
330
1F
100
AcDbEntity
  8
LAYER_3
100
AcDbLine
 10
5.8900287101
 20
16.2914412623
 30
0.0
 11
6.1060301651
 21
16.3418156242
 31
0.0
  0
LINE
  5
FC
330
1F
100
AcDbEntity
  8
LAYER_3
100
AcDbLine
 10
6.1060301651
 20
16.3418156242
 30
0.0
 11
6.3442703854
 21
16.397312133
 31
0.0
  0
LINE
  5
FD
330
1F
100
AcDbEntity
  8
LAYER_3
100
AcDbLine
 10
6.3442703854
 20
16.397312133
 30
0.0
 11
6.5825405346
 21
16.4526902247
 31
0.0
  0
LINE
  5
FE
330
1F
100
AcDbEntity
  8
LAYER_3
100
AcDbLine
 10
6.5825405346
 20
16.4526902247
 30
0.0
 11
6.8652068707
 21
16.5182672533
 31
0.0
  0
LINE
  5
FF
330
1F
100
AcDbEntity
  8
LAYER_3
100
AcDbLine
 10
6.8652068707
 20
16.5182672533
 30
0.0
 11
7.1478945167
 21
16.5837596592
 31
0.0
  0
LINE
  5
100
330
1F
100
AcDbEntity
  8
LAYER_3
100
AcDbLine
 10
7.1478945167
 20
16.5837596592
 30
0.0
 11
7.4306218692
 21
16.6492086539
 31
0.0
  0
LINE
  5
101
330
1F
100
AcDbEntity
  8
LAYER_3
100
AcDbLine
 10
7.4306218692
 20
16.6492086539
 30
0.0
 11
7.7133527682
 21
16.7146435415
 31
0.0
  0
LINE
  5
102
330
1F
100
AcDbEntity
  8
LAYER_3
100
AcDbLine
 10
7.7133527682
 20
16.7146435415
 30
0.0
 11
7.9517722897
 21
16.7698059318
 31
0.0
  0
LINE
  5
103
330
1F
100
AcDbEntity
  8
LAYER_3
100
AcDbLine
 10
7.9517722897
 20
16.7698059318
 30
0.0
 11
8.1901968694
 21
16.8249481914
 31
0.0
  0
LINE
  5
104
330
1F
100
AcDbEntity
  8
LAYER_3
100
AcDbLine
 10
8.1901968694
 20
16.8249481914
 30
0.0
 11
8.6225884776
 21
16.9249306358
 31
0.0
  0
LINE
  5
105
330
1F
100
AcDbEntity
  8
LAYER_3
100
AcDbLine
 10
8.6225884776
 20
16.9249306358
 30
0.0
 11
8.6239157006
 21
16.9252183043
 31
0.0
  0
LINE
  5
106
330
1F
100
AcDbEntity
  8
LAYER_3
100
AcDbLine
 10
8.6239157006
 20
16.9252183043
 30
0.0
 11
8.6252509637
 21
16.9254693935
 31
0.0
  0
LINE
  5
107
330
1F
100
AcDbEntity
  8
LAYER_3
100
AcDbLine
 10
8.6252509637
 20
16.9254693935
 30
0.0
 11
8.6265931719
 21
16.9256836975
 31
0.0
  0
LINE
  5
108
330
1F
100
AcDbEntity
  8
LAYER_3
100
AcDbLine
 10
8.6265931719
 20
16.9256836975
 30
0.0
 11
8.6268550075
 21
16.9257025321
 31
0.0
  0
LINE
  5
109
330
1F
100
AcDbEntity
  8
LAYER_3
100
AcDbLine
 10
8.6268550075
 20
17.728250497
 30
0.0
 11
8.619699774
 21
17.7283780645
 31
0.0
  0
LINE
  5
10A
330
1F
100
AcDbEntity
  8
LAYER_3
100
AcDbLine
 10
8.619699774
 20
17.7283780645
 30
0.0
 11
8.4571757622
 21
17.724110242
 31
0.0
  0
LINE
  5
10B
330
1F
100
AcDbEntity
  8
LAYER_3
100
AcDbLine
 10
8.4571757622
 20
17.724110242
 30
0.0
 11
8.295027497
 21
17.7126854491
 31
0.0
  0
LINE
  5
10C
330
1F
100
AcDbEntity
  8
LAYER_3
100
AcDbLine
 10
8.295027497
 20
17.7126854491
 30
0.0
 11
8.0928960219
 21
17.6903541366
 31
0.0
  0
LINE
  5
10D
330
1F
100
AcDbEntity
  8
LAYER_3
100
AcDbLine
 10
8.0928960219
 20
17.6903541366
 30
0.0
 11
7.891755605
 21
17.6609155359
 31
0.0
  0
LINE
  5
10E
330
1F
100
AcDbEntity
  8
LAYER_3
100
AcDbLine
 10
7.891755605
 20
17.6609155359
 30
0.0
 11
7.6918776031
 21
17.6244093623
 31
0.0
  0
LINE
  5
10F
330
1F
100
AcDbEntity
  8
LAYER_3
100
AcDbLine
 10
7.6918776031
 20
17.6244093623
 30
0.0
 11
7.4455203133
 21
17.5724928545
 31
0.0
  0
LINE
  5
110
330
1F
100
AcDbEntity
  8
LAYER_3
100
AcDbLine
 10
7.4455203133
 20
17.5724928545
 30
0.0
 11
7.2002626241
 21
17.5159862436
 31
0.0
  0
LINE
  5
111
330
1F
100
AcDbEntity
  8
LAYER_3
100
AcDbLine
 10
7.2002626241
 20
17.5159862436
 30
0.0
 11
6.9561974219
 21
17.4549109304
 31
0.0
  0
LINE
  5
112
330
1F
100
AcDbEntity
  8
LAYER_3
100
AcDbLine
 10
6.9561974219
 20
17.4549109304
 30
0.0
 11
6.9307553589
 21
17.4484178827
 31
0.0
  0
LINE
  5
113
330
1F
100
AcDbEntity
  8
LAYER_3
100
AcDbLine
 10
6.9307553589
 20
17.4484178827
 30
0.0
 11
6.9052483189
 21
17.4421639312
 31
0.0
  0
LINE
  5
114
330
1F
100
AcDbEntity
  8
LAYER_3
100
AcDbLine
 10
6.9052483189
 20
17.4421639312
 30
0.0
 11
6.8775139915
 21
17.4356105806
 31
0.0
  0
LINE
  5
115
330
1F
100
AcDbEntity
  8
LAYER_3
100
AcDbLine
 10
6.8775139915
 20
17.4356105806
 30
0.0
 11
6.8497281344
 21
17.4292613645
 31
0.0
  0
LINE
  5
116
330
1F
100
AcDbEntity
  8
LAYER_3
100
AcDbLine
 10
6.8497281344
 20
17.4292613645
 30
0.0
 11
6.82382352
 21
17.4235440499
 31
0.0
  0
LINE
  5
117
330
1F
100
AcDbEntity
  8
LAYER_3
100
AcDbLine
 10
6.82382352
 20
17.4235440499
 30
0.0
 11
6.7978735162
 21
17.418019482
 31
0.0
  0
LINE
  5
118
330
1F
100
AcDbEntity
  8
LAYER_3
100
AcDbLine
 10
6.7978735162
 20
17.418019482
 30
0.0
 11
6.785110506
 21
17.4154329781
 31
0.0
  0
LINE
  5
119
330
1F
100
AcDbEntity
  8
LAYER_3
100
AcDbLine
 10
6.785110506
 20
17.4154329781
 30
0.0
 11
6.7723144606
 21
17.4130013799
 31
0.0
  0
LINE
  5
11A
330
1F
100
AcDbEntity
  8
LAYER_3
100
AcDbLine
 10
6.7723144606
 20
17.4130013799
 30
0.0
 11
6.7594874219
 21
17.4107250756
 31
0.0
  0
LINE
  5
11B
330
1F
100
AcDbEntity
  8
LAYER_3
100
AcDbLine
 10
6.7594874219
 20
17.4107250756
 30
0.0
 11
6.6090272783
 21
17.3836890396
 31
0.0
  0
LINE
  5
11C
330
1F
100
AcDbEntity
  8
LAYER_3
100
AcDbLine
 10
6.6090272783
 20
17.3836890396
 30
0.0
 11
6.4590716103
 21
17.3541852996
 31
0.0
  0
LINE
  5
11D
330
1F
100
AcDbEntity
  8
LAYER_3
100
AcDbLine
 10
6.4590716103
 20
17.3541852996
 30
0.0
 11
6.3096643767
 21
17.3222225048
 31
0.0
  0
LINE
  5
11E
330
1F
100
AcDbEntity
  8
LAYER_3
100
AcDbLine
 10
6.3096643767
 20
17.3222225048
 30
0.0
 11
6.1460317023
 21
17.2847333993
 31
0.0
  0
LINE
  5
11F
330
1F
100
AcDbEntity
  8
LAYER_3
100
AcDbLine
 10
6.1460317023
 20
17.2847333993
 30
0.0
 11
5.9829170221
 21
17.2452207134
 31
0.0
  0
LINE
  5
120
330
1F
100
AcDbEntity
  8
LAYER_3
100
AcDbLine
 10
5.9829170221
 20
17.2452207134
 30
0.0
 11
5.8203475174
 21
17.2036910314
 31
0.0
  0
LINE
  5
121
330
1F
100
AcDbEntity
  8
LAYER_3
100
AcDbLine
 10
5.8203475174
 20
17.2036910314
 30
0.0
 11
5.6303635696
 21
17.1528427033
 31
0.0
  0
LINE
  5
122
330
1F
100
AcDbEntity
  8
LAYER_3
100
AcDbLine
 10
5.6303635696
 20
17.1528427033
 30
0.0
 11
5.4409595009
 21
17.1000403372
 31
0.0
  0
LINE
  5
123
330
1F
100
AcDbEntity
  8
LAYER_3
100
AcDbLine
 10
5.4409595009
 20
17.1000403372
 30
0.0
 11
5.252157141
 21
17.0452900188
 31
0.0
  0
LINE
  5
124
330
1F
100
AcDbEntity
  8
LAYER_3
100
AcDbLine
 10
5.252157141
 20
17.0452900188
 30
0.0
 11
4.9044379275
 21
16.9409073314
 31
0.0
  0
LINE
  5
125
330
1F
100
AcDbEntity
  8
LAYER_3
100
AcDbLine
 10
4.9044379275
 20
16.9409073314
 30
0.0
 11
4.5576778693
 21
16.8336273791
 31
0.0
  0
LINE
  5
126
330
1F
100
AcDbEntity
  8
LAYER_3
100
AcDbLine
 10
4.5576778693
 20
16.8336273791
 30
0.0
 11
4.2639553233
 21
16.7414013942
 31
0.0
  0
LINE
  5
127
330
1F
100
AcDbEntity
  8
LAYER_3
100
AcDbLine
 10
4.2639553233
 20
16.7414013942
 30
0.0
 11
4.1970428693
 21
16.7527138032
 31
0.0
  0
LINE
  5
128
330
1F
100
AcDbEntity
  8
LAYER_3
100
AcDbLine
 10
4.1970428693
 20
16.7527138032
 30
0.0
 11
4.0712535943
 21
16.7736130882
 31
0.0
  0
LINE
  5
129
330
1F
100
AcDbEntity
  8
LAYER_3
100
AcDbLine
 10
4.0712535943
 20
16.7736130882
 30
0.0
 11
3.9453379989
 21
16.7937999231
 31
0.0
  0
LINE
  5
12A
330
1F
100
AcDbEntity
  8
LAYER_3
100
AcDbLine
 10
3.9453379989
 20
16.7937999231
 30
0.0
 11
3.8469556462
 21
16.8086930089
 31
0.0
  0
LINE
  5
12B
330
1F
100
AcDbEntity
  8
LAYER_3
100
AcDbLine
 10
3.8469556462
 20
16.8086930089
 30
0.0
 11
3.7483904847
 21
16.8224282907
 31
0.0
  0
LINE
  5
12C
330
1F
100
AcDbEntity
  8
LAYER_3
100
AcDbLine
 10
3.7483904847
 20
16.8224282907
 30
0.0
 11
3.6881562718
 21
16.8301878983
 31
0.0
  0
LINE
  5
12D
330
1F
100
AcDbEntity
  8
LAYER_3
100
AcDbLine
 10
3.6881562718
 20
16.8301878983
 30
0.0
 11
3.627849696
 21
16.8374115508
 31
0.0
  0
LINE
  5
12E
330
1F
100
AcDbEntity
  8
LAYER_3
100
AcDbLine
 10
3.627849696
 20
16.8374115508
 30
0.0
 11
3.5674759371
 21
16.844098628
 31
0.0
  0
LINE
  5
12F
330
1F
100
AcDbEntity
  8
LAYER_3
100
AcDbLine
 10
3.5674759371
 20
16.844098628
 30
0.0
 11
3.4678720596
 21
16.8541750244
 31
0.0
  0
LINE
  5
130
330
1F
100
AcDbEntity
  8
LAYER_3
100
AcDbLine
 10
3.4678720596
 20
16.8541750244
 30
0.0
 11
3.3681634834
 21
16.86324819
 31
0.0
  0
LINE
  5
131
330
1F
100
AcDbEntity
  8
LAYER_3
100
AcDbLine
 10
3.3681634834
 20
16.86324819
 30
0.0
 11
3.2676204399
 21
16.8715115233
 31
0.0
  0
LINE
  5
132
330
1F
100
AcDbEntity
  8
LAYER_3
100
AcDbLine
 10
3.2676204399
 20
16.8715115233
 30
0.0
 11
3.1670138764
 21
16.8790294874
 31
0.0
  0
LINE
  5
133
330
1F
100
AcDbEntity
  8
LAYER_3
100
AcDbLine
 10
3.1670138764
 20
16.8790294874
 30
0.0
 11
3.1167466466
 21
16.88230764
 31
0.0
  0
LINE
  5
134
330
1F
100
AcDbEntity
  8
LAYER_3
100
AcDbLine
 10
3.1167466466
 20
16.88230764
 30
0.0
 11
3.0664420357
 21
16.8850067488
 31
0.0
  0
LINE
  5
135
330
1F
100
AcDbEntity
  8
LAYER_3
100
AcDbLine
 10
3.0664420357
 20
16.8850067488
 30
0.0
 11
3.0161072885
 21
16.8871264248
 31
0.0
  0
LINE
  5
136
330
1F
100
AcDbEntity
  8
LAYER_3
100
AcDbLine
 10
3.0161072885
 20
16.8871264248
 30
0.0
 11
2.9605604166
 21
16.8888787929
 31
0.0
  0
LINE
  5
137
330
1F
100
AcDbEntity
  8
LAYER_3
100
AcDbLine
 10
2.9605604166
 20
16.8888787929
 30
0.0
 11
2.9049980743
 21
16.8900987632
 31
0.0
  0
LINE
  5
138
330
1F
100
AcDbEntity
  8
LAYER_3
100
AcDbLine
 10
2.9049980743
 20
16.8900987632
 30
0.0
 11
2.8494258044
 21
16.890786214
 31
0.0
  0
LINE
  5
139
330
1F
100
AcDbEntity
  8
LAYER_3
100
AcDbLine
 10
2.8494258044
 20
16.890786214
 30
0.0
 11
2.7160531528
 21
16.8915441824
 31
0.0
  0
LINE
  5
13A
330
1F
100
AcDbEntity
  8
LAYER_3
100
AcDbLine
 10
2.7160531528
 20
16.8915441824
 30
0.0
 11
2.5826784219
 21
16.8917969211
 31
0.0
  0
LINE
  5
13B
330
1F
100
AcDbEntity
  8
LAYER_3
100
AcDbLine
 10
2.5826784219
 20
16.8917969211
 30
0.0
 11
2.449303691
 21
16.8915441824
 31
0.0
  0
LINE
  5
13C
330
1F
100
AcDbEntity
  8
LAYER_3
100
AcDbLine
 10
2.449303691
 20
16.8915441824
 30
0.0
 11
2.3159310395
 21
16.890786214
 31
0.0
  0
LINE
  5
13D
330
1F
100
AcDbEntity
  8
LAYER_3
100
AcDbLine
 10
2.3159310395
 20
16.890786214
 30
0.0
 11
2.2603587695
 21
16.8900987632
 31
0.0
  0
LINE
  5
13E
330
1F
100
AcDbEntity
  8
LAYER_3
100
AcDbLine
 10
2.2603587695
 20
16.8900987632
 30
0.0
 11
2.2047964272
 21
16.8888787929
 31
0.0
  0
LINE
  5
13F
330
1F
100
AcDbEntity
  8
LAYER_3
100
AcDbLine
 10
2.2047964272
 20
16.8888787929
 30
0.0
 11
2.1492495553
 21
16.8871264248
 31
0.0
  0
LINE
  5
140
330
1F
100
AcDbEntity
  8
LAYER_3
100
AcDbLine
 10
2.1492495553
 20
16.8871264248
 30
0.0
 11
2.0989148082
 21
16.8850067488
 31
0.0
  0
LINE
  5
141
330
1F
100
AcDbEntity
  8
LAYER_3
100
AcDbLine
 10
2.0989148082
 20
16.8850067488
 30
0.0
 11
2.0486101972
 21
16.88230764
 31
0.0
  0
LINE
  5
142
330
1F
100
AcDbEntity
  8
LAYER_3
100
AcDbLine
 10
2.0486101972
 20
16.88230764
 30
0.0
 11
1.9983429674
 21
16.8790294874
 31
0.0
  0
LINE
  5
143
330
1F
100
AcDbEntity
  8
LAYER_3
100
AcDbLine
 10
1.9983429674
 20
16.8790294874
 30
0.0
 11
1.8977364039
 21
16.8715115233
 31
0.0
  0
LINE
  5
144
330
1F
100
AcDbEntity
  8
LAYER_3
100
AcDbLine
 10
1.8977364039
 20
16.8715115233
 30
0.0
 11
1.7971933604
 21
16.86324819
 31
0.0
  0
LINE
  5
145
330
1F
100
AcDbEntity
  8
LAYER_3
100
AcDbLine
 10
1.7971933604
 20
16.86324819
 30
0.0
 11
1.709640792
 21
16.8552866272
 31
0.0
  0
LINE
  5
146
330
1F
100
AcDbEntity
  8
LAYER_3
100
AcDbLine
 10
1.709640792
 20
16.8552866272
 30
0.0
 11
1.622178907
 21
16.8464549974
 31
0.0
  0
LINE
  5
147
330
1F
100
AcDbEntity
  8
LAYER_3
100
AcDbLine
 10
1.622178907
 20
16.8464549974
 30
0.0
 11
1.5348170971
 21
16.8367542489
 31
0.0
  0
LINE
  5
148
330
1F
100
AcDbEntity
  8
LAYER_3
100
AcDbLine
 10
1.5348170971
 20
16.8367542489
 30
0.0
 11
1.4477299417
 21
16.8262028879
 31
0.0
  0
LINE
  5
149
330
1F
100
AcDbEntity
  8
LAYER_3
100
AcDbLine
 10
1.4477299417
 20
16.8262028879
 30
0.0
 11
1.3607621279
 21
16.8147812199
 31
0.0
  0
LINE
  5
14A
330
1F
100
AcDbEntity
  8
LAYER_3
100
AcDbLine
 10
1.3607621279
 20
16.8147812199
 30
0.0
 11
1.2739231026
 21
16.8024904855
 31
0.0
  0
LINE
  5
14B
330
1F
100
AcDbEntity
  8
LAYER_3
100
AcDbLine
 10
1.2739231026
 20
16.8024904855
 30
0.0
 11
1.187914557
 21
16.7894336326
 31
0.0
  0
LINE
  5
14C
330
1F
100
AcDbEntity
  8
LAYER_3
100
AcDbLine
 10
1.187914557
 20
16.7894336326
 30
0.0
 11
1.1020536894
 21
16.7755106949
 31
0.0
  0
LINE
  5
14D
330
1F
100
AcDbEntity
  8
LAYER_3
100
AcDbLine
 10
1.1020536894
 20
16.7755106949
 30
0.0
 11
1.0163499729
 21
16.7607232084
 31
0.0
  0
LINE
  5
14E
330
1F
100
AcDbEntity
  8
LAYER_3
100
AcDbLine
 10
1.0163499729
 20
16.7607232084
 30
0.0
 11
0.9320265529
 21
16.7452754917
 31
0.0
  0
LINE
  5
14F
330
1F
100
AcDbEntity
  8
LAYER_3
100
AcDbLine
 10
0.9320265529
 20
16.7452754917
 30
0.0
 11
0.8478846894
 21
16.7289417758
 31
0.0
  0
LINE
  5
150
330
1F
100
AcDbEntity
  8
LAYER_3
100
AcDbLine
 10
0.8478846894
 20
16.7289417758
 30
0.0
 11
0.7639344942
 21
16.7117240236
 31
0.0
  0
LINE
  5
151
330
1F
100
AcDbEntity
  8
LAYER_3
100
AcDbLine
 10
0.7639344942
 20
16.7117240236
 30
0.0
 11
0.64345356
 21
16.6863505369
 31
0.0
  0
LINE
  5
152
330
1F
100
AcDbEntity
  8
LAYER_3
100
AcDbLine
 10
0.64345356
 20
16.6863505369
 30
0.0
 11
0.4688694942
 21
16.7505927018
 31
0.0
  0
LINE
  5
153
330
1F
100
AcDbEntity
  8
LAYER_3
100
AcDbLine
 10
0.4688694942
 20
16.7505927018
 30
0.0
 11
0.2948243981
 21
16.8138110406
 31
0.0
  0
LINE
  5
154
330
1F
100
AcDbEntity
  8
LAYER_3
100
AcDbLine
 10
0.2948243981
 20
16.8138110406
 30
0.0
 11
0.1202169331
 21
16.8755852227
 31
0.0
  0
LINE
  5
155
330
1F
100
AcDbEntity
  8
LAYER_3
100
AcDbLine
 10
0.1202169331
 20
16.8755852227
 30
0.0
 11
-0.0566843902
 21
16.9365359659
 31
0.0
  0
LINE
  5
156
330
1F
100
AcDbEntity
  8
LAYER_3
100
AcDbLine
 10
-0.0566843902
 20
16.9365359659
 30
0.0
 11
-0.2341118197
 21
16.9960622172
 31
0.0
  0
LINE
  5
157
330
1F
100
AcDbEntity
  8
LAYER_3
100
AcDbLine
 10
-0.2341118197
 20
16.9960622172
 30
0.0
 11
-0.4027170016
 21
17.0510800626
 31
0.0
  0
LINE
  5
158
330
1F
100
AcDbEntity
  8
LAYER_3
100
AcDbLine
 10
-0.4027170016
 20
17.0510800626
 30
0.0
 11
-0.5718163285
 21
17.1046835464
 31
0.0
  0
LINE
  5
159
330
1F
100
AcDbEntity
  8
LAYER_3
100
AcDbLine
 10
-0.5718163285
 20
17.1046835464
 30
0.0
 11
-0.6708030943
 21
17.1351488272
 31
0.0
  0
LINE
  5
15A
330
1F
100
AcDbEntity
  8
LAYER_3
100
AcDbLine
 10
-0.6708030943
 20
17.1351488272
 30
0.0
 11
-0.77006082
 21
17.164791374
 31
0.0
  0
LINE
  5
15B
330
1F
100
AcDbEntity
  8
LAYER_3
100
AcDbLine
 10
-0.77006082
 20
17.164791374
 30
0.0
 11
-0.8695820781
 21
17.1936089685
 31
0.0
  0
LINE
  5
15C
330
1F
100
AcDbEntity
  8
LAYER_3
100
AcDbLine
 10
-0.8695820781
 20
17.1936089685
 30
0.0
 11
-0.906838558
 21
17.2043315882
 31
0.0
  0
LINE
  5
15D
330
1F
100
AcDbEntity
  8
LAYER_3
100
AcDbLine
 10
-0.906838558
 20
17.2043315882
 30
0.0
 11
-0.9440353771
 21
17.2152432309
 31
0.0
  0
LINE
  5
15E
330
1F
100
AcDbEntity
  8
LAYER_3
100
AcDbLine
 10
-0.9440353771
 20
17.2152432309
 30
0.0
 11
-0.9974438929
 21
17.231110988
 31
0.0
  0
LINE
  5
15F
330
1F
100
AcDbEntity
  8
LAYER_3
100
AcDbLine
 10
-0.9974438929
 20
17.231110988
 30
0.0
 11
-1.0508216562
 21
17.2470737261
 31
0.0
  0
LINE
  5
160
330
1F
100
AcDbEntity
  8
LAYER_3
100
AcDbLine
 10
-1.0508216562
 20
17.2470737261
 30
0.0
 11
-1.1095089616
 21
17.2647384365
 31
0.0
  0
LINE
  5
161
330
1F
100
AcDbEntity
  8
LAYER_3
100
AcDbLine
 10
-1.1095089616
 20
17.2647384365
 30
0.0
 11
-1.1681622923
 21
17.2825067274
 31
0.0
  0
LINE
  5
162
330
1F
100
AcDbEntity
  8
LAYER_3
100
AcDbLine
 10
-1.1681622923
 20
17.2825067274
 30
0.0
 11
-1.2237975316
 21
17.299477964
 31
0.0
  0
LINE
  5
163
330
1F
100
AcDbEntity
  8
LAYER_3
100
AcDbLine
 10
-1.2237975316
 20
17.299477964
 30
0.0
 11
-1.2793945781
 21
17.3165640385
 31
0.0
  0
LINE
  5
164
330
1F
100
AcDbEntity
  8
LAYER_3
100
AcDbLine
 10
-1.2793945781
 20
17.3165640385
 30
0.0
 11
-1.3339208134
 21
17.3333517726
 31
0.0
  0
LINE
  5
165
330
1F
100
AcDbEntity
  8
LAYER_3
100
AcDbLine
 10
-1.3339208134
 20
17.3333517726
 30
0.0
 11
-1.3884660176
 21
17.3500826799
 31
0.0
  0
LINE
  5
166
330
1F
100
AcDbEntity
  8
LAYER_3
100
AcDbLine
 10
-1.3884660176
 20
17.3500826799
 30
0.0
 11
-1.4438738471
 21
17.3670160262
 31
0.0
  0
LINE
  5
167
330
1F
100
AcDbEntity
  8
LAYER_3
100
AcDbLine
 10
-1.4438738471
 20
17.3670160262
 30
0.0
 11
-1.4992999656
 21
17.3838941798
 31
0.0
  0
LINE
  5
168
330
1F
100
AcDbEntity
  8
LAYER_3
100
AcDbLine
 10
-1.4992999656
 20
17.3838941798
 30
0.0
 11
-1.548261096
 21
17.3987503373
 31
0.0
  0
LINE
  5
169
330
1F
100
AcDbEntity
  8
LAYER_3
100
AcDbLine
 10
-1.548261096
 20
17.3987503373
 30
0.0
 11
-1.5972381174
 21
17.4135581937
 31
0.0
  0
LINE
  5
16A
330
1F
100
AcDbEntity
  8
LAYER_3
100
AcDbLine
 10
-1.5972381174
 20
17.4135581937
 30
0.0
 11
-1.6284513514
 21
17.4229173758
 31
0.0
  0
LINE
  5
16B
330
1F
100
AcDbEntity
  8
LAYER_3
100
AcDbLine
 10
-1.6284513514
 20
17.4229173758
 30
0.0
 11
-1.6597005781
 21
17.4321653237
 31
0.0
  0
LINE
  5
16C
330
1F
100
AcDbEntity
  8
LAYER_3
100
AcDbLine
 10
-1.6597005781
 20
17.4321653237
 30
0.0
 11
-1.8015733748
 21
17.4730001724
 31
0.0
  0
LINE
  5
16D
330
1F
100
AcDbEntity
  8
LAYER_3
100
AcDbLine
 10
-1.8015733748
 20
17.4730001724
 30
0.0
 11
-1.9439373187
 21
17.5122297945
 31
0.0
  0
LINE
  5
16E
330
1F
100
AcDbEntity
  8
LAYER_3
100
AcDbLine
 10
-1.9439373187
 20
17.5122297945
 30
0.0
 11
-2.0867726823
 21
17.5498487541
 31
0.0
  0
LINE
  5
16F
330
1F
100
AcDbEntity
  8
LAYER_3
100
AcDbLine
 10
-2.0867726823
 20
17.5498487541
 30
0.0
 11
-2.2174420864
 21
17.5824297937
 31
0.0
  0
LINE
  5
170
330
1F
100
AcDbEntity
  8
LAYER_3
100
AcDbLine
 10
-2.2174420864
 20
17.5824297937
 30
0.0
 11
-2.3486230979
 21
17.6130597228
 31
0.0
  0
LINE
  5
171
330
1F
100
AcDbEntity
  8
LAYER_3
100
AcDbLine
 10
-2.3486230979
 20
17.6130597228
 30
0.0
 11
-2.4802840738
 21
17.6417311531
 31
0.0
  0
LINE
  5
172
330
1F
100
AcDbEntity
  8
LAYER_3
100
AcDbLine
 10
-2.4802840738
 20
17.6417311531
 30
0.0
 11
-2.5981989809
 21
17.6654661298
 31
0.0
  0
LINE
  5
173
330
1F
100
AcDbEntity
  8
LAYER_3
100
AcDbLine
 10
-2.5981989809
 20
17.6654661298
 30
0.0
 11
-2.7165230906
 21
17.687245762
 31
0.0
  0
LINE
  5
174
330
1F
100
AcDbEntity
  8
LAYER_3
100
AcDbLine
 10
-2.7165230906
 20
17.687245762
 30
0.0
 11
-2.835221185
 21
17.7070635673
 31
0.0
  0
LINE
  5
175
330
1F
100
AcDbEntity
  8
LAYER_3
100
AcDbLine
 10
-2.835221185
 20
17.7070635673
 30
0.0
 11
-2.9380796528
 21
17.7220095924
 31
0.0
  0
LINE
  5
176
330
1F
100
AcDbEntity
  8
LAYER_3
100
AcDbLine
 10
-2.9380796528
 20
17.7220095924
 30
0.0
 11
-3.0413175092
 21
17.734314031
 31
0.0
  0
LINE
  5
177
330
1F
100
AcDbEntity
  8
LAYER_3
100
AcDbLine
 10
-3.0413175092
 20
17.734314031
 30
0.0
 11
-3.1448610781
 21
17.7439681018
 31
0.0
  0
LINE
  5
178
330
1F
100
AcDbEntity
  8
LAYER_3
100
AcDbLine
 10
-3.1448610781
 20
17.7439681018
 30
0.0
 11
-3.1713050576
 21
17.7459098604
 31
0.0
  0
LINE
  5
179
330
1F
100
AcDbEntity
  8
LAYER_3
100
AcDbLine
 10
-3.1713050576
 20
17.7459098604
 30
0.0
 11
-3.197775205
 21
17.747489631
 31
0.0
  0
LINE
  5
17A
330
1F
100
AcDbEntity
  8
LAYER_3
100
AcDbLine
 10
-3.197775205
 20
17.747489631
 30
0.0
 11
-3.2242661383
 21
17.7487070925
 31
0.0
  0
LINE
  5
17B
330
1F
100
AcDbEntity
  8
LAYER_3
100
AcDbLine
 10
-3.2242661383
 20
17.7487070925
 30
0.0
 11
-3.2823150389
 21
17.7507767397
 31
0.0
  0
LINE
  5
17C
330
1F
100
AcDbEntity
  8
LAYER_3
100
AcDbLine
 10
-3.2823150389
 20
17.7507767397
 30
0.0
 11
-3.340377927
 21
17.7524465434
 31
0.0
  0
LINE
  5
17D
330
1F
100
AcDbEntity
  8
LAYER_3
100
AcDbLine
 10
-3.340377927
 20
17.7524465434
 30
0.0
 11
-3.3974536684
 21
17.7537303842
 31
0.0
  0
LINE
  5
17E
330
1F
100
AcDbEntity
  8
LAYER_3
100
AcDbLine
 10
-3.3974536684
 20
17.7537303842
 30
0.0
 11
-3.4464830781
 21
17.7545569737
 31
0.0
  0
LINE
  5
17F
330
1F
100
AcDbEntity
  8
LAYER_3
100
AcDbLine
 10
-3.4464830781
 20
16.8996130859
 30
0.0
 11
-3.3596028281
 21
16.8797212583
 31
0.0
  0
LINE
  5
180
330
1F
100
AcDbEntity
  8
LAYER_3
100
AcDbLine
 10
-3.3596028281
 20
16.8797212583
 30
0.0
 11
-3.3268536659
 21
16.8722335839
 31
0.0
  0
LINE
  5
181
330
1F
100
AcDbEntity
  8
LAYER_3
100
AcDbLine
 10
-3.3268536659
 20
16.8722335839
 30
0.0
 11
-3.2940995784
 21
16.86476577
 31
0.0
  0
LINE
  5
182
330
1F
100
AcDbEntity
  8
LAYER_3
100
AcDbLine
 10
-3.2940995784
 20
16.86476577
 30
0.0
 11
-3.091289086
 21
16.8185914283
 31
0.0
  0
LINE
  5
183
330
1F
100
AcDbEntity
  8
LAYER_3
100
AcDbLine
 10
-3.091289086
 20
16.8185914283
 30
0.0
 11
-2.8884782078
 21
16.7724186442
 31
0.0
  0
LINE
  5
184
330
1F
100
AcDbEntity
  8
LAYER_3
100
AcDbLine
 10
-2.8884782078
 20
16.7724186442
 30
0.0
 11
-2.6535744433
 21
16.7189433742
 31
0.0
  0
LINE
  5
185
330
1F
100
AcDbEntity
  8
LAYER_3
100
AcDbLine
 10
-2.6535744433
 20
16.7189433742
 30
0.0
 11
-2.4186693414
 21
16.6654735138
 31
0.0
  0
LINE
  5
186
330
1F
100
AcDbEntity
  8
LAYER_3
100
AcDbLine
 10
-2.4186693414
 20
16.6654735138
 30
0.0
 11
-2.1482233762
 21
16.6039191683
 31
0.0
  0
LINE
  5
187
330
1F
100
AcDbEntity
  8
LAYER_3
100
AcDbLine
 10
-2.1482233762
 20
16.6039191683
 30
0.0
 11
-1.8777763856
 21
16.5423689727
 31
0.0
  0
LINE
  5
188
330
1F
100
AcDbEntity
  8
LAYER_3
100
AcDbLine
 10
-1.8777763856
 20
16.5423689727
 30
0.0
 11
-1.6103144295
 21
16.4814362962
 31
0.0
  0
LINE
  5
189
330
1F
100
AcDbEntity
  8
LAYER_3
100
AcDbLine
 10
-1.6103144295
 20
16.4814362962
 30
0.0
 11
-1.3428823503
 21
16.4203830112
 31
0.0
  0
LINE
  5
18A
330
1F
100
AcDbEntity
  8
LAYER_3
100
AcDbLine
 10
-1.3428823503
 20
16.4203830112
 30
0.0
 11
-1.11770974
 21
16.3688337887
 31
0.0
  0
LINE
  5
18B
330
1F
100
AcDbEntity
  8
LAYER_3
100
AcDbLine
 10
-1.11770974
 20
16.3688337887
 30
0.0
 11
-0.8925793196
 21
16.3171151977
 31
0.0
  0
LINE
  5
18C
330
1F
100
AcDbEntity
  8
LAYER_3
100
AcDbLine
 10
-0.8925793196
 20
16.3171151977
 30
0.0
 11
-0.6884307263
 21
16.2701339354
 31
0.0
  0
LINE
  5
18D
330
1F
100
AcDbEntity
  8
LAYER_3
100
AcDbLine
 10
-0.6884307263
 20
16.2701339354
 30
0.0
 11
-0.4842827193
 21
16.2231503265
 31
0.0
  0
LINE
  5
18E
330
1F
100
AcDbEntity
  8
LAYER_3
100
AcDbLine
 10
-0.4842827193
 20
16.2231503265
 30
0.0
 11
-0.4840348646
 21
16.2230763856
 31
0.0
  0
LINE
  5
18F
330
1F
100
AcDbEntity
  8
LAYER_3
100
AcDbLine
 10
-0.4840348646
 20
16.2230763856
 30
0.0
 11
-0.4837993135
 21
16.2229717779
 31
0.0
  0
LINE
  5
190
330
1F
100
AcDbEntity
  8
LAYER_3
100
AcDbLine
 10
-0.4837993135
 20
16.2229717779
 30
0.0
 11
-0.4835801668
 21
16.2228383245
 31
0.0
  0
LINE
  5
191
330
1F
100
AcDbEntity
  8
LAYER_3
100
AcDbLine
 10
-0.4835801668
 20
16.2228383245
 30
0.0
 11
-0.4833812399
 21
16.2226783488
 31
0.0
  0
LINE
  5
192
330
1F
100
AcDbEntity
  8
LAYER_3
100
AcDbLine
 10
-0.4833812399
 20
16.2226783488
 30
0.0
 11
-0.4832059961
 21
16.222494636
 31
0.0
  0
LINE
  5
193
330
1F
100
AcDbEntity
  8
LAYER_3
100
AcDbLine
 10
-0.4832059961
 20
16.222494636
 30
0.0
 11
-0.4830574864
 21
16.2222903845
 31
0.0
  0
LINE
  5
194
330
1F
100
AcDbEntity
  8
LAYER_3
100
AcDbLine
 10
-0.4830574864
 20
16.2222903845
 30
0.0
 11
-0.4829382964
 21
16.2220691504
 31
0.0
  0
LINE
  5
195
330
1F
100
AcDbEntity
  8
LAYER_3
100
AcDbLine
 10
-0.4829382964
 20
16.2220691504
 30
0.0
 11
-0.4828505011
 21
16.2218347852
 31
0.0
  0
LINE
  5
196
330
1F
100
AcDbEntity
  8
LAYER_3
100
AcDbLine
 10
-0.4828505011
 20
16.2218347852
 30
0.0
 11
-0.482795629
 21
16.2215913694
 31
0.0
  0
LINE
  5
197
330
1F
100
AcDbEntity
  8
LAYER_3
100
AcDbLine
 10
-0.482795629
 20
16.2215913694
 30
0.0
 11
-0.4827746356
 21
16.2213431407
 31
0.0
  0
LINE
  5
198
330
1F
100
AcDbEntity
  8
LAYER_3
100
AcDbLine
 10
-0.4827746356
 20
16.2213431407
 30
0.0
 11
-0.482814443
 21
16.2204479878
 31
0.0
  0
LINE
  5
199
330
1F
100
AcDbEntity
  8
LAYER_3
100
AcDbLine
 10
-0.482814443
 20
16.2204479878
 30
0.0
 11
-0.4829612112
 21
16.2195631564
 31
0.0
  0
LINE
  5
19A
330
1F
100
AcDbEntity
  8
LAYER_3
100
AcDbLine
 10
-0.4829612112
 20
16.2195631564
 30
0.0
 11
-0.4832129952
 21
16.2187003736
 31
0.0
  0
LINE
  5
19B
330
1F
100
AcDbEntity
  8
LAYER_3
100
AcDbLine
 10
-0.4832129952
 20
16.2187003736
 30
0.0
 11
-0.4835664578
 21
16.2178710737
 31
0.0
  0
LINE
  5
19C
330
1F
100
AcDbEntity
  8
LAYER_3
100
AcDbLine
 10
-0.4835664578
 20
16.2178710737
 30
0.0
 11
-0.4840169147
 21
16.2170862478
 31
0.0
  0
LINE
  5
19D
330
1F
100
AcDbEntity
  8
LAYER_3
100
AcDbLine
 10
-0.4840169147
 20
16.2170862478
 30
0.0
 11
-0.4845583958
 21
16.2163562972
 31
0.0
  0
LINE
  5
19E
330
1F
100
AcDbEntity
  8
LAYER_3
100
AcDbLine
 10
-0.4845583958
 20
16.2163562972
 30
0.0
 11
-0.4851837248
 21
16.2156908962
 31
0.0
  0
LINE
  5
19F
330
1F
100
AcDbEntity
  8
LAYER_3
100
AcDbLine
 10
-0.4851837248
 20
16.2156908962
 30
0.0
 11
-0.4858846143
 21
16.2150988635
 31
0.0
  0
LINE
  5
1A0
330
1F
100
AcDbEntity
  8
LAYER_3
100
AcDbLine
 10
-0.4858846143
 20
16.2150988635
 30
0.0
 11
-1.9755623467
 21
15.0960075829
 31
0.0
  0
LINE
  5
1A1
330
1F
100
AcDbEntity
  8
LAYER_3
100
AcDbLine
 10
-1.9755623467
 20
15.0960075829
 30
0.0
 11
-3.4652494209
 21
13.9769277461
 31
0.0
  0
LINE
  5
1A2
330
1F
100
AcDbEntity
  8
LAYER_3
100
AcDbLine
 10
-3.4652494209
 20
13.9769277461
 30
0.0
 11
-3.4656866343
 21
13.9766680853
 31
0.0
  0
LINE
  5
1A3
330
1F
100
AcDbEntity
  8
LAYER_3
100
AcDbLine
 10
-3.4656866343
 20
13.9766680853
 30
0.0
 11
-3.4661575427
 21
13.9764699611
 31
0.0
  0
LINE
  5
1A4
330
1F
100
AcDbEntity
  8
LAYER_3
100
AcDbLine
 10
-3.4661575427
 20
13.9764699611
 30
0.0
 11
-3.4666527984
 21
13.9763373084
 31
0.0
  0
LINE
  5
1A5
330
1F
100
AcDbEntity
  8
LAYER_3
100
AcDbLine
 10
-3.4666527984
 20
13.9763373084
 30
0.0
 11
-3.4671625695
 21
13.976272761
 31
0.0
  0
LINE
  5
1A6
330
1F
100
AcDbEntity
  8
LAYER_3
100
AcDbLine
 10
-3.4671625695
 20
13.976272761
 30
0.0
 11
-3.4676767355
 21
13.9762776001
 31
0.0
  0
LINE
  5
1A7
330
1F
100
AcDbEntity
  8
LAYER_3
100
AcDbLine
 10
-3.4676767355
 20
13.9762776001
 30
0.0
 11
-3.4681850888
 21
13.9763517297
 31
0.0
  0
LINE
  5
1A8
330
1F
100
AcDbEntity
  8
LAYER_3
100
AcDbLine
 10
-3.4681850888
 20
13.9763517297
 30
0.0
 11
-3.4686775373
 21
13.9764936782
 31
0.0
  0
LINE
  5
1A9
330
1F
100
AcDbEntity
  8
LAYER_3
100
AcDbLine
 10
-3.4686775373
 20
13.9764936782
 30
0.0
 11
-3.4691443046
 21
13.9767006274
 31
0.0
  0
LINE
  5
1AA
330
1F
100
AcDbEntity
  8
LAYER_3
100
AcDbLine
 10
-3.4691443046
 20
13.9767006274
 30
0.0
 11
-3.4695761241
 21
13.9769684689
 31
0.0
  0
LINE
  5
1AB
330
1F
100
AcDbEntity
  8
LAYER_3
100
AcDbLine
 10
-3.4695761241
 20
13.9769684689
 30
0.0
 11
-3.4699644229
 21
13.9772918853
 31
0.0
  0
LINE
  5
1AC
330
1F
100
AcDbEntity
  8
LAYER_3
100
AcDbLine
 10
-3.4699644229
 20
13.9772918853
 30
0.0
 11
-3.4702007918
 21
13.9775423459
 31
0.0
  0
LINE
  5
1AD
330
1F
100
AcDbEntity
  8
LAYER_3
100
AcDbLine
 10
-3.4702007918
 20
13.9775423459
 30
0.0
 11
-3.470410177
 21
13.9778140145
 31
0.0
  0
LINE
  5
1AE
330
1F
100
AcDbEntity
  8
LAYER_3
100
AcDbLine
 10
-3.470410177
 20
13.9778140145
 30
0.0
 11
-3.4705905244
 21
13.9781042259
 31
0.0
  0
LINE
  5
1AF
330
1F
100
AcDbEntity
  8
LAYER_3
100
AcDbLine
 10
-3.4705905244
 20
13.9781042259
 30
0.0
 11
-3.4707400644
 21
13.9784101326
 31
0.0
  0
LINE
  5
1B0
330
1F
100
AcDbEntity
  8
LAYER_3
100
AcDbLine
 10
-3.4707400644
 20
13.9784101326
 30
0.0
 11
-3.4708573299
 21
13.9787287334
 31
0.0
  0
LINE
  5
1B1
330
1F
100
AcDbEntity
  8
LAYER_3
100
AcDbLine
 10
-3.4708573299
 20
13.9787287334
 30
0.0
 11
-3.4709411704
 21
13.9790569024
 31
0.0
  0
LINE
  5
1B2
330
1F
100
AcDbEntity
  8
LAYER_3
100
AcDbLine
 10
-3.4709411704
 20
13.9790569024
 30
0.0
 11
-3.4709907633
 21
13.9793914199
 31
0.0
  0
LINE
  5
1B3
330
1F
100
AcDbEntity
  8
LAYER_3
100
AcDbLine
 10
-3.4709907633
 20
13.9793914199
 30
0.0
 11
-3.4710056221
 21
13.9797290038
 31
0.0
  0
LINE
  5
1B4
330
1F
100
AcDbEntity
  8
LAYER_3
100
AcDbLine
 10
-3.4710056221
 20
13.9797290038
 30
0.0
 11
-3.4694886341
 21
14.1779845579
 31
0.0
  0
LINE
  5
1B5
330
1F
100
AcDbEntity
  8
LAYER_3
100
AcDbLine
 10
-3.4694886341
 20
14.1779845579
 30
0.0
 11
-3.4679695803
 21
14.3762400974
 31
0.0
  0
LINE
  5
1B6
330
1F
100
AcDbEntity
  8
LAYER_3
100
AcDbLine
 10
-3.4679695803
 20
14.3762400974
 30
0.0
 11
-3.466229263
 21
14.5947647184
 31
0.0
  0
LINE
  5
1B7
330
1F
100
AcDbEntity
  8
LAYER_3
100
AcDbLine
 10
-3.466229263
 20
14.5947647184
 30
0.0
 11
-3.4643586731
 21
14.8132883485
 31
0.0
  0
LINE
  5
1B8
330
1F
100
AcDbEntity
  8
LAYER_3
100
AcDbLine
 10
-3.4643586731
 20
14.8132883485
 30
0.0
 11
-3.4620152244
 21
15.0726267593
 31
0.0
  0
LINE
  5
1B9
330
1F
100
AcDbEntity
  8
LAYER_3
100
AcDbLine
 10
-3.4620152244
 20
15.0726267593
 30
0.0
 11
-3.4595787972
 21
15.3319643814
 31
0.0
  0
LINE
  5
1BA
330
1F
100
AcDbEntity
  8
LAYER_3
100
AcDbLine
 10
-3.4595787972
 20
15.3319643814
 30
0.0
 11
-3.4570784789
 21
15.5949502877
 31
0.0
  0
LINE
  5
1BB
330
1F
100
AcDbEntity
  8
LAYER_3
100
AcDbLine
 10
-3.4570784789
 20
15.5949502877
 30
0.0
 11
-3.4546126959
 21
15.8579364942
 31
0.0
  0
LINE
  5
1BC
330
1F
100
AcDbEntity
  8
LAYER_3
100
AcDbLine
 10
-3.4546126959
 20
15.8579364942
 30
0.0
 11
-3.4524907789
 21
16.0882724584
 31
0.0
  0
LINE
  5
1BD
330
1F
100
AcDbEntity
  8
LAYER_3
100
AcDbLine
 10
-3.4524907789
 20
16.0882724584
 30
0.0
 11
-3.450413993
 21
16.3186088013
 31
0.0
  0
LINE
  5
1BE
330
1F
100
AcDbEntity
  8
LAYER_3
100
AcDbLine
 10
-3.450413993
 20
16.3186088013
 30
0.0
 11
-3.4486649805
 21
16.5156480687
 31
0.0
  0
LINE
  5
1BF
330
1F
100
AcDbEntity
  8
LAYER_3
100
AcDbLine
 10
-3.4486649805
 20
16.5156480687
 30
0.0
 11
-3.4469323965
 21
16.7126874697
 31
0.0
  0
LINE
  5
1C0
330
1F
100
AcDbEntity
  8
LAYER_3
100
AcDbLine
 10
-3.4469323965
 20
16.7126874697
 30
0.0
 11
-3.4466655526
 21
16.7522918382
 31
0.0
  0
LINE
  5
1C1
330
1F
100
AcDbEntity
  8
LAYER_3
100
AcDbLine
 10
-3.4466655526
 20
16.7522918382
 30
0.0
 11
-3.4465582016
 21
16.7918969004
 31
0.0
  0
LINE
  5
1C2
330
1F
100
AcDbEntity
  8
LAYER_3
100
AcDbLine
 10
-3.4465582016
 20
16.7918969004
 30
0.0
 11
-3.4464830781
 21
16.8996130859
 31
0.0
  0
LINE
  5
1C3
330
1F
100
AcDbEntity
  8
LAYER_3
100
AcDbLine
 10
-3.4464830781
 20
17.7545569737
 30
0.0
 11
-3.4545362806
 21
17.7546927431
 31
0.0
  0
LINE
  5
1C4
330
1F
100
AcDbEntity
  8
LAYER_3
100
AcDbLine
 10
-3.4545362806
 20
17.7546927431
 30
0.0
 11
-3.4726284749
 21
17.7546938808
 31
0.0
  0
LINE
  5
1C5
330
1F
100
AcDbEntity
  8
LAYER_3
100
AcDbLine
 10
-3.4726284749
 20
17.7546938808
 30
0.0
 11
-3.4907130246
 21
17.7541892957
 31
0.0
  0
LINE
  5
1C6
330
1F
100
AcDbEntity
  8
LAYER_3
100
AcDbLine
 10
-3.4907130246
 20
17.7541892957
 30
0.0
 11
-3.5087745781
 21
17.753179416
 31
0.0
  0
LINE
  5
1C7
330
1F
100
AcDbEntity
  8
LAYER_3
100
AcDbLine
 10
-3.5087745781
 20
17.753179416
 30
0.0
 11
-3.5663869457
 21
17.7484728064
 31
0.0
  0
LINE
  5
1C8
330
1F
100
AcDbEntity
  8
LAYER_3
100
AcDbLine
 10
-3.5663869457
 20
17.7484728064
 30
0.0
 11
-3.6238629576
 21
17.7424230508
 31
0.0
  0
LINE
  5
1C9
330
1F
100
AcDbEntity
  8
LAYER_3
100
AcDbLine
 10
-3.6238629576
 20
17.7424230508
 30
0.0
 11
-3.6811686058
 21
17.7350337287
 31
0.0
  0
LINE
  5
1CA
330
1F
100
AcDbEntity
  8
LAYER_3
100
AcDbLine
 10
-3.6811686058
 20
17.7350337287
 30
0.0
 11
-3.7288631693
 21
17.7273467661
 31
0.0
  0
LINE
  5
1CB
330
1F
100
AcDbEntity
  8
LAYER_3
100
AcDbLine
 10
-3.7288631693
 20
17.7273467661
 30
0.0
 11
-3.7761858827
 21
17.717775079
 31
0.0
  0
LINE
  5
1CC
330
1F
100
AcDbEntity
  8
LAYER_3
100
AcDbLine
 10
-3.7761858827
 20
17.717775079
 30
0.0
 11
-3.8230558829
 21
17.7063350231
 31
0.0
  0
LINE
  5
1CD
330
1F
100
AcDbEntity
  8
LAYER_3
100
AcDbLine
 10
-3.8230558829
 20
17.7063350231
 30
0.0
 11
-3.8533935197
 21
17.6977126603
 31
0.0
  0
LINE
  5
1CE
330
1F
100
AcDbEntity
  8
LAYER_3
100
AcDbLine
 10
-3.8533935197
 20
17.6977126603
 30
0.0
 11
-3.8833838788
 21
17.6880362551
 31
0.0
  0
LINE
  5
1CF
330
1F
100
AcDbEntity
  8
LAYER_3
100
AcDbLine
 10
-3.8833838788
 20
17.6880362551
 30
0.0
 11
-3.9129871961
 21
17.6773186374
 31
0.0
  0
LINE
  5
1D0
330
1F
100
AcDbEntity
  8
LAYER_3
100
AcDbLine
 10
-3.9129871961
 20
17.6773186374
 30
0.0
 11
-3.9421642207
 21
17.6655740177
 31
0.0
  0
LINE
  5
1D1
330
1F
100
AcDbEntity
  8
LAYER_3
100
AcDbLine
 10
-3.9421642207
 20
17.6655740177
 30
0.0
 11
-3.9688315496
 21
17.6535903875
 31
0.0
  0
LINE
  5
1D2
330
1F
100
AcDbEntity
  8
LAYER_3
100
AcDbLine
 10
-3.9688315496
 20
17.6535903875
 30
0.0
 11
-3.9949079599
 21
17.6404640458
 31
0.0
  0
LINE
  5
1D3
330
1F
100
AcDbEntity
  8
LAYER_3
100
AcDbLine
 10
-3.9949079599
 20
17.6404640458
 30
0.0
 11
-4.0203402978
 21
17.626221749
 31
0.0
  0
LINE
  5
1D4
330
1F
100
AcDbEntity
  8
LAYER_3
100
AcDbLine
 10
-4.0203402978
 20
17.626221749
 30
0.0
 11
-4.0450767226
 21
17.6108925285
 31
0.0
  0
LINE
  5
1D5
330
1F
100
AcDbEntity
  8
LAYER_3
100
AcDbLine
 10
-4.0450767226
 20
17.6108925285
 30
0.0
 11
-4.0550818364
 21
17.6040007811
 31
0.0
  0
LINE
  5
1D6
330
1F
100
AcDbEntity
  8
LAYER_3
100
AcDbLine
 10
-4.0550818364
 20
17.6040007811
 30
0.0
 11
-4.0646908206
 21
17.5966082707
 31
0.0
  0
LINE
  5
1D7
330
1F
100
AcDbEntity
  8
LAYER_3
100
AcDbLine
 10
-4.0646908206
 20
17.5966082707
 30
0.0
 11
-4.0738764811
 21
17.5887359185
 31
0.0
  0
LINE
  5
1D8
330
1F
100
AcDbEntity
  8
LAYER_3
100
AcDbLine
 10
-4.0738764811
 20
17.5887359185
 30
0.0
 11
-4.0826128219
 21
17.5804060038
 31
0.0
  0
LINE
  5
1D9
330
1F
100
AcDbEntity
  8
LAYER_3
100
AcDbLine
 10
-4.0826128219
 20
17.5804060038
 30
0.0
 11
-4.0908751185
 21
17.5716421008
 31
0.0
  0
LINE
  5
1DA
330
1F
100
AcDbEntity
  8
LAYER_3
100
AcDbLine
 10
-4.0908751185
 20
17.5716421008
 30
0.0
 11
-4.1018994769
 21
17.5587128217
 31
0.0
  0
LINE
  5
1DB
330
1F
100
AcDbEntity
  8
LAYER_3
100
AcDbLine
 10
-4.1018994769
 20
17.5587128217
 30
0.0
 11
-4.1122914846
 21
17.5453100604
 31
0.0
  0
LINE
  5
1DC
330
1F
100
AcDbEntity
  8
LAYER_3
100
AcDbLine
 10
-4.1122914846
 20
17.5453100604
 30
0.0
 11
-4.1220290838
 21
17.5314622653
 31
0.0
  0
LINE
  5
1DD
330
1F
100
AcDbEntity
  8
LAYER_3
100
AcDbLine
 10
-4.1220290838
 20
17.5314622653
 30
0.0
 11
-4.1310916059
 21
17.5171988292
 31
0.0
  0
LINE
  5
1DE
330
1F
100
AcDbEntity
  8
LAYER_3
100
AcDbLine
 10
-4.1310916059
 20
17.5171988292
 30
0.0
 11
-4.1415569895
 21
17.499108669
 31
0.0
  0
LINE
  5
1DF
330
1F
100
AcDbEntity
  8
LAYER_3
100
AcDbLine
 10
-4.1415569895
 20
17.499108669
 30
0.0
 11
-4.1513486211
 21
17.4806744937
 31
0.0
  0
LINE
  5
1E0
330
1F
100
AcDbEntity
  8
LAYER_3
100
AcDbLine
 10
-4.1513486211
 20
17.4806744937
 30
0.0
 11
-4.1604542348
 21
17.4619193957
 31
0.0
  0
LINE
  5
1E1
330
1F
100
AcDbEntity
  8
LAYER_3
100
AcDbLine
 10
-4.1604542348
 20
17.4619193957
 30
0.0
 11
-4.1688624241
 21
17.4428668693
 31
0.0
  0
LINE
  5
1E2
330
1F
100
AcDbEntity
  8
LAYER_3
100
AcDbLine
 10
-4.1688624241
 20
17.4428668693
 30
0.0
 11
-4.1824741679
 21
17.409392312
 31
0.0
  0
LINE
  5
1E3
330
1F
100
AcDbEntity
  8
LAYER_3
100
AcDbLine
 10
-4.1824741679
 20
17.409392312
 30
0.0
 11
-4.1953251604
 21
17.3756420578
 31
0.0
  0
LINE
  5
1E4
330
1F
100
AcDbEntity
  8
LAYER_3
100
AcDbLine
 10
-4.1953251604
 20
17.3756420578
 30
0.0
 11
-4.207409342
 21
17.3416320211
 31
0.0
  0
LINE
  5
1E5
330
1F
100
AcDbEntity
  8
LAYER_3
100
AcDbLine
 10
-4.207409342
 20
17.3416320211
 30
0.0
 11
-4.2281525725
 21
17.2772156836
 31
0.0
  0
LINE
  5
1E6
330
1F
100
AcDbEntity
  8
LAYER_3
100
AcDbLine
 10
-4.2281525725
 20
17.2772156836
 30
0.0
 11
-4.2464609867
 21
17.2121234324
 31
0.0
  0
LINE
  5
1E7
330
1F
100
AcDbEntity
  8
LAYER_3
100
AcDbLine
 10
-4.2464609867
 20
17.2121234324
 30
0.0
 11
-4.262310762
 21
17.1464399646
 31
0.0
  0
LINE
  5
1E8
330
1F
100
AcDbEntity
  8
LAYER_3
100
AcDbLine
 10
-4.262310762
 20
17.1464399646
 30
0.0
 11
-4.278379124
 21
17.0695825303
 31
0.0
  0
LINE
  5
1E9
330
1F
100
AcDbEntity
  8
LAYER_3
100
AcDbLine
 10
-4.278379124
 20
17.0695825303
 30
0.0
 11
-4.2925986607
 21
16.9923904475
 31
0.0
  0
LINE
  5
1EA
330
1F
100
AcDbEntity
  8
LAYER_3
100
AcDbLine
 10
-4.2925986607
 20
16.9923904475
 30
0.0
 11
-4.3049618308
 21
16.9149046545
 31
0.0
  0
LINE
  5
1EB
330
1F
100
AcDbEntity
  8
LAYER_3
100
AcDbLine
 10
-4.3049618308
 20
16.9149046545
 30
0.0
 11
-4.3174288981
 21
16.8238469375
 31
0.0
  0
LINE
  5
1EC
330
1F
100
AcDbEntity
  8
LAYER_3
100
AcDbLine
 10
-4.3174288981
 20
16.8238469375
 30
0.0
 11
-4.3280381864
 21
16.7325727579
 31
0.0
  0
LINE
  5
1ED
330
1F
100
AcDbEntity
  8
LAYER_3
100
AcDbLine
 10
-4.3280381864
 20
16.7325727579
 30
0.0
 11
-4.3367856401
 21
16.6411170067
 31
0.0
  0
LINE
  5
1EE
330
1F
100
AcDbEntity
  8
LAYER_3
100
AcDbLine
 10
-4.3367856401
 20
16.6411170067
 30
0.0
 11
-4.3453523566
 21
16.5328742703
 31
0.0
  0
LINE
  5
1EF
330
1F
100
AcDbEntity
  8
LAYER_3
100
AcDbLine
 10
-4.3453523566
 20
16.5328742703
 30
0.0
 11
-4.3525768195
 21
16.4245414342
 31
0.0
  0
LINE
  5
1F0
330
1F
100
AcDbEntity
  8
LAYER_3
100
AcDbLine
 10
-4.3525768195
 20
16.4245414342
 30
0.0
 11
-4.358458007
 21
16.3161338211
 31
0.0
  0
LINE
  5
1F1
330
1F
100
AcDbEntity
  8
LAYER_3
100
AcDbLine
 10
-4.358458007
 20
16.3161338211
 30
0.0
 11
-4.3611522507
 21
16.2494047579
 31
0.0
  0
LINE
  5
1F2
330
1F
100
AcDbEntity
  8
LAYER_3
100
AcDbLine
 10
-4.3611522507
 20
16.2494047579
 30
0.0
 11
-4.3628256232
 21
16.182644944
 31
0.0
  0
LINE
  5
1F3
330
1F
100
AcDbEntity
  8
LAYER_3
100
AcDbLine
 10
-4.3628256232
 20
16.182644944
 30
0.0
 11
-4.3634777643
 21
16.1158687571
 31
0.0
  0
LINE
  5
1F4
330
1F
100
AcDbEntity
  8
LAYER_3
100
AcDbLine
 10
-4.3634777643
 20
16.1158687571
 30
0.0
 11
-4.3633705296
 21
15.9499350575
 31
0.0
  0
LINE
  5
1F5
330
1F
100
AcDbEntity
  8
LAYER_3
100
AcDbLine
 10
-4.3633705296
 20
15.9499350575
 30
0.0
 11
-4.3623456917
 21
15.7840042396
 31
0.0
  0
LINE
  5
1F6
330
1F
100
AcDbEntity
  8
LAYER_3
100
AcDbLine
 10
-4.3623456917
 20
15.7840042396
 30
0.0
 11
-4.3603350172
 21
15.6148284598
 31
0.0
  0
LINE
  5
1F7
330
1F
100
AcDbEntity
  8
LAYER_3
100
AcDbLine
 10
-4.3603350172
 20
15.6148284598
 30
0.0
 11
-4.35732819
 21
15.4456662804
 31
0.0
  0
LINE
  5
1F8
330
1F
100
AcDbEntity
  8
LAYER_3
100
AcDbLine
 10
-4.35732819
 20
15.4456662804
 30
0.0
 11
-4.3552451022
 21
15.365650803
 31
0.0
  0
LINE
  5
1F9
330
1F
100
AcDbEntity
  8
LAYER_3
100
AcDbLine
 10
-4.3552451022
 20
15.365650803
 30
0.0
 11
-4.352312319
 21
15.2856598477
 31
0.0
  0
LINE
  5
1FA
330
1F
100
AcDbEntity
  8
LAYER_3
100
AcDbLine
 10
-4.352312319
 20
15.2856598477
 30
0.0
 11
-4.3485301451
 21
15.2057017211
 31
0.0
  0
LINE
  5
1FB
330
1F
100
AcDbEntity
  8
LAYER_3
100
AcDbLine
 10
-4.3485301451
 20
15.2057017211
 30
0.0
 11
-4.3464093049
 21
15.1614439355
 31
0.0
  0
LINE
  5
1FC
330
1F
100
AcDbEntity
  8
LAYER_3
100
AcDbLine
 10
-4.3464093049
 20
15.1614439355
 30
0.0
 11
-4.344703952
 21
15.1171696185
 31
0.0
  0
LINE
  5
1FD
330
1F
100
AcDbEntity
  8
LAYER_3
100
AcDbLine
 10
-4.344703952
 20
15.1171696185
 30
0.0
 11
-4.3429504583
 21
15.0613971164
 31
0.0
  0
LINE
  5
1FE
330
1F
100
AcDbEntity
  8
LAYER_3
100
AcDbLine
 10
-4.3429504583
 20
15.0613971164
 30
0.0
 11
-4.3414620401
 21
15.0056175223
 31
0.0
  0
LINE
  5
1FF
330
1F
100
AcDbEntity
  8
LAYER_3
100
AcDbLine
 10
-4.3414620401
 20
15.0056175223
 30
0.0
 11
-4.3401979257
 21
14.9480148703
 31
0.0
  0
LINE
  5
200
330
1F
100
AcDbEntity
  8
LAYER_3
100
AcDbLine
 10
-4.3401979257
 20
14.9480148703
 30
0.0
 11
-4.3392056583
 21
14.8904073167
 31
0.0
  0
LINE
  5
201
330
1F
100
AcDbEntity
  8
LAYER_3
100
AcDbLine
 10
-4.3392056583
 20
14.8904073167
 30
0.0
 11
-4.3386337689
 21
14.8400079247
 31
0.0
  0
LINE
  5
202
330
1F
100
AcDbEntity
  8
LAYER_3
100
AcDbLine
 10
-4.3386337689
 20
14.8400079247
 30
0.0
 11
-4.3384163398
 21
14.7896059775
 31
0.0
  0
LINE
  5
203
330
1F
100
AcDbEntity
  8
LAYER_3
100
AcDbLine
 10
-4.3384163398
 20
14.7896059775
 30
0.0
 11
-4.3375171686
 21
14.6649921467
 31
0.0
  0
LINE
  5
204
330
1F
100
AcDbEntity
  8
LAYER_3
100
AcDbLine
 10
-4.3375171686
 20
14.6649921467
 30
0.0
 11
-4.3350182701
 21
14.5403983978
 31
0.0
  0
LINE
  5
205
330
1F
100
AcDbEntity
  8
LAYER_3
100
AcDbLine
 10
-4.3350182701
 20
14.5403983978
 30
0.0
 11
-4.3309200233
 21
14.4158436363
 31
0.0
  0
LINE
  5
206
330
1F
100
AcDbEntity
  8
LAYER_3
100
AcDbLine
 10
-4.3309200233
 20
14.4158436363
 30
0.0
 11
-4.3209577976
 21
14.1956081704
 31
0.0
  0
LINE
  5
207
330
1F
100
AcDbEntity
  8
LAYER_3
100
AcDbLine
 10
-4.3209577976
 20
14.1956081704
 30
0.0
 11
-4.3083993839
 21
13.975494942
 31
0.0
  0
LINE
  5
208
330
1F
100
AcDbEntity
  8
LAYER_3
100
AcDbLine
 10
-4.3083993839
 20
13.975494942
 30
0.0
 11
-4.2917931396
 21
13.7328240979
 31
0.0
  0
LINE
  5
209
330
1F
100
AcDbEntity
  8
LAYER_3
100
AcDbLine
 10
-4.2917931396
 20
13.7328240979
 30
0.0
 11
-4.2725479635
 21
13.4903327816
 31
0.0
  0
LINE
  5
20A
330
1F
100
AcDbEntity
  8
LAYER_3
100
AcDbLine
 10
-4.2725479635
 20
13.4903327816
 30
0.0
 11
-4.2496752352
 21
13.234799151
 31
0.0
  0
LINE
  5
20B
330
1F
100
AcDbEntity
  8
LAYER_3
100
AcDbLine
 10
-4.2496752352
 20
13.234799151
 30
0.0
 11
-4.2244332155
 21
12.9794709569
 31
0.0
  0
LINE
  5
20C
330
1F
100
AcDbEntity
  8
LAYER_3
100
AcDbLine
 10
-4.2244332155
 20
12.9794709569
 30
0.0
 11
-4.2154088885
 21
12.8923161927
 31
0.0
  0
LINE
  5
20D
330
1F
100
AcDbEntity
  8
LAYER_3
100
AcDbLine
 10
-4.2154088885
 20
12.8923161927
 30
0.0
 11
-4.2505365407
 21
12.789951667
 31
0.0
  0
LINE
  5
20E
330
1F
100
AcDbEntity
  8
LAYER_3
100
AcDbLine
 10
-4.2505365407
 20
12.789951667
 30
0.0
 11
-4.2824241309
 21
12.693688853
 31
0.0
  0
LINE
  5
20F
330
1F
100
AcDbEntity
  8
LAYER_3
100
AcDbLine
 10
-4.2824241309
 20
12.693688853
 30
0.0
 11
-4.3122297893
 21
12.5968138001
 31
0.0
  0
LINE
  5
210
330
1F
100
AcDbEntity
  8
LAYER_3
100
AcDbLine
 10
-4.3122297893
 20
12.5968138001
 30
0.0
 11
-4.3399407636
 21
12.4993679567
 31
0.0
  0
LINE
  5
211
330
1F
100
AcDbEntity
  8
LAYER_3
100
AcDbLine
 10
-4.3399407636
 20
12.4993679567
 30
0.0
 11
-4.3652414429
 21
12.4024182785
 31
0.0
  0
LINE
  5
212
330
1F
100
AcDbEntity
  8
LAYER_3
100
AcDbLine
 10
-4.3652414429
 20
12.4024182785
 30
0.0
 11
-4.3883789732
 21
12.3049723825
 31
0.0
  0
LINE
  5
213
330
1F
100
AcDbEntity
  8
LAYER_3
100
AcDbLine
 10
-4.3883789732
 20
12.3049723825
 30
0.0
 11
-4.4093428056
 21
12.2070746968
 31
0.0
  0
LINE
  5
214
330
1F
100
AcDbEntity
  8
LAYER_3
100
AcDbLine
 10
-4.4093428056
 20
12.2070746968
 30
0.0
 11
-4.4280579655
 21
12.1090917262
 31
0.0
  0
LINE
  5
215
330
1F
100
AcDbEntity
  8
LAYER_3
100
AcDbLine
 10
-4.4280579655
 20
12.1090917262
 30
0.0
 11
-4.4445811064
 21
12.0107465453
 31
0.0
  0
LINE
  5
216
330
1F
100
AcDbEntity
  8
LAYER_3
100
AcDbLine
 10
-4.4445811064
 20
12.0107465453
 30
0.0
 11
-4.4589046441
 21
11.9120842949
 31
0.0
  0
LINE
  5
217
330
1F
100
AcDbEntity
  8
LAYER_3
100
AcDbLine
 10
-4.4589046441
 20
11.9120842949
 30
0.0
 11
-4.4710860682
 21
11.8127396228
 31
0.0
  0
LINE
  5
218
330
1F
100
AcDbEntity
  8
LAYER_3
100
AcDbLine
 10
-4.4710860682
 20
11.8127396228
 30
0.0
 11
-4.4810740971
 21
11.7131698951
 31
0.0
  0
LINE
  5
219
330
1F
100
AcDbEntity
  8
LAYER_3
100
AcDbLine
 10
-4.4810740971
 20
11.7131698951
 30
0.0
 11
-4.488864259
 21
11.6134196901
 31
0.0
  0
LINE
  5
21A
330
1F
100
AcDbEntity
  8
LAYER_3
100
AcDbLine
 10
-4.488864259
 20
11.6134196901
 30
0.0
 11
-4.4911898851
 21
11.5738257566
 31
0.0
  0
LINE
  5
21B
330
1F
100
AcDbEntity
  8
LAYER_3
100
AcDbLine
 10
-4.4911898851
 20
11.5738257566
 30
0.0
 11
-4.4928620182
 21
11.534201462
 31
0.0
  0
LINE
  5
21C
330
1F
100
AcDbEntity
  8
LAYER_3
100
AcDbLine
 10
-4.4928620182
 20
11.534201462
 30
0.0
 11
-4.4938802395
 21
11.4945567355
 31
0.0
  0
LINE
  5
21D
330
1F
100
AcDbEntity
  8
LAYER_3
100
AcDbLine
 10
-4.4938802395
 20
11.4945567355
 30
0.0
 11
-4.4949956257
 21
11.4092353113
 31
0.0
  0
LINE
  5
21E
330
1F
100
AcDbEntity
  8
LAYER_3
100
AcDbLine
 10
-4.4949956257
 20
11.4092353113
 30
0.0
 11
-4.495367413
 21
11.3239079211
 31
0.0
  0
LINE
  5
21F
330
1F
100
AcDbEntity
  8
LAYER_3
100
AcDbLine
 10
-4.495367413
 20
11.3239079211
 30
0.0
 11
-4.4949956257
 21
11.2385805309
 31
0.0
  0
LINE
  5
220
330
1F
100
AcDbEntity
  8
LAYER_3
100
AcDbLine
 10
-4.4949956257
 20
11.2385805309
 30
0.0
 11
-4.4938802395
 21
11.1532591067
 31
0.0
  0
LINE
  5
221
330
1F
100
AcDbEntity
  8
LAYER_3
100
AcDbLine
 10
-4.4938802395
 20
11.1532591067
 30
0.0
 11
-4.4928620182
 21
11.1136143802
 31
0.0
  0
LINE
  5
222
330
1F
100
AcDbEntity
  8
LAYER_3
100
AcDbLine
 10
-4.4928620182
 20
11.1136143802
 30
0.0
 11
-4.4911898851
 21
11.0739900856
 31
0.0
  0
LINE
  5
223
330
1F
100
AcDbEntity
  8
LAYER_3
100
AcDbLine
 10
-4.4911898851
 20
11.0739900856
 30
0.0
 11
-4.488864259
 21
11.0343961521
 31
0.0
  0
LINE
  5
224
330
1F
100
AcDbEntity
  8
LAYER_3
100
AcDbLine
 10
-4.488864259
 20
11.0343961521
 30
0.0
 11
-4.4757381331
 21
10.8785906349
 31
0.0
  0
LINE
  5
225
330
1F
100
AcDbEntity
  8
LAYER_3
100
AcDbLine
 10
-4.4757381331
 20
10.8785906349
 30
0.0
 11
-4.4572791833
 21
10.7232835496
 31
0.0
  0
LINE
  5
226
330
1F
100
AcDbEntity
  8
LAYER_3
100
AcDbLine
 10
-4.4572791833
 20
10.7232835496
 30
0.0
 11
-4.4335073767
 21
10.5686428915
 31
0.0
  0
LINE
  5
227
330
1F
100
AcDbEntity
  8
LAYER_3
100
AcDbLine
 10
-4.4335073767
 20
10.5686428915
 30
0.0
 11
-4.4046403615
 21
10.4162495086
 31
0.0
  0
LINE
  5
228
330
1F
100
AcDbEntity
  8
LAYER_3
100
AcDbLine
 10
-4.4046403615
 20
10.4162495086
 30
0.0
 11
-4.3704215476
 21
10.2648793721
 31
0.0
  0
LINE
  5
229
330
1F
100
AcDbEntity
  8
LAYER_3
100
AcDbLine
 10
-4.3704215476
 20
10.2648793721
 30
0.0
 11
-4.3308900382
 21
10.114705459
 31
0.0
  0
LINE
  5
22A
330
1F
100
AcDbEntity
  8
LAYER_3
100
AcDbLine
 10
-4.3308900382
 20
10.114705459
 30
0.0
 11
-4.285808074
 21
9.9648919273
 31
0.0
  0
LINE
  5
22B
330
1F
100
AcDbEntity
  8
LAYER_3
100
AcDbLine
 10
-4.285808074
 20
9.9648919273
 30
0.0
 11
-4.2355117248
 21
9.8166143842
 31
0.0
  0
LINE
  5
22C
330
1F
100
AcDbEntity
  8
LAYER_3
100
AcDbLine
 10
-4.2355117248
 20
9.8166143842
 30
0.0
 11
-4.1800576492
 21
9.670039864
 31
0.0
  0
LINE
  5
22D
330
1F
100
AcDbEntity
  8
LAYER_3
100
AcDbLine
 10
-4.1800576492
 20
9.670039864
 30
0.0
 11
-4.1183264318
 21
9.5220504126
 31
0.0
  0
LINE
  5
22E
330
1F
100
AcDbEntity
  8
LAYER_3
100
AcDbLine
 10
-4.1183264318
 20
9.5220504126
 30
0.0
 11
-4.0517800208
 21
9.3759948661
 31
0.0
  0
LINE
  5
22F
330
1F
100
AcDbEntity
  8
LAYER_3
100
AcDbLine
 10
-4.0517800208
 20
9.3759948661
 30
0.0
 11
-3.9804841155
 21
9.2320174211
 31
0.0
  0
LINE
  5
230
330
1F
100
AcDbEntity
  8
LAYER_3
100
AcDbLine
 10
-3.9804841155
 20
9.2320174211
 30
0.0
 11
-3.9110420717
 21
9.1018849958
 31
0.0
  0
LINE
  5
231
330
1F
100
AcDbEntity
  8
LAYER_3
100
AcDbLine
 10
-3.9110420717
 20
9.1018849958
 30
0.0
 11
-3.8378448313
 21
8.9736612687
 31
0.0
  0
LINE
  5
232
330
1F
100
AcDbEntity
  8
LAYER_3
100
AcDbLine
 10
-3.8378448313
 20
8.9736612687
 30
0.0
 11
-3.7609493297
 21
8.8474459766
 31
0.0
  0
LINE
  5
233
330
1F
100
AcDbEntity
  8
LAYER_3
100
AcDbLine
 10
-3.7609493297
 20
8.8474459766
 30
0.0
 11
-3.6806965905
 21
8.7238140389
 31
0.0
  0
LINE
  5
234
330
1F
100
AcDbEntity
  8
LAYER_3
100
AcDbLine
 10
-3.6806965905
 20
8.7238140389
 30
0.0
 11
-3.596841819
 21
8.6024029445
 31
0.0
  0
LINE
  5
235
330
1F
100
AcDbEntity
  8
LAYER_3
100
AcDbLine
 10
-3.596841819
 20
8.6024029445
 30
0.0
 11
-3.509451726
 21
8.4833092823
 31
0.0
  0
LINE
  5
236
330
1F
100
AcDbEntity
  8
LAYER_3
100
AcDbLine
 10
-3.509451726
 20
8.4833092823
 30
0.0
 11
-3.417094785
 21
8.3646380227
 31
0.0
  0
LINE
  5
237
330
1F
100
AcDbEntity
  8
LAYER_3
100
AcDbLine
 10
-3.417094785
 20
8.3646380227
 30
0.0
 11
-3.3213470977
 21
8.2484671254
 31
0.0
  0
LINE
  5
238
330
1F
100
AcDbEntity
  8
LAYER_3
100
AcDbLine
 10
-3.3213470977
 20
8.2484671254
 30
0.0
 11
-3.222282154
 21
8.1348857559
 31
0.0
  0
LINE
  5
239
330
1F
100
AcDbEntity
  8
LAYER_3
100
AcDbLine
 10
-3.222282154
 20
8.1348857559
 30
0.0
 11
-3.1164145542
 21
8.019793653
 31
0.0
  0
LINE
  5
23A
330
1F
100
AcDbEntity
  8
LAYER_3
100
AcDbLine
 10
-3.1164145542
 20
8.019793653
 30
0.0
 11
-3.0075950503
 21
7.9072647357
 31
0.0
  0
LINE
  5
23B
330
1F
100
AcDbEntity
  8
LAYER_3
100
AcDbLine
 10
-3.0075950503
 20
7.9072647357
 30
0.0
 11
-2.8958910275
 21
7.797368686
 31
0.0
  0
LINE
  5
23C
330
1F
100
AcDbEntity
  8
LAYER_3
100
AcDbLine
 10
-2.8958910275
 20
7.797368686
 30
0.0
 11
-2.8145410926
 21
7.7205190372
 31
0.0
  0
LINE
  5
23D
330
1F
100
AcDbEntity
  8
LAYER_3
100
AcDbLine
 10
-2.8145410926
 20
7.7205190372
 30
0.0
 11
-2.7319433968
 21
7.6449046338
 31
0.0
  0
LINE
  5
23E
330
1F
100
AcDbEntity
  8
LAYER_3
100
AcDbLine
 10
-2.7319433968
 20
7.6449046338
 30
0.0
 11
-2.6481183113
 21
7.5705441246
 31
0.0
  0
LINE
  5
23F
330
1F
100
AcDbEntity
  8
LAYER_3
100
AcDbLine
 10
-2.6481183113
 20
7.5705441246
 30
0.0
 11
-2.567325225
 21
7.5012852647
 31
0.0
  0
LINE
  5
240
330
1F
100
AcDbEntity
  8
LAYER_3
100
AcDbLine
 10
-2.567325225
 20
7.5012852647
 30
0.0
 11
-2.4852197894
 21
7.4334621269
 31
0.0
  0
LINE
  5
241
330
1F
100
AcDbEntity
  8
LAYER_3
100
AcDbLine
 10
-2.4852197894
 20
7.4334621269
 30
0.0
 11
-2.401829713
 21
7.3670976003
 31
0.0
  0
LINE
  5
242
330
1F
100
AcDbEntity
  8
LAYER_3
100
AcDbLine
 10
-2.401829713
 20
7.3670976003
 30
0.0
 11
-2.3164111378
 21
7.301609202
 31
0.0
  0
LINE
  5
243
330
1F
100
AcDbEntity
  8
LAYER_3
100
AcDbLine
 10
-2.3164111378
 20
7.301609202
 30
0.0
 11
-2.2297662473
 21
7.2376211247
 31
0.0
  0
LINE
  5
244
330
1F
100
AcDbEntity
  8
LAYER_3
100
AcDbLine
 10
-2.2297662473
 20
7.2376211247
 30
0.0
 11
-2.1419236618
 21
7.1751545045
 31
0.0
  0
LINE
  5
245
330
1F
100
AcDbEntity
  8
LAYER_3
100
AcDbLine
 10
-2.1419236618
 20
7.1751545045
 30
0.0
 11
-2.0466499945
 21
7.1097086373
 31
0.0
  0
LINE
  5
246
330
1F
100
AcDbEntity
  8
LAYER_3
100
AcDbLine
 10
-2.0466499945
 20
7.1097086373
 30
0.0
 11
-1.9503791302
 21
7.0456203034
 31
0.0
  0
LINE
  5
247
330
1F
100
AcDbEntity
  8
LAYER_3
100
AcDbLine
 10
-1.9503791302
 20
7.0456203034
 30
0.0
 11
-1.8531320781
 21
6.9829034888
 31
0.0
  0
LINE
  5
248
330
1F
100
AcDbEntity
  8
LAYER_3
100
AcDbLine
 10
-1.8531320781
 20
6.9829034888
 30
0.0
 11
-1.7870088619
 21
6.9413408933
 31
0.0
  0
LINE
  5
249
330
1F
100
AcDbEntity
  8
LAYER_3
100
AcDbLine
 10
-1.7870088619
 20
6.9413408933
 30
0.0
 11
-1.7205025811
 21
6.900344842
 31
0.0
  0
LINE
  5
24A
330
1F
100
AcDbEntity
  8
LAYER_3
100
AcDbLine
 10
-1.7205025811
 20
6.900344842
 30
0.0
 11
-1.6536185082
 21
6.859918585
 31
0.0
  0
LINE
  5
24B
330
1F
100
AcDbEntity
  8
LAYER_3
100
AcDbLine
 10
-1.6536185082
 20
6.859918585
 30
0.0
 11
-1.5927868849
 21
6.823999365
 31
0.0
  0
LINE
  5
24C
330
1F
100
AcDbEntity
  8
LAYER_3
100
AcDbLine
 10
-1.5927868849
 20
6.823999365
 30
0.0
 11
-1.5315083818
 21
6.7887863982
 31
0.0
  0
LINE
  5
24D
330
1F
100
AcDbEntity
  8
LAYER_3
100
AcDbLine
 10
-1.5315083818
 20
6.7887863982
 30
0.0
 11
-1.469791905
 21
6.7542848025
 31
0.0
  0
LINE
  5
24E
330
1F
100
AcDbEntity
  8
LAYER_3
100
AcDbLine
 10
-1.469791905
 20
6.7542848025
 30
0.0
 11
-1.4072722886
 21
6.7202925724
 31
0.0
  0
LINE
  5
24F
330
1F
100
AcDbEntity
  8
LAYER_3
100
AcDbLine
 10
-1.4072722886
 20
6.7202925724
 30
0.0
 11
-1.3443333624
 21
6.6870203446
 31
0.0
  0
LINE
  5
250
330
1F
100
AcDbEntity
  8
LAYER_3
100
AcDbLine
 10
-1.3443333624
 20
6.6870203446
 30
0.0
 11
-1.2809841326
 21
6.6544728802
 31
0.0
  0
LINE
  5
251
330
1F
100
AcDbEntity
  8
LAYER_3
100
AcDbLine
 10
-1.2809841326
 20
6.6544728802
 30
0.0
 11
-1.2097342724
 21
6.6187639412
 31
0.0
  0
LINE
  5
252
330
1F
100
AcDbEntity
  8
LAYER_3
100
AcDbLine
 10
-1.2097342724
 20
6.6187639412
 30
0.0
 11
-1.1381685069
 21
6.5836413977
 31
0.0
  0
LINE
  5
253
330
1F
100
AcDbEntity
  8
LAYER_3
100
AcDbLine
 10
-1.1381685069
 20
6.5836413977
 30
0.0
 11
-1.0662920781
 21
6.5491078223
 31
0.0
  0
LINE
  5
254
330
1F
100
AcDbEntity
  8
LAYER_3
100
AcDbLine
 10
-1.0662920781
 20
6.5491078223
 30
0.0
 11
-0.8440389372
 21
6.4476448322
 31
0.0
  0
LINE
  5
255
330
1F
100
AcDbEntity
  8
LAYER_3
100
AcDbLine
 10
-0.8440389372
 20
6.4476448322
 30
0.0
 11
-0.6185426347
 21
6.3529987948
 31
0.0
  0
LINE
  5
256
330
1F
100
AcDbEntity
  8
LAYER_3
100
AcDbLine
 10
-0.6185426347
 20
6.3529987948
 30
0.0
 11
-0.3900302178
 21
6.2652650073
 31
0.0
  0
LINE
  5
257
330
1F
100
AcDbEntity
  8
LAYER_3
100
AcDbLine
 10
-0.3900302178
 20
6.2652650073
 30
0.0
 11
-0.1572499486
 21
6.1839370218
 31
0.0
  0
LINE
  5
258
330
1F
100
AcDbEntity
  8
LAYER_3
100
AcDbLine
 10
-0.1572499486
 20
6.1839370218
 30
0.0
 11
0.0780550375
 21
6.1095982105
 31
0.0
  0
LINE
  5
259
330
1F
100
AcDbEntity
  8
LAYER_3
100
AcDbLine
 10
0.0780550375
 20
6.1095982105
 30
0.0
 11
0.3156568618
 21
6.0423205662
 31
0.0
  0
LINE
  5
25A
330
1F
100
AcDbEntity
  8
LAYER_3
100
AcDbLine
 10
0.3156568618
 20
6.0423205662
 30
0.0
 11
0.557443288
 21
5.9816026423
 31
0.0
  0
LINE
  5
25B
330
1F
100
AcDbEntity
  8
LAYER_3
100
AcDbLine
 10
0.557443288
 20
5.9816026423
 30
0.0
 11
0.801066015
 21
5.9280670676
 31
0.0
  0
LINE
  5
25C
330
1F
100
AcDbEntity
  8
LAYER_3
100
AcDbLine
 10
0.801066015
 20
5.9280670676
 30
0.0
 11
1.0462933527
 21
5.8817647554
 31
0.0
  0
LINE
  5
25D
330
1F
100
AcDbEntity
  8
LAYER_3
100
AcDbLine
 10
1.0462933527
 20
5.8817647554
 30
0.0
 11
1.2955478093
 21
5.8421988133
 31
0.0
  0
LINE
  5
25E
330
1F
100
AcDbEntity
  8
LAYER_3
100
AcDbLine
 10
1.2955478093
 20
5.8421988133
 30
0.0
 11
1.5459222077
 21
5.809790149
 31
0.0
  0
LINE
  5
25F
330
1F
100
AcDbEntity
  8
LAYER_3
100
AcDbLine
 10
1.5459222077
 20
5.809790149
 30
0.0
 11
1.7971933604
 21
5.7845676523
 31
0.0
  0
LINE
  5
260
330
1F
100
AcDbEntity
  8
LAYER_3
100
AcDbLine
 10
1.7971933604
 20
5.7845676523
 30
0.0
 11
1.8977364039
 21
5.776304319
 31
0.0
  0
LINE
  5
261
330
1F
100
AcDbEntity
  8
LAYER_3
100
AcDbLine
 10
1.8977364039
 20
5.776304319
 30
0.0
 11
1.9983429674
 21
5.7687863548
 31
0.0
  0
LINE
  5
262
330
1F
100
AcDbEntity
  8
LAYER_3
100
AcDbLine
 10
1.9983429674
 20
5.7687863548
 30
0.0
 11
2.0486101972
 21
5.7655082022
 31
0.0
  0
LINE
  5
263
330
1F
100
AcDbEntity
  8
LAYER_3
100
AcDbLine
 10
2.0486101972
 20
5.7655082022
 30
0.0
 11
2.0989148082
 21
5.7628090935
 31
0.0
  0
LINE
  5
264
330
1F
100
AcDbEntity
  8
LAYER_3
100
AcDbLine
 10
2.0989148082
 20
5.7628090935
 30
0.0
 11
2.1492495553
 21
5.7606894174
 31
0.0
  0
LINE
  5
265
330
1F
100
AcDbEntity
  8
LAYER_3
100
AcDbLine
 10
2.1492495553
 20
5.7606894174
 30
0.0
 11
2.2047964272
 21
5.7589370494
 31
0.0
  0
LINE
  5
266
330
1F
100
AcDbEntity
  8
LAYER_3
100
AcDbLine
 10
2.2047964272
 20
5.7589370494
 30
0.0
 11
2.2603587695
 21
5.7577170791
 31
0.0
  0
LINE
  5
267
330
1F
100
AcDbEntity
  8
LAYER_3
100
AcDbLine
 10
2.2603587695
 20
5.7577170791
 30
0.0
 11
2.3159310395
 21
5.7570296282
 31
0.0
  0
LINE
  5
268
330
1F
100
AcDbEntity
  8
LAYER_3
100
AcDbLine
 10
2.3159310395
 20
5.7570296282
 30
0.0
 11
2.449303691
 21
5.7562716598
 31
0.0
  0
LINE
  5
269
330
1F
100
AcDbEntity
  8
LAYER_3
100
AcDbLine
 10
2.449303691
 20
5.7562716598
 30
0.0
 11
2.5826784219
 21
5.7560189211
 31
0.0
  0
LINE
  5
26A
330
1F
100
AcDbEntity
  8
LAYER_3
100
AcDbLine
 10
2.5826784219
 20
5.7560189211
 30
0.0
 11
2.7160531528
 21
5.7562716598
 31
0.0
  0
LINE
  5
26B
330
1F
100
AcDbEntity
  8
LAYER_3
100
AcDbLine
 10
2.7160531528
 20
5.7562716598
 30
0.0
 11
2.8494258044
 21
5.7570296282
 31
0.0
  0
LINE
  5
26C
330
1F
100
AcDbEntity
  8
LAYER_3
100
AcDbLine
 10
2.8494258044
 20
5.7570296282
 30
0.0
 11
2.9049980743
 21
5.7577170791
 31
0.0
  0
LINE
  5
26D
330
1F
100
AcDbEntity
  8
LAYER_3
100
AcDbLine
 10
2.9049980743
 20
5.7577170791
 30
0.0
 11
2.9605604166
 21
5.7589370494
 31
0.0
  0
LINE
  5
26E
330
1F
100
AcDbEntity
  8
LAYER_3
100
AcDbLine
 10
2.9605604166
 20
5.7589370494
 30
0.0
 11
3.0161072885
 21
5.7606894174
 31
0.0
  0
LINE
  5
26F
330
1F
100
AcDbEntity
  8
LAYER_3
100
AcDbLine
 10
3.0161072885
 20
5.7606894174
 30
0.0
 11
3.0664420357
 21
5.7628090935
 31
0.0
  0
LINE
  5
270
330
1F
100
AcDbEntity
  8
LAYER_3
100
AcDbLine
 10
3.0664420357
 20
5.7628090935
 30
0.0
 11
3.1167466466
 21
5.7655082022
 31
0.0
  0
LINE
  5
271
330
1F
100
AcDbEntity
  8
LAYER_3
100
AcDbLine
 10
3.1167466466
 20
5.7655082022
 30
0.0
 11
3.1670138764
 21
5.7687863548
 31
0.0
  0
LINE
  5
272
330
1F
100
AcDbEntity
  8
LAYER_3
100
AcDbLine
 10
3.1670138764
 20
5.7687863548
 30
0.0
 11
3.2676204399
 21
5.776304319
 31
0.0
  0
LINE
  5
273
330
1F
100
AcDbEntity
  8
LAYER_3
100
AcDbLine
 10
3.2676204399
 20
5.776304319
 30
0.0
 11
3.3681634834
 21
5.7845676523
 31
0.0
  0
LINE
  5
274
330
1F
100
AcDbEntity
  8
LAYER_3
100
AcDbLine
 10
3.3681634834
 20
5.7845676523
 30
0.0
 11
3.5687863917
 21
5.8041479004
 31
0.0
  0
LINE
  5
275
330
1F
100
AcDbEntity
  8
LAYER_3
100
AcDbLine
 10
3.5687863917
 20
5.8041479004
 30
0.0
 11
3.768858845
 21
5.8283645113
 31
0.0
  0
LINE
  5
276
330
1F
100
AcDbEntity
  8
LAYER_3
100
AcDbLine
 10
3.768858845
 20
5.8283645113
 30
0.0
 11
3.9682644773
 21
5.8572034004
 31
0.0
  0
LINE
  5
277
330
1F
100
AcDbEntity
  8
LAYER_3
100
AcDbLine
 10
3.9682644773
 20
5.8572034004
 30
0.0
 11
4.1669068488
 21
5.8906506175
 31
0.0
  0
LINE
  5
278
330
1F
100
AcDbEntity
  8
LAYER_3
100
AcDbLine
 10
4.1669068488
 20
5.8906506175
 30
0.0
 11
4.3646510858
 21
5.9286830743
 31
0.0
  0
LINE
  5
279
330
1F
100
AcDbEntity
  8
LAYER_3
100
AcDbLine
 10
4.3646510858
 20
5.9286830743
 30
0.0
 11
4.5613822399
 21
5.9712786625
 31
0.0
  0
LINE
  5
27A
330
1F
100
AcDbEntity
  8
LAYER_3
100
AcDbLine
 10
4.5613822399
 20
5.9712786625
 30
0.0
 11
4.75503666
 21
6.0179664603
 31
0.0
  0
LINE
  5
27B
330
1F
100
AcDbEntity
  8
LAYER_3
100
AcDbLine
 10
4.75503666
 20
6.0179664603
 30
0.0
 11
4.9474490564
 21
6.069164072
 31
0.0
  0
LINE
  5
27C
330
1F
100
AcDbEntity
  8
LAYER_3
100
AcDbLine
 10
4.9474490564
 20
6.069164072
 30
0.0
 11
5.1385053682
 21
6.1248411481
 31
0.0
  0
LINE
  5
27D
330
1F
100
AcDbEntity
  8
LAYER_3
100
AcDbLine
 10
5.1385053682
 20
6.1248411481
 30
0.0
 11
5.3242641089
 21
6.1839007415
 31
0.0
  0
LINE
  5
27E
330
1F
100
AcDbEntity
  8
LAYER_3
100
AcDbLine
 10
5.3242641089
 20
6.1839007415
 30
0.0
 11
5.5083688457
 21
6.2475500544
 31
0.0
  0
LINE
  5
27F
330
1F
100
AcDbEntity
  8
LAYER_3
100
AcDbLine
 10
5.5083688457
 20
6.2475500544
 30
0.0
 11
5.6906964219
 21
6.3157465089
 31
0.0
  0
LINE
  5
280
330
1F
100
AcDbEntity
  8
LAYER_3
100
AcDbLine
 10
5.6906964219
 20
6.3157465089
 30
0.0
 11
5.8685975414
 21
6.3872585099
 31
0.0
  0
LINE
  5
281
330
1F
100
AcDbEntity
  8
LAYER_3
100
AcDbLine
 10
5.8685975414
 20
6.3872585099
 30
0.0
 11
6.0446435163
 21
6.4628790885
 31
0.0
  0
LINE
  5
282
330
1F
100
AcDbEntity
  8
LAYER_3
100
AcDbLine
 10
6.0446435163
 20
6.4628790885
 30
0.0
 11
6.2187312975
 21
6.5425639799
 31
0.0
  0
LINE
  5
283
330
1F
100
AcDbEntity
  8
LAYER_3
100
AcDbLine
 10
6.2187312975
 20
6.5425639799
 30
0.0
 11
6.3875314364
 21
6.6248374023
 31
0.0
  0
LINE
  5
284
330
1F
100
AcDbEntity
  8
LAYER_3
100
AcDbLine
 10
6.3875314364
 20
6.6248374023
 30
0.0
 11
6.5540831132
 21
6.7112265996
 31
0.0
  0
LINE
  5
285
330
1F
100
AcDbEntity
  8
LAYER_3
100
AcDbLine
 10
6.5540831132
 20
6.7112265996
 30
0.0
 11
6.7182773457
 21
6.8016750435
 31
0.0
  0
LINE
  5
286
330
1F
100
AcDbEntity
  8
LAYER_3
100
AcDbLine
 10
6.7182773457
 20
6.8016750435
 30
0.0
 11
6.8771582983
 21
6.894508814
 31
0.0
  0
LINE
  5
287
330
1F
100
AcDbEntity
  8
LAYER_3
100
AcDbLine
 10
6.8771582983
 20
6.894508814
 30
0.0
 11
7.0334658883
 21
6.9912808411
 31
0.0
  0
LINE
  5
288
330
1F
100
AcDbEntity
  8
LAYER_3
100
AcDbLine
 10
7.0334658883
 20
6.9912808411
 30
0.0
 11
7.1870941052
 21
7.0919254921
 31
0.0
  0
LINE
  5
289
330
1F
100
AcDbEntity
  8
LAYER_3
100
AcDbLine
 10
7.1870941052
 20
7.0919254921
 30
0.0
 11
7.3354510105
 21
7.1947922483
 31
0.0
  0
LINE
  5
28A
330
1F
100
AcDbEntity
  8
LAYER_3
100
AcDbLine
 10
7.3354510105
 20
7.1947922483
 30
0.0
 11
7.4808220102
 21
7.3015115093
 31
0.0
  0
LINE
  5
28B
330
1F
100
AcDbEntity
  8
LAYER_3
100
AcDbLine
 10
7.4808220102
 20
7.3015115093
 30
0.0
 11
7.6230984696
 21
7.4120035248
 31
0.0
  0
LINE
  5
28C
330
1F
100
AcDbEntity
  8
LAYER_3
100
AcDbLine
 10
7.6230984696
 20
7.4120035248
 30
0.0
 11
7.7139889071
 21
7.4859737126
 31
0.0
  0
LINE
  5
28D
330
1F
100
AcDbEntity
  8
LAYER_3
100
AcDbLine
 10
7.7139889071
 20
7.4859737126
 30
0.0
 11
7.8034235713
 21
7.5615598559
 31
0.0
  0
LINE
  5
28E
330
1F
100
AcDbEntity
  8
LAYER_3
100
AcDbLine
 10
7.8034235713
 20
7.5615598559
 30
0.0
 11
7.8913712594
 21
7.6387355837
 31
0.0
  0
LINE
  5
28F
330
1F
100
AcDbEntity
  8
LAYER_3
100
AcDbLine
 10
7.8913712594
 20
7.6387355837
 30
0.0
 11
7.9781743757
 21
7.7177952792
 31
0.0
  0
LINE
  5
290
330
1F
100
AcDbEntity
  8
LAYER_3
100
AcDbLine
 10
7.9781743757
 20
7.7177952792
 30
0.0
 11
8.0634429531
 21
7.7983777088
 31
0.0
  0
LINE
  5
291
330
1F
100
AcDbEntity
  8
LAYER_3
100
AcDbLine
 10
8.0634429531
 20
7.7983777088
 30
0.0
 11
8.1471479809
 21
7.8804554562
 31
0.0
  0
LINE
  5
292
330
1F
100
AcDbEntity
  8
LAYER_3
100
AcDbLine
 10
8.1471479809
 20
7.8804554562
 30
0.0
 11
8.2282015503
 21
7.96294131
 31
0.0
  0
LINE
  5
293
330
1F
100
AcDbEntity
  8
LAYER_3
100
AcDbLine
 10
8.2282015503
 20
7.96294131
 30
0.0
 11
8.307635761
 21
8.0468649397
 31
0.0
  0
LINE
  5
294
330
1F
100
AcDbEntity
  8
LAYER_3
100
AcDbLine
 10
8.307635761
 20
8.0468649397
 30
0.0
 11
8.3854229154
 21
8.1321970821
 31
0.0
  0
LINE
  5
295
330
1F
100
AcDbEntity
  8
LAYER_3
100
AcDbLine
 10
8.3854229154
 20
8.1321970821
 30
0.0
 11
8.4591743393
 21
8.2163699348
 31
0.0
  0
LINE
  5
296
330
1F
100
AcDbEntity
  8
LAYER_3
100
AcDbLine
 10
8.4591743393
 20
8.2163699348
 30
0.0
 11
8.531115715
 21
8.3019727903
 31
0.0
  0
LINE
  5
297
330
1F
100
AcDbEntity
  8
LAYER_3
100
AcDbLine
 10
8.531115715
 20
8.3019727903
 30
0.0
 11
8.6012169328
 21
8.3889698211
 31
0.0
  0
LINE
  5
298
330
1F
100
AcDbEntity
  8
LAYER_3
100
AcDbLine
 10
8.6012169328
 20
8.3889698211
 30
0.0
 11
8.7514042528
 21
8.5885958496
 31
0.0
  0
LINE
  5
299
330
1F
100
AcDbEntity
  8
LAYER_3
100
AcDbLine
 10
8.7514042528
 20
8.5885958496
 30
0.0
 11
8.8920076316
 21
8.7945479532
 31
0.0
  0
LINE
  5
29A
330
1F
100
AcDbEntity
  8
LAYER_3
100
AcDbLine
 10
8.8920076316
 20
8.7945479532
 30
0.0
 11
9.0227380972
 21
9.0064028532
 31
0.0
  0
LINE
  5
29B
330
1F
100
AcDbEntity
  8
LAYER_3
100
AcDbLine
 10
9.0227380972
 20
9.0064028532
 30
0.0
 11
9.1115632631
 21
9.1648417024
 31
0.0
  0
LINE
  5
29C
330
1F
100
AcDbEntity
  8
LAYER_3
100
AcDbLine
 10
9.1115632631
 20
9.1648417024
 30
0.0
 11
9.1942581138
 21
9.3263065079
 31
0.0
  0
LINE
  5
29D
330
1F
100
AcDbEntity
  8
LAYER_3
100
AcDbLine
 10
9.1942581138
 20
9.3263065079
 30
0.0
 11
9.2707108592
 21
9.4905789954
 31
0.0
  0
LINE
  5
29E
330
1F
100
AcDbEntity
  8
LAYER_3
100
AcDbLine
 10
9.2707108592
 20
9.4905789954
 30
0.0
 11
9.3408181475
 21
9.6574370951
 31
0.0
  0
LINE
  5
29F
330
1F
100
AcDbEntity
  8
LAYER_3
100
AcDbLine
 10
9.3408181475
 20
9.6574370951
 30
0.0
 11
9.403444361
 21
9.8240515865
 31
0.0
  0
LINE
  5
2A0
330
1F
100
AcDbEntity
  8
LAYER_3
100
AcDbLine
 10
9.403444361
 20
9.8240515865
 30
0.0
 11
9.459534978
 21
9.9927960399
 31
0.0
  0
LINE
  5
2A1
330
1F
100
AcDbEntity
  8
LAYER_3
100
AcDbLine
 10
9.459534978
 20
9.9927960399
 30
0.0
 11
9.5090115776
 21
10.1634345311
 31
0.0
  0
LINE
  5
2A2
330
1F
100
AcDbEntity
  8
LAYER_3
100
AcDbLine
 10
9.5090115776
 20
10.1634345311
 30
0.0
 11
9.5518049856
 21
10.3357284877
 31
0.0
  0
LINE
  5
2A3
330
1F
100
AcDbEntity
  8
LAYER_3
100
AcDbLine
 10
9.5518049856
 20
10.3357284877
 30
0.0
 11
9.587705226
 21
10.5088788406
 31
0.0
  0
LINE
  5
2A4
330
1F
100
AcDbEntity
  8
LAYER_3
100
AcDbLine
 10
9.587705226
 20
10.5088788406
 30
0.0
 11
9.6167673126
 21
10.6832061429
 31
0.0
  0
LINE
  5
2A5
330
1F
100
AcDbEntity
  8
LAYER_3
100
AcDbLine
 10
9.6167673126
 20
10.6832061429
 30
0.0
 11
9.6389498131
 21
10.8584618646
 31
0.0
  0
LINE
  5
2A6
330
1F
100
AcDbEntity
  8
LAYER_3
100
AcDbLine
 10
9.6389498131
 20
10.8584618646
 30
0.0
 11
9.6542211029
 21
11.0343961521
 31
0.0
  0
LINE
  5
2A7
330
1F
100
AcDbEntity
  8
LAYER_3
100
AcDbLine
 10
9.6542211029
 20
11.0343961521
 30
0.0
 11
9.6565467289
 21
11.0739900856
 31
0.0
  0
LINE
  5
2A8
330
1F
100
AcDbEntity
  8
LAYER_3
100
AcDbLine
 10
9.6565467289
 20
11.0739900856
 30
0.0
 11
9.658218862
 21
11.1136143802
 31
0.0
  0
LINE
  5
2A9
330
1F
100
AcDbEntity
  8
LAYER_3
100
AcDbLine
 10
9.658218862
 20
11.1136143802
 30
0.0
 11
9.6592370833
 21
11.1532591067
 31
0.0
  0
LINE
  5
2AA
330
1F
100
AcDbEntity
  8
LAYER_3
100
AcDbLine
 10
9.6592370833
 20
11.1532591067
 30
0.0
 11
9.6603524695
 21
11.2385805309
 31
0.0
  0
LINE
  5
2AB
330
1F
100
AcDbEntity
  8
LAYER_3
100
AcDbLine
 10
9.6603524695
 20
11.2385805309
 30
0.0
 11
9.6607242568
 21
11.3239079211
 31
0.0
  0
LINE
  5
2AC
330
1F
100
AcDbEntity
  8
LAYER_3
100
AcDbLine
 10
9.6607242568
 20
11.3239079211
 30
0.0
 11
9.6603524695
 21
11.4092353113
 31
0.0
  0
CIRCLE
  5
2AD
330
1F
100
AcDbEntity
  8
LAYER_1
100
AcDbCircle
 10
0.0
 20
15.0
 30
0.0
 40
0.62
  0
ARC
  5
2AE
330
1F
100
AcDbEntity
  8
LAYER_2
100
AcDbCircle
 10
3.0
 20
12.0
 30
0.0
 40
15.0
100
AcDbArc
 50
0.0
 51
135.0
  0
ARC
  5
2AF
330
1F
100
AcDbEntity
  8
LAYER_2
100
AcDbCircle
 10
3.0
 20
12.0
 30
0.0
 40
15.0
100
AcDbArc
 50
135.0
 51
0.0
  0
CIRCLE
  5
2B0
330
1F
100
AcDbEntity
  8
LAYER_3
100
AcDbCircle
 10
0.0
 20
15.0
 30
0.0
 40
0.62
  0
ARC
  5
2B1
330
1F
100
AcDbEntity
  8
LAYER_3
100
AcDbCircle
 10
3.0
 20
12.0
 30
0.0
 40
15.0
100
AcDbArc
 50
0.0
 51
135.0
  0
CIRCLE
  5
2B2
330
1F
100
AcDbEntity
  8
LAYER_3
100
AcDbCircle
 10
0.0
 20
15.0
 30
0.0
 40
0.6200000000000004
  0
ARC
  5
2B3
330
1F
100
AcDbEntity
  8
LAYER_3
100
AcDbCircle
 10
3.0
 20
12.0
 30
0.0
 40
15.0
100
AcDbArc
 50
135.0
 51
0.0
  0
INSERT
  5
2BA
330
1F
100
AcDbEntity
  8
LAYER_3
100
AcDbBlockReference
  2
SW_NOTE_0
 10
-0.0542568916
 20
-0.1759143018
 30
0.0
  0
INSERT
  5
2C0
330
1F
100
AcDbEntity
  8
LAYER_3
100
AcDbBlockReference
  2
SW_NOTE_0_1
 10
-10.8878164897
 20
-10.7809464314
 30
0.0
  0
ENDSEC
  0
SECTION
  2
OBJECTS
  0
DICTIONARY
  5
C
330
0
100
AcDbDictionary
281
     1
  3
ACAD_GROUP
350
D
  3
ACAD_LAYOUT
350
1A
  3
ACAD_MLINESTYLE
350
17
  3
ACAD_PLOTSETTINGS
350
19
  3
ACAD_PLOTSTYLENAME
350
E
  3
ACAD_SCALELIST
350
47
  3
DWGPROPS
350
2C1
  0
DICTIONARY
  5
D
102
{ACAD_REACTORS
330
C
102
}
330
C
100
AcDbDictionary
281
     1
  0
DICTIONARY
  5
1A
102
{ACAD_REACTORS
330
C
102
}
330
C
100
AcDbDictionary
281
     1
  3
Layout1
350
1E
  3
Layout2
350
26
  3
Model
350
22
  0
DICTIONARY
  5
17
102
{ACAD_REACTORS
330
C
102
}
330
C
100
AcDbDictionary
281
     1
  3
Standard
350
18
  0
DICTIONARY
  5
19
102
{ACAD_REACTORS
330
C
102
}
330
C
100
AcDbDictionary
281
     1
  0
ACDBDICTIONARYWDFLT
  5
E
102
{ACAD_REACTORS
330
C
102
}
330
C
100
AcDbDictionary
281
     1
  3
Normal
350
F
100
AcDbDictionaryWithDefault
340
F
  0
DICTIONARY
  5
47
102
{ACAD_REACTORS
330
C
102
}
330
C
100
AcDbDictionary
281
     1
  3
A0
350
48
  3
A1
350
49
  3
A2
350
4A
  3
A3
350
4B
  3
A4
350
4C
  3
A5
350
4D
  3
A6
350
4E
  3
A7
350
4F
  3
A8
350
50
  3
A9
350
51
  3
B1
350
52
  3
B2
350
53
  3
B3
350
54
  3
B4
350
55
  3
B5
350
56
  3
B6
350
57
  3
B7
350
58
  0
XRECORD
  5
2C1
102
{ACAD_REACTORS
330
C
102
}
330
C
100
AcDbXrecord
280
     1
  1
DWGPROPS COOKIE
  2

  3

  4

  6

  7

  8
linkouslc
  9

300
=
301
=
302
=
303
=
304
=
305
=
306
=
307
=
308
=
309
=
 40
0.0
 41
2460359.953937083
 42
2460359.953937639
  1

 90
        0
  0
LAYOUT
  5
1E
102
{ACAD_REACTORS
330
1A
102
}
330
1A
100
AcDbPlotSettings
  1

  2
none_device
  4

  6

 40
0.0
 41
0.0
 42
0.0
 43
0.0
 44
0.0
 45
0.0
 46
0.0
 47
0.0
 48
0.0
 49
0.0
140
0.0
141
0.0
142
1.0
143
1.0
 70
   688
 72
     0
 73
     0
 74
     5
  7

 75
    16
147
1.0
148
0.0
149
0.0
100
AcDbLayout
  1
Layout1
 70
     1
 71
     1
 10
0.0
 20
0.0
 11
12.0
 21
9.0
 12
0.0
 22
0.0
 32
0.0
 14
1.0000000000E+20
 24
1.0000000000E+20
 34
1.0000000000E+20
 15
-1.0000000000E+20
 25
-1.0000000000E+20
 35
-1.0000000000E+20
146
0.0
 13
0.0
 23
0.0
 33
0.0
 16
1.0
 26
0.0
 36
0.0
 17
0.0
 27
1.0
 37
0.0
 76
     0
330
1B
  0
LAYOUT
  5
26
102
{ACAD_REACTORS
330
1A
102
}
330
1A
100
AcDbPlotSettings
  1

  2
none_device
  4

  6

 40
0.0
 41
0.0
 42
0.0
 43
0.0
 44
0.0
 45
0.0
 46
0.0
 47
0.0
 48
0.0
 49
0.0
140
0.0
141
0.0
142
1.0
143
1.0
 70
   688
 72
     0
 73
     0
 74
     5
  7

 75
    16
147
1.0
148
0.0
149
0.0
100
AcDbLayout
  1
Layout2
 70
     1
 71
     2
 10
0.0
 20
0.0
 11
0.0
 21
0.0
 12
0.0
 22
0.0
 32
0.0
 14
0.0
 24
0.0
 34
0.0
 15
0.0
 25
0.0
 35
0.0
146
0.0
 13
0.0
 23
0.0
 33
0.0
 16
1.0
 26
0.0
 36
0.0
 17
0.0
 27
1.0
 37
0.0
 76
     0
330
23
  0
LAYOUT
  5
22
102
{ACAD_REACTORS
330
1A
102
}
330
1A
100
AcDbPlotSettings
  1

  2
none_device
  4
Letter_(8.50_x_11.00_Inches)
  6

 40
6.35
 41
6.35
 42
6.35000508
 43
6.35000508
 44
215.9
 45
279.4
 46
0.0
 47
0.0
 48
0.0
 49
0.0
140
0.0
141
0.0
142
1.0
143
1.0
 70
  1712
 72
     0
 73
     0
 74
     0
  7

 75
     0
147
1.0
148
0.0
149
0.0
100
AcDbLayout
  1
Model
 70
     1
 71
     0
 10
0.0
 20
0.0
 11
44.0
 21
34.0
 12
0.0
 22
0.0
 32
0.0
 14
0.0
 24
0.0
 34
0.0
 15
44.0
 25
34.0
 35
0.0
146
0.0
 13
0.0
 23
0.0
 33
0.0
 16
1.0
 26
0.0
 36
0.0
 17
0.0
 27
1.0
 37
0.0
 76
     0
330
1F
331
29
  0
MLINESTYLE
  5
18
102
{ACAD_REACTORS
330
17
102
}
330
17
100
AcDbMlineStyle
  2
Standard
 70
     0
  3

 62
   256
 51
90.0
 52
90.0
 71
     2
 49
0.5
 62
   256
  6
BYLAYER
 49
-0.5
 62
   256
  6
BYLAYER
  0
ACDBPLACEHOLDER
  5
F
102
{ACAD_REACTORS
330
E
102
}
330
E
  0
SCALE
  5
48
102
{ACAD_REACTORS
330
47
102
}
330
47
100
AcDbScale
 70
     0
300
1:1
140
1.0
141
1.0
290
     1
  0
SCALE
  5
49
102
{ACAD_REACTORS
330
47
102
}
330
47
100
AcDbScale
 70
     0
300
1/128" = 1'-0"
140
0.0078125
141
12.0
290
     0
  0
SCALE
  5
4A
102
{ACAD_REACTORS
330
47
102
}
330
47
100
AcDbScale
 70
     0
300
1/64" = 1'-0"
140
0.015625
141
12.0
290
     0
  0
SCALE
  5
4B
102
{ACAD_REACTORS
330
47
102
}
330
47
100
AcDbScale
 70
     0
300
1/32" = 1'-0"
140
0.03125
141
12.0
290
     0
  0
SCALE
  5
4C
102
{ACAD_REACTORS
330
47
102
}
330
47
100
AcDbScale
 70
     0
300
1/16" = 1'-0"
140
0.0625
141
12.0
290
     0
  0
SCALE
  5
4D
102
{ACAD_REACTORS
330
47
102
}
330
47
100
AcDbScale
 70
     0
300
3/32" = 1'-0"
140
0.09375
141
12.0
290
     0
  0
SCALE
  5
4E
102
{ACAD_REACTORS
330
47
102
}
330
47
100
AcDbScale
 70
     0
300
1/8" = 1'-0"
140
0.125
141
12.0
290
     0
  0
SCALE
  5
4F
102
{ACAD_REACTORS
330
47
102
}
330
47
100
AcDbScale
 70
     0
300
3/16" = 1'-0"
140
0.1875
141
12.0
290
     0
  0
SCALE
  5
50
102
{ACAD_REACTORS
330
47
102
}
330
47
100
AcDbScale
 70
     0
300
1/4" = 1'-0"
140
0.25
141
12.0
290
     0
  0
SCALE
  5
51
102
{ACAD_REACTORS
330
47
102
}
330
47
100
AcDbScale
 70
     0
300
3/8" = 1'-0"
140
0.375
141
12.0
290
     0
  0
SCALE
  5
52
102
{ACAD_REACTORS
330
47
102
}
330
47
100
AcDbScale
 70
     0
300
1/2" = 1'-0"
140
0.5
141
12.0
290
     0
  0
SCALE
  5
53
102
{ACAD_REACTORS
330
47
102
}
330
47
100
AcDbScale
 70
     0
300
3/4" = 1'-0"
140
0.75
141
12.0
290
     0
  0
SCALE
  5
54
102
{ACAD_REACTORS
330
47
102
}
330
47
100
AcDbScale
 70
     0
300
1" = 1'-0"
140
1.0
141
12.0
290
     0
  0
SCALE
  5
55
102
{ACAD_REACTORS
330
47
102
}
330
47
100
AcDbScale
 70
     0
300
1-1/2" = 1'-0"
140
1.5
141
12.0
290
     0
  0
SCALE
  5
56
102
{ACAD_REACTORS
330
47
102
}
330
47
100
AcDbScale
 70
     0
300
3" = 1'-0"
140
3.0
141
12.0
290
     0
  0
SCALE
  5
57
102
{ACAD_REACTORS
330
47
102
}
330
47
100
AcDbScale
 70
     0
300
6" = 1'-0"
140
6.0
141
12.0
290
     0
  0
SCALE
  5
58
102
{ACAD_REACTORS
330
47
102
}
330
47
100
AcDbScale
 70
     0
300
1'-0" = 1'-0"
140
12.0
141
12.0
290
     0
  0
ENDSEC
  0
EOF
